<?xml version="1.0" encoding="utf-8"?>
<!-- Generator: Adobe Illustrator 27.5.0, SVG Export Plug-In . SVG Version: 6.00 Build 0)  -->
<svg version="1.1" xmlns="http://www.w3.org/2000/svg" xmlns:xlink="http://www.w3.org/1999/xlink" x="0px" y="0px"
	 viewBox="0 0 750 500" style="enable-background:new 0 0 750 500;" xml:space="preserve">
<g id="BACKGROUND">
	<rect style="fill:#FFE8C2;" width="750" height="500"/>
</g>
<g id="OBJECTS">
	<g>
		<defs>
			<rect id="SVGID_1_" width="750" height="500"/>
		</defs>
		<clipPath id="SVGID_00000105413095364743681770000017160319116904746920_">
			<use xlink:href="#SVGID_1_"  style="overflow:visible;"/>
		</clipPath>
		<g style="clip-path:url(#SVGID_00000105413095364743681770000017160319116904746920_);">
			<path style="opacity:0.4;fill:#FFFFFF;" d="M-16.472,20.771c17.069-0.317,33.968,9.32,42.42,24.192s8.108,34.361-0.864,48.924
				c6.904-2.077,15.756,4.089,16.274,11.298c12.909-16.222,36.434-22.313,56.314-16.536c19.88,5.777,35.42,24.316,37.676,44.945
				c5.278-5.606,12.346-5.899,19.965-4.862c7.619,1.037,14.615,5.935,18.211,12.749c14.136-14.723,37.813-19.076,57.126-12.543
				c19.313,6.533,34.108,24.859,36.459,45.159c8.114-3.671,18.491,3.113,20.197,11.873c10.079-7.332,23.184-10.289,35.571-9.008
				c12.387,1.281,24.23,7.283,32.604,16.524c3.849-6.692,14.229-7.471,19.509-1.844c13.685-14.485,32.927-23.926,52.826-23.954
				c19.899-0.029,39.671,8.449,53.398,22.895c3.268-6.971,8.574-12.404,16.054-14.16c7.48-1.757,15.72,0.095,21.736,4.885
				c6.314-16.876,20.516-30.867,37.858-35.612c17.342-4.745,36.853-0.65,50.842,10.67c2.23-4.007,5.685-7.164,10.256-7.388
				c4.571-0.224,9.187,2.056,11.796,5.826c-1.37-17.744,11.778-33.707,28.294-40.226c16.516-6.519,35.454-4.184,51.915,2.473
				c-0.974-12.089,6.368-24.638,15.971-32.014c9.602-7.375,22.998-9.472,34.385-5.381c-0.328,7.227,0.013,15.335-0.315,22.562v145.2
				c-255.51,41.31-521.149,30.831-772.467-31.16C-10.497,150.557-18.436,86.469-16.472,20.771z"/>
			<path style="fill:#FFFFFF;" d="M-14.151,113.588c10.568-10.486,26.941-13.408,39.497-7.047
				c12.556,6.36,20.499,21.599,19.161,36.761c5.034-5.614,12.695-8.42,19.409-6.198c6.715,2.221,11.846,8.857,12.696,16.417
				c21.85-18.008,51.561-22.632,75.28-9.739c23.718,12.893,38.893,41.515,37.435,70.607c11.597-18.427,30.725-31.835,50.842-35.601
				c20.117-3.766,42.433,6.222,50.16,26.104c8.331-5.942,21.347-2.265,23.903,7.831c16.48-7.659,33.479-16.139,51.14-15.584
				s35.894,11.198,40.492,29.409c1.171-6.368,9.635-9.898,15.216-7.81c5.582,2.088,9.375,7.438,12.856,12.532
				c11.502-16.082,28.942-27.217,47.25-30.831c18.307-3.614,37.559,0.54,52.681,11.367c9.439-17.473,26.672-30.669,44.818-35.05
				c18.146-4.382,37.647-0.011,52.134,11.684c9.982-14.603,20.989-28.143,36.507-34.918c15.518-6.775,34.469-5.754,46.507,5.928
				c-0.956-6.282,2.129-13.935,7.578-16.738c5.449-2.803,12.412-1.214,16.084,3.671c3.447-12.162,16.74-20.418,27.883-17.116
				c-1.071,7.348-3.12,179.714-3.12,179.714l-782.88,33.124L-14.151,113.588z"/>
		</g>
		<g style="clip-path:url(#SVGID_00000105413095364743681770000017160319116904746920_);">
			<g>
				<path style="fill:#FFE8C2;" d="M789.117,286.726v25.613l-828.234-6.021v-22.967c0,0,79.964-73.072,161.154-87.69l106.093,58.18
					l60.669-11.31l112.664,36.975c0,0,36.533-51.122,97.066-73.348c7.071,1.258,149.42,57.247,149.42,57.247L789.117,286.726z"/>
			</g>
		</g>
		<g style="clip-path:url(#SVGID_00000105413095364743681770000017160319116904746920_);">
			<g>
				<path style="fill:#A59753;" d="M27.724,278.997c-2.237-3.823-4.492-7.687-5.819-11.913c-0.407-1.296-0.725-2.682-0.409-4.002
					c0.317-1.321,1.446-2.535,2.804-2.525c1.502,0.011,2.595,1.395,3.343,2.698c1.467,2.553,2.542,5.33,3.177,8.204
					c-1.374-5.066-2.371-10.298-2.252-15.545c0.026-1.123,0.119-2.288,0.672-3.265c0.553-0.977,1.689-1.709,2.783-1.458
					c1.317,0.302,1.962,1.764,2.353,3.057c1.244,4.122,1.891,8.423,1.914,12.728c0.33-4.845,1.605-9.468,3.744-13.827
					c0.426-0.867,0.905-1.743,1.658-2.349s1.846-0.883,2.704-0.438c1.243,0.645,1.397,2.345,1.278,3.74
					c-0.394,4.623-1.968,9.053-3.529,13.422c1.414-2.234,3.254-4.066,5.37-5.652c0.897-0.673,1.889-1.292,3.002-1.43
					c1.113-0.138,2.368,0.328,2.847,1.341c0.633,1.338-0.277,2.871-1.211,4.018c-2.24,2.752-4.862,5.194-7.766,7.233
					c0.954-0.284,1.718-0.755,2.626-1.163c0.908-0.408,1.92-0.706,2.893-0.498c0.974,0.208,1.865,1.059,1.826,2.054
					c-0.049,1.261-1.393,2.006-2.554,2.501c-3.671,1.563-7.342,3.126-11.013,4.689C34.749,280.216,31.142,279.398,27.724,278.997z"
					/>
				<path style="fill:#62511B;" d="M39.786,280.063c-1.356-2.655-0.488-6.15,1.747-8.123c2.235-1.973,5.575-2.455,8.409-1.528
					c2.834,0.927,5.15,3.13,6.566,5.753c-1.393-4.423,0.081-9.581,2.862-13.291c1.903-2.538,4.597-4.609,7.717-5.185
					c3.328-0.614,6.764,0.523,9.679,2.243c5.611,3.312,9.839,8.891,11.51,15.188c1.163-0.958,3.031-1.441,4.462-0.97
					c1.431,0.471,2.583,1.71,2.949,3.172c0.705-2.481,2.721-4.592,4.903-5.969c2.182-1.377,4.741-2.073,7.309-2.322
					c3.611-0.35,7.447,0.223,10.38,2.359c2.932,2.136,4.711,6.056,3.649,9.525c1.087-1.452,3.313-1.828,5.083-1.43
					c1.77,0.398,3.24,1.901,3.6,3.678c2.296-1.758,4.772-3.428,7.449-4.52c2.677-1.092,5.789-1.435,8.44-0.28
					c2.584,1.125,4.45,3.578,5.272,6.274c0.822,2.696,0.688,5.611,0.069,8.361C114.402,291.217,76.768,286.172,39.786,280.063z"/>
			</g>
			<g>
				<path style="fill:#A59753;" d="M467.169,295.087c-1.863-1.887-4.195-3.229-6.279-4.868c-2.084-1.639-4.007-3.737-4.518-6.339
					c-0.207-1.054-0.062-2.348,0.866-2.888c0.643-0.375,1.455-0.259,2.172-0.059c2.063,0.575,3.951,1.763,5.362,3.373
					c-3.24-4.276-6.317-8.623-7.407-13.876c-0.333-1.606-0.311-3.576,1.026-4.527c0.941-0.669,2.267-0.571,3.292-0.038
					c1.024,0.533,1.806,1.429,2.527,2.332c2.243,2.811,4.146,5.895,5.652,9.161c-1.247-5.353-1.269-11.005-0.236-16.403
					c0.267-1.394,0.625-2.81,1.439-3.972c0.814-1.162,2.176-2.032,3.59-1.903c1.218,0.111,2.282,0.946,2.935,1.98
					s0.948,2.251,1.149,3.457c0.941,5.623,0.059,11.379-0.98,16.985c0.617-2.371,1.857-4.529,3.805-6.015
					c0.746-0.569,1.588-1.052,2.515-1.197c0.927-0.146,1.95,0.092,2.589,0.78c0.882,0.951,0.813,2.424,0.587,3.701
					c-0.536,3.032-1.653,5.96-3.273,8.578c0.945-1.24,2.31-2.399,3.839-2.092c1.536,0.308,2.223,2.286,1.743,3.777
					c-0.48,1.491-1.735,2.578-2.935,3.585c-2.31,1.939-4.621,3.878-6.931,5.817C475.488,294.435,471.378,295.087,467.169,295.087z"
					/>
				<path style="fill:#62511B;" d="M530.53,290.453c-18.854,1.449-37.708,2.898-56.562,4.347c-0.495-2.23-0.147-5.318,1.686-6.682
					c1.833-1.364,4.474-1.537,6.469-0.423c-1.586-2.855-0.924-6.734,1.317-9.11c2.241-2.376,5.829-3.275,9.009-2.531
					c3.18,0.744,5.906,3.004,7.514,5.846c0.472-1.083,1.47-1.83,2.649-1.768c1.18,0.062,2.278,0.911,2.635,2.037
					c1.281-4.783,6.213-8.29,11.13-7.712c4.917,0.578,9.059,5.107,9.195,10.056c1.385-0.566,3.115-0.124,4.146,0.961
					S531.166,289.099,530.53,290.453z"/>
			</g>
		</g>
		<g style="clip-path:url(#SVGID_00000105413095364743681770000017160319116904746920_);">
			<path style="fill:#FFD071;" d="M-30.678,267.915c262.029,45.418,532.882,39.345,792.611-17.773
				c0.927,7.413,2.889,13.217,3.816,20.63v262.377c-14.826-0.463-28.255-2.456-43.088-2.456H-45.2
				C-38.443,447.029-28.08,351.81-30.678,267.915z"/>
			<g>
				<g>
					<path style="fill:#513543;" d="M466.061,314.801c9.014,4.274,19.533,6.212,29.863,2.93c-1.345-6.503-6.258-12.695-12.8-13.832
						c-6.542-1.137-13.625,2.071-17.086,7.738c-1.437-2.508-4.633-4.154-7.48-3.655c-2.847,0.499-5.258,2.909-5.756,5.757
						C456.342,315.817,462.136,316.006,466.061,314.801z"/>
					<g>
						<path style="fill:#33222B;" d="M488.618,313.958c0.031-0.114,0.119-0.237,0.226-0.294c0.243-0.128,0.525-0.056,0.672,0.176
							c0.205,0.322,0.41,0.644,0.614,0.966c0.067,0.105,0.082,0.26,0.05,0.379c-0.031,0.114-0.12,0.238-0.226,0.294
							c-0.243,0.128-0.525,0.056-0.672-0.176c-0.205-0.322-0.41-0.644-0.615-0.966C488.601,314.232,488.585,314.077,488.618,313.958
							z"/>
						<path style="fill:#33222B;" d="M485.958,311.478c0.016-0.057,0.06-0.119,0.113-0.147c0.057-0.03,0.126-0.045,0.189-0.025
							c0.061,0.02,0.113,0.057,0.147,0.113c0.088,0.146,0.176,0.293,0.263,0.439c0.033,0.054,0.042,0.128,0.025,0.189
							c-0.016,0.057-0.06,0.119-0.113,0.147c-0.057,0.03-0.126,0.045-0.189,0.025c-0.061-0.02-0.113-0.057-0.147-0.113
							c-0.088-0.146-0.176-0.293-0.263-0.439C485.95,311.613,485.941,311.538,485.958,311.478z"/>
						<path style="fill:#33222B;" d="M487.164,307.859c0.094-0.086,0.217-0.15,0.348-0.144c0.125,0.006,0.262,0.046,0.348,0.144
							c0.205,0.234,0.41,0.468,0.615,0.702c0.048,0.044,0.082,0.097,0.102,0.158c0.031,0.059,0.045,0.122,0.042,0.189
							c0,0.12-0.054,0.265-0.144,0.348c-0.094,0.086-0.217,0.15-0.348,0.144c-0.125-0.006-0.262-0.046-0.348-0.144
							c-0.205-0.234-0.41-0.468-0.615-0.702c-0.048-0.044-0.082-0.097-0.102-0.158c-0.031-0.059-0.045-0.122-0.042-0.189
							C487.02,308.086,487.074,307.943,487.164,307.859z"/>
						<path style="fill:#33222B;" d="M462.771,311.573c0.008-0.032,0.022-0.06,0.044-0.083c0.017-0.027,0.04-0.048,0.069-0.063
							c0.057-0.03,0.126-0.045,0.189-0.025c0.02,0.008,0.039,0.017,0.059,0.025c0.037,0.022,0.066,0.051,0.088,0.088
							c0.06,0.087,0.12,0.174,0.179,0.261c0.018,0.028,0.028,0.059,0.029,0.091c0.007,0.033,0.006,0.065-0.004,0.098
							c-0.008,0.032-0.022,0.06-0.044,0.083c-0.017,0.027-0.04,0.048-0.069,0.063c-0.057,0.03-0.126,0.045-0.189,0.025
							c-0.02-0.008-0.039-0.017-0.059-0.025c-0.037-0.022-0.066-0.051-0.088-0.088c-0.06-0.087-0.119-0.174-0.179-0.261
							c-0.018-0.028-0.028-0.059-0.029-0.091C462.759,311.638,462.761,311.606,462.771,311.573z"/>
						<path style="fill:#33222B;" d="M460.814,309.422c0.02-0.061,0.054-0.114,0.102-0.158c0.033-0.026,0.066-0.051,0.099-0.077
							c0.077-0.044,0.159-0.067,0.248-0.067c0.044,0.006,0.087,0.012,0.131,0.017c0.083,0.023,0.156,0.065,0.217,0.126
							c0.117,0.146,0.234,0.293,0.351,0.439c0.048,0.044,0.082,0.097,0.102,0.158c0.031,0.059,0.045,0.122,0.042,0.189
							c0.003,0.068-0.012,0.131-0.042,0.189c-0.02,0.061-0.054,0.114-0.102,0.158c-0.033,0.026-0.066,0.051-0.099,0.077
							c-0.077,0.044-0.159,0.067-0.248,0.067l-0.131-0.018c-0.083-0.023-0.156-0.065-0.217-0.126
							c-0.117-0.146-0.234-0.293-0.351-0.439c-0.048-0.044-0.082-0.097-0.102-0.158c-0.031-0.059-0.045-0.122-0.042-0.189
							C460.77,309.544,460.784,309.481,460.814,309.422z"/>
						<path style="fill:#33222B;" d="M460.588,311.565c0.016-0.057,0.06-0.119,0.113-0.147c0.057-0.03,0.126-0.045,0.189-0.025
							c0.061,0.02,0.113,0.057,0.147,0.113c0.088,0.146,0.175,0.293,0.263,0.439c0.033,0.054,0.042,0.129,0.025,0.189
							c-0.016,0.057-0.06,0.119-0.113,0.147c-0.057,0.03-0.126,0.045-0.189,0.025c-0.061-0.02-0.113-0.057-0.147-0.113
							c-0.088-0.146-0.176-0.293-0.263-0.439C460.58,311.7,460.571,311.626,460.588,311.565z"/>
						<path style="fill:#33222B;" d="M487.363,315.516c0.016-0.057,0.06-0.119,0.113-0.147c0.117-0.062,0.268-0.031,0.336,0.088
							c0.117,0.205,0.234,0.41,0.351,0.615c0.032,0.056,0.042,0.127,0.025,0.189c-0.016,0.057-0.06,0.119-0.113,0.147
							c-0.117,0.062-0.268,0.031-0.336-0.088c-0.117-0.205-0.234-0.41-0.351-0.615C487.355,315.649,487.345,315.578,487.363,315.516
							z"/>
						<path style="fill:#33222B;" d="M492.708,314.956c0.09-0.082,0.261-0.107,0.347,0c0.236,0.291,0.471,0.583,0.707,0.874
							c0.042,0.052,0.072,0.104,0.072,0.174c0,0.06-0.027,0.132-0.072,0.174c-0.09,0.082-0.261,0.107-0.348,0
							c-0.236-0.291-0.471-0.583-0.707-0.874c-0.042-0.052-0.072-0.104-0.072-0.174
							C492.636,315.069,492.663,314.997,492.708,314.956z"/>
						<path style="fill:#33222B;" d="M483.563,306.102c0.105-0.097,0.242-0.088,0.347,0c0.351,0.293,0.702,0.585,1.053,0.878
							c0.099,0.083,0.092,0.263,0,0.348c-0.105,0.097-0.242,0.088-0.348,0c-0.351-0.293-0.702-0.585-1.053-0.878
							C483.464,306.367,483.471,306.186,483.563,306.102z"/>
						<path style="fill:#33222B;" d="M462.131,312.96c0.047-0.043,0.108-0.075,0.174-0.072c0.062,0.003,0.132,0.023,0.174,0.072
							c0.175,0.206,0.35,0.411,0.525,0.616c0.043,0.051,0.072,0.105,0.072,0.174c0,0.06-0.027,0.132-0.072,0.174
							c-0.047,0.043-0.108,0.075-0.174,0.072c-0.062-0.003-0.132-0.023-0.174-0.072c-0.175-0.205-0.35-0.411-0.525-0.616
							c-0.043-0.05-0.072-0.105-0.072-0.174C462.059,313.073,462.085,313.002,462.131,312.96z"/>
					</g>
				</g>
				<g>
					<path style="fill:#513543;" d="M74.412,303.729c2.993-4.188,7.363-7.426,12.318-8.822c4.955-1.396,10.468-0.884,14.963,1.625
						c4.494,2.51,7.866,7.042,8.734,12.116C98.787,312.927,84.567,310.847,74.412,303.729z"/>
					<g>
						<path style="fill:#33222B;" d="M80.443,300.064c-0.099-0.153-0.302-0.22-0.465-0.122c-0.391,0.235-0.719,0.552-0.977,0.927
							c-0.048,0.069-0.056,0.183-0.034,0.262c0.022,0.079,0.083,0.164,0.156,0.203c0.079,0.042,0.174,0.063,0.262,0.034
							c0.088-0.028,0.151-0.08,0.203-0.156c0.016-0.024,0.034-0.047,0.051-0.07c0.135-0.172,0.29-0.326,0.462-0.462
							c0.072-0.053,0.145-0.105,0.221-0.151c0.074-0.044,0.133-0.12,0.156-0.203C80.499,300.245,80.489,300.136,80.443,300.064z"/>
						<path style="fill:#33222B;" d="M83.562,299.762c-0.047-0.073-0.116-0.136-0.203-0.156c-0.093-0.021-0.176-0.008-0.262,0.034
							c-0.412,0.202-0.756,0.51-1.028,0.877c-0.049,0.066-0.055,0.186-0.034,0.262c0.022,0.079,0.083,0.164,0.156,0.203
							c0.079,0.042,0.174,0.063,0.262,0.034c0.087-0.028,0.144-0.079,0.198-0.15c-0.004,0.005-0.008,0.01-0.012,0.015
							c0.12-0.154,0.261-0.29,0.413-0.413c0.123-0.091,0.251-0.174,0.388-0.241c0.073-0.036,0.135-0.127,0.156-0.203
							C83.619,299.943,83.609,299.834,83.562,299.762z"/>
						<path style="fill:#33222B;" d="M86.623,297.025c-0.094-0.145-0.233-0.273-0.406-0.312c-0.06-0.008-0.12-0.016-0.18-0.024
							c-0.123,0-0.237,0.031-0.343,0.093c-0.252,0.117-0.503,0.235-0.755,0.352c-0.079,0.043-0.143,0.101-0.19,0.175
							c-0.06,0.066-0.101,0.143-0.122,0.231c-0.028,0.09-0.032,0.18-0.012,0.271c0.004,0.09,0.031,0.175,0.081,0.253
							c0.093,0.145,0.233,0.273,0.406,0.312c0.06,0.008,0.12,0.016,0.181,0.024c0.123,0,0.237-0.031,0.343-0.093
							c0.252-0.117,0.503-0.235,0.755-0.352c0.079-0.043,0.143-0.101,0.191-0.175c0.06-0.066,0.101-0.143,0.122-0.231
							c0.028-0.09,0.032-0.181,0.012-0.271C86.699,297.187,86.672,297.103,86.623,297.025z"/>
						<path style="fill:#33222B;" d="M86.782,299.611c-0.047-0.073-0.116-0.136-0.203-0.156c-0.088-0.02-0.184-0.015-0.262,0.034
							c-0.134,0.084-0.268,0.168-0.403,0.252c-0.074,0.046-0.133,0.118-0.156,0.203c-0.014,0.045-0.016,0.09-0.006,0.135
							c0.002,0.045,0.016,0.087,0.04,0.126c0.047,0.072,0.116,0.136,0.203,0.156c0.088,0.02,0.183,0.015,0.262-0.034
							c0.134-0.084,0.268-0.168,0.402-0.252c0.074-0.046,0.133-0.118,0.156-0.203c0.014-0.045,0.016-0.09,0.006-0.135
							C86.821,299.692,86.807,299.65,86.782,299.611z"/>
						<path style="fill:#33222B;" d="M91.22,296.684c-0.053-0.164-0.155-0.323-0.312-0.406c-0.164-0.087-0.341-0.114-0.523-0.068
							c-0.268,0.067-0.537,0.134-0.805,0.201c-0.088,0.021-0.165,0.062-0.231,0.122c-0.074,0.048-0.132,0.111-0.175,0.191
							c-0.05,0.078-0.076,0.162-0.081,0.253c-0.02,0.09-0.016,0.181,0.012,0.271c0.053,0.164,0.155,0.323,0.312,0.406
							c0.164,0.087,0.341,0.114,0.523,0.069c0.268-0.067,0.537-0.134,0.805-0.201c0.088-0.021,0.165-0.062,0.231-0.122
							c0.074-0.048,0.132-0.111,0.175-0.191c0.049-0.078,0.076-0.162,0.08-0.253C91.252,296.865,91.248,296.774,91.22,296.684z"/>
						<path style="fill:#33222B;" d="M80.134,303.275c-0.047-0.073-0.116-0.136-0.203-0.156c-0.085-0.019-0.187-0.017-0.262,0.034
							c-0.218,0.15-0.437,0.301-0.655,0.451c-0.074,0.051-0.132,0.114-0.156,0.203c-0.022,0.081-0.012,0.19,0.034,0.262
							c0.047,0.073,0.116,0.136,0.203,0.156c0.085,0.019,0.187,0.017,0.262-0.034c0.218-0.15,0.437-0.301,0.655-0.451
							c0.074-0.051,0.132-0.114,0.156-0.203C80.191,303.455,80.18,303.347,80.134,303.275z"/>
					</g>
				</g>
			</g>
			<g>
				<g>
					<g>
						<path style="fill:#EAAB4E;" d="M118.643,308.787c-0.142-0.344-0.284-0.688-0.426-1.031c-0.024-0.058-0.05-0.105-0.106-0.138
							c-0.049-0.029-0.122-0.041-0.177-0.023c-0.107,0.035-0.21,0.164-0.161,0.284c0.142,0.344,0.284,0.688,0.426,1.031
							c0.024,0.058,0.049,0.105,0.106,0.138c0.049,0.029,0.122,0.041,0.177,0.023C118.589,309.036,118.693,308.907,118.643,308.787z
							"/>
						<path style="fill:#EAAB4E;" d="M119.963,304.962c-0.086-0.225-0.314-0.404-0.567-0.322c-0.219,0.071-0.414,0.326-0.322,0.567
							c0.356,0.937,0.53,1.867,0.53,2.851c0,0.241,0.212,0.472,0.461,0.461c0.25-0.011,0.461-0.202,0.461-0.461
							C120.526,307.003,120.338,305.948,119.963,304.962z"/>
						<path style="fill:#EAAB4E;" d="M122.116,305.581c-0.136,0-0.216,0.106-0.23,0.23c-0.06,0.526-0.121,1.052-0.181,1.578
							c-0.014,0.124,0.116,0.23,0.23,0.23c0.136,0,0.216-0.106,0.23-0.23c0.06-0.526,0.121-1.052,0.181-1.578
							C122.361,305.687,122.23,305.581,122.116,305.581z"/>
						<path style="fill:#EAAB4E;" d="M124.88,305.58c-0.218-0.115-0.505-0.059-0.631,0.165c-0.346,0.617-0.693,1.234-1.039,1.85
							c-0.118,0.21-0.057,0.513,0.165,0.631c0.218,0.115,0.504,0.059,0.631-0.165c0.346-0.617,0.693-1.234,1.039-1.85
							C125.163,306,125.102,305.698,124.88,305.58z"/>
						<path style="fill:#EAAB4E;" d="M126,307.672c-0.114-0.06-0.247-0.026-0.315,0.083c-0.203,0.323-0.407,0.646-0.61,0.969
							c-0.064,0.102-0.025,0.259,0.083,0.315c0.114,0.06,0.247,0.026,0.315-0.083c0.203-0.323,0.407-0.646,0.61-0.969
							C126.147,307.885,126.107,307.729,126,307.672z"/>
					</g>
				</g>
				<g>
					<g>
						<path style="fill:#EAAB4E;" d="M392.507,311.017c-0.142-0.344-0.284-0.688-0.426-1.031c-0.024-0.058-0.05-0.105-0.106-0.138
							c-0.049-0.029-0.122-0.041-0.178-0.023c-0.107,0.035-0.21,0.164-0.161,0.283c0.142,0.344,0.284,0.688,0.426,1.031
							c0.024,0.058,0.05,0.105,0.106,0.138c0.049,0.029,0.122,0.041,0.177,0.023C392.453,311.266,392.556,311.136,392.507,311.017z"
							/>
						<path style="fill:#EAAB4E;" d="M393.826,307.191c-0.085-0.225-0.314-0.404-0.567-0.322c-0.219,0.071-0.414,0.326-0.322,0.567
							c0.357,0.937,0.53,1.867,0.53,2.851c0,0.241,0.212,0.472,0.461,0.461c0.25-0.011,0.461-0.202,0.461-0.461
							C394.389,309.233,394.201,308.177,393.826,307.191z"/>
						<path style="fill:#EAAB4E;" d="M395.98,307.81c-0.136,0-0.216,0.106-0.23,0.23c-0.061,0.526-0.121,1.052-0.181,1.578
							c-0.014,0.124,0.116,0.23,0.23,0.23c0.136,0,0.216-0.106,0.23-0.23c0.06-0.526,0.121-1.052,0.181-1.578
							C396.224,307.917,396.094,307.81,395.98,307.81z"/>
						<path style="fill:#EAAB4E;" d="M398.743,307.81c-0.218-0.115-0.504-0.059-0.63,0.165c-0.346,0.617-0.693,1.234-1.039,1.85
							c-0.118,0.21-0.057,0.513,0.165,0.63c0.218,0.115,0.504,0.059,0.631-0.165c0.346-0.617,0.693-1.234,1.039-1.85
							C399.027,308.23,398.966,307.927,398.743,307.81z"/>
						<path style="fill:#EAAB4E;" d="M399.863,309.902c-0.113-0.06-0.247-0.026-0.315,0.083c-0.203,0.323-0.407,0.646-0.61,0.969
							c-0.064,0.102-0.025,0.258,0.083,0.315c0.113,0.06,0.247,0.026,0.315-0.083c0.203-0.323,0.407-0.646,0.61-0.969
							C400.01,310.115,399.971,309.959,399.863,309.902z"/>
					</g>
				</g>
				<g>
					<g>
						<path style="fill:#EAAB4E;" d="M540.251,312.452c-0.142-0.344-0.284-0.688-0.426-1.031c-0.024-0.058-0.049-0.105-0.106-0.138
							c-0.049-0.029-0.122-0.041-0.178-0.023c-0.107,0.035-0.21,0.164-0.161,0.283c0.142,0.344,0.284,0.688,0.426,1.031
							c0.024,0.058,0.05,0.105,0.106,0.138c0.049,0.029,0.122,0.041,0.178,0.023C540.197,312.701,540.3,312.572,540.251,312.452z"/>
						<path style="fill:#EAAB4E;" d="M541.57,308.627c-0.085-0.225-0.314-0.404-0.567-0.322c-0.219,0.071-0.414,0.326-0.322,0.567
							c0.357,0.937,0.53,1.867,0.53,2.851c0,0.241,0.212,0.472,0.461,0.461c0.25-0.011,0.461-0.203,0.461-0.461
							C542.133,310.668,541.945,309.612,541.57,308.627z"/>
						<path style="fill:#EAAB4E;" d="M543.724,309.246c-0.137,0-0.216,0.106-0.231,0.23c-0.06,0.526-0.121,1.052-0.181,1.578
							c-0.014,0.124,0.116,0.23,0.23,0.23c0.136,0,0.216-0.106,0.23-0.23c0.06-0.526,0.121-1.052,0.181-1.578
							C543.968,309.352,543.838,309.246,543.724,309.246z"/>
						<path style="fill:#EAAB4E;" d="M546.487,309.245c-0.218-0.115-0.504-0.059-0.63,0.165c-0.346,0.617-0.693,1.234-1.039,1.851
							c-0.118,0.21-0.057,0.513,0.165,0.63c0.218,0.115,0.504,0.059,0.631-0.165c0.346-0.617,0.693-1.234,1.039-1.85
							C546.771,309.665,546.71,309.362,546.487,309.245z"/>
						<path style="fill:#EAAB4E;" d="M547.607,311.337c-0.114-0.06-0.247-0.026-0.315,0.083c-0.203,0.323-0.407,0.646-0.61,0.969
							c-0.064,0.102-0.025,0.258,0.083,0.315c0.113,0.06,0.247,0.026,0.315-0.083c0.203-0.323,0.407-0.646,0.61-0.969
							C547.754,311.55,547.715,311.394,547.607,311.337z"/>
					</g>
				</g>
				<g>
					<g>
						<path style="fill:#EAAB4E;" d="M716.93,329.532c-0.142-0.344-0.284-0.688-0.426-1.031c-0.024-0.058-0.049-0.105-0.106-0.138
							c-0.049-0.029-0.122-0.041-0.178-0.023c-0.107,0.035-0.21,0.164-0.161,0.283c0.142,0.344,0.284,0.688,0.426,1.031
							c0.024,0.058,0.05,0.105,0.106,0.138c0.049,0.029,0.122,0.041,0.178,0.023C716.875,329.781,716.979,329.651,716.93,329.532z"
							/>
						<path style="fill:#EAAB4E;" d="M718.249,325.706c-0.086-0.225-0.315-0.404-0.567-0.322c-0.219,0.071-0.414,0.326-0.322,0.567
							c0.357,0.937,0.53,1.867,0.53,2.851c0,0.241,0.212,0.472,0.461,0.461c0.25-0.011,0.461-0.203,0.461-0.461
							C718.812,327.748,718.624,326.692,718.249,325.706z"/>
						<path style="fill:#EAAB4E;" d="M720.402,326.325c-0.136,0-0.216,0.106-0.23,0.23c-0.06,0.526-0.121,1.052-0.181,1.578
							c-0.014,0.124,0.116,0.23,0.23,0.23c0.137,0,0.216-0.106,0.231-0.23c0.06-0.526,0.121-1.052,0.181-1.578
							C720.647,326.432,720.516,326.325,720.402,326.325z"/>
						<path style="fill:#EAAB4E;" d="M723.166,326.325c-0.218-0.115-0.505-0.059-0.63,0.165c-0.346,0.617-0.693,1.234-1.039,1.85
							c-0.118,0.21-0.057,0.513,0.165,0.631c0.218,0.115,0.505,0.059,0.631-0.165c0.346-0.617,0.693-1.234,1.039-1.85
							C723.449,326.745,723.388,326.442,723.166,326.325z"/>
						<path style="fill:#EAAB4E;" d="M724.286,328.417c-0.113-0.06-0.247-0.026-0.315,0.083c-0.203,0.323-0.407,0.646-0.61,0.969
							c-0.064,0.102-0.025,0.258,0.083,0.315c0.114,0.06,0.247,0.026,0.315-0.083c0.203-0.323,0.407-0.646,0.61-0.969
							C724.433,328.63,724.393,328.474,724.286,328.417z"/>
					</g>
				</g>
				<g>
					<g>
						<path style="fill:#EAAB4E;" d="M15.594,304.441c-0.142-0.344-0.284-0.688-0.426-1.031c-0.024-0.058-0.05-0.105-0.106-0.138
							c-0.049-0.029-0.122-0.041-0.177-0.023c-0.107,0.034-0.21,0.164-0.161,0.283c0.142,0.344,0.284,0.688,0.426,1.031
							c0.024,0.058,0.049,0.105,0.106,0.138c0.049,0.029,0.122,0.041,0.178,0.023C15.54,304.69,15.643,304.56,15.594,304.441z"/>
						<path style="fill:#EAAB4E;" d="M16.913,300.615c-0.085-0.225-0.314-0.404-0.567-0.322c-0.219,0.071-0.414,0.326-0.322,0.567
							c0.357,0.937,0.53,1.867,0.53,2.851c0,0.241,0.212,0.472,0.461,0.461c0.25-0.011,0.461-0.203,0.461-0.461
							C17.476,302.656,17.288,301.601,16.913,300.615z"/>
						<path style="fill:#EAAB4E;" d="M19.067,301.234c-0.136,0-0.216,0.106-0.23,0.23c-0.06,0.526-0.121,1.052-0.181,1.578
							c-0.014,0.124,0.116,0.23,0.23,0.23c0.136,0,0.216-0.106,0.23-0.23c0.06-0.526,0.121-1.052,0.181-1.578
							C19.311,301.341,19.181,301.234,19.067,301.234z"/>
						<path style="fill:#EAAB4E;" d="M21.83,301.233c-0.218-0.115-0.505-0.059-0.631,0.165c-0.346,0.617-0.693,1.234-1.039,1.85
							c-0.118,0.21-0.057,0.513,0.165,0.63c0.218,0.115,0.504,0.059,0.631-0.165c0.346-0.617,0.693-1.234,1.039-1.85
							C22.114,301.654,22.053,301.351,21.83,301.233z"/>
						<path style="fill:#EAAB4E;" d="M22.95,303.326c-0.113-0.06-0.247-0.026-0.315,0.083c-0.203,0.323-0.407,0.646-0.61,0.969
							c-0.064,0.102-0.025,0.259,0.083,0.315c0.113,0.06,0.247,0.026,0.315-0.083c0.203-0.323,0.407-0.646,0.61-0.969
							C23.097,303.539,23.058,303.383,22.95,303.326z"/>
					</g>
				</g>
			</g>
			<path style="fill:#99CECD;" d="M-33.271,319.551c268.95-0.26,466.813,0.631,810.288,24.56
				c-0.898,15.718-6.425,60.643-7.323,76.361V521.74c-6.287-0.449-19.295-1.572-25.598-1.572H-33.416
				c-1.33-6.291-5.265-13.918-6.595-20.209L-33.271,319.551z"/>
			<path style="fill:#C5EAE8;" d="M-32.17,337.916c270.412-13.629,470.28-4.248,810.288,24.56
				c-0.898,15.718-6.425,60.643-7.323,76.361v101.269c-6.287-0.449-19.295-1.571-25.598-1.571H-32.315
				c-1.33-6.291-5.265-13.918-6.595-20.209L-32.17,337.916z"/>
		</g>
		<g style="clip-path:url(#SVGID_00000105413095364743681770000017160319116904746920_);">
			<g>
				<g>
					<g>
						<path style="fill:#62511B;" d="M281.322,325.221c3.323,0.005,6.637-1.215,9.169-3.377c2.532-2.162,4.261-5.247,4.784-8.536
							c-1.408,1.135-3.263,1.529-4.927,2.158c-1.644,0.622-3.511,1.36-4.857,2.524C283.395,319.802,282.401,322.741,281.322,325.221
							z"/>
						<path style="fill:none;stroke:#483504;stroke-linecap:round;stroke-linejoin:round;stroke-miterlimit:10;" d="
							M292.975,316.332c-3.433,3.472-7.363,6.565-11.654,8.889"/>
					</g>
					<path style="fill:none;stroke:#483504;stroke-linecap:round;stroke-linejoin:round;stroke-miterlimit:10;" d="M293.818,304.174
						c-7.653,9.186-13.143,20.14-16.048,31.735"/>
					<g>
						<path style="fill:#62511B;" d="M282.777,321.696c-2.339-2.361-3.798-5.577-4.039-8.897c-0.241-3.32,0.739-6.719,2.712-9.402
							c0.182,1.799,1.205,3.395,1.926,5.022c0.713,1.607,1.499,3.454,1.617,5.23C285.176,316.413,283.783,319.186,282.777,321.696z"
							/>
						<path style="fill:none;stroke:#483504;stroke-linecap:round;stroke-linejoin:round;stroke-miterlimit:10;" d="
							M280.913,307.158c-0.059,4.882,0.502,9.852,1.863,14.538"/>
					</g>
				</g>
				<g>
					<path style="fill:#CE4F3A;" d="M288.408,301.373c-0.775-3.048-0.751-6.411,0.068-9.716c0.246-0.991,0.632-2.075,1.512-2.699
						c0.707-0.501,1.575-0.586,2.372-0.583c2.002,0.009,3.925,0.456,5.601,1.293c0.755,0.377,1.093,1.237,0.871,2.138
						c-0.603,2.45-1.64,4.84-3.204,6.999c1.668-1.768,3.237-3.63,4.601-5.611c0.686-0.995,1.991-1.348,2.848-0.766
						c2.007,1.364,3.444,3.449,4.052,5.871c0.207,0.826-0.206,1.784-1.017,2.318c-1.976,1.301-3.994,2.536-6.057,3.654
						c2.084-0.467,4.15-1.126,6.175-1.952c0.944-0.385,1.876,0.121,1.937,1.055c0.068,1.047,0.064,2.151,0.034,3.198
						c-0.049,1.677-0.777,3.654-2.389,4.5c-0.944,0.495-1.991,0.498-2.977,0.47c-3.372-0.096-6.791-0.417-9.58-1.907
						C290.464,308.148,289.201,304.494,288.408,301.373z"/>
					<path style="fill:#62511B;" d="M298.361,311.845c-2.903-0.053-5.674-1.587-7.539-3.812c-1.865-2.225-2.875-5.084-3.187-7.971
						c0.984,0.794,2.027,1.615,2.826,2.595c0.529-0.706,1.207-1.312,1.962-1.769c0.784,1.433,1.18,3.095,1.087,4.726
						c1.544,0.071,3.067,0.567,4.293,1.508c-0.286,0.884-0.805,1.657-1.544,2.221C297.172,309.966,297.875,310.854,298.361,311.845z
						"/>
				</g>
			</g>
			<g>
				<path style="fill:#ED7C00;" d="M301.301,359.377c-5.186-13.33-0.256-29.04,9.296-39.687
					c9.551-10.647,22.986-16.995,36.541-21.56c-4.971,7.098-3.506,16.506-4.345,25.131c-0.987,10.146-5.874,19.863-13.43,26.705
					C321.806,356.809,311.494,359.398,301.301,359.377z"/>
				<g>
					<path style="fill:none;stroke:#483504;stroke-linecap:round;stroke-linejoin:round;stroke-miterlimit:10;" d="M301.28,359.329
						c7.323-20.978,20.615-39.868,37.986-53.745"/>
					<path style="fill:none;stroke:#483504;stroke-linecap:round;stroke-linejoin:round;stroke-miterlimit:10;" d="M325.003,319.187
						c3.862-0.551,7.688-1.354,11.446-2.403"/>
					<path style="fill:none;stroke:#483504;stroke-linecap:round;stroke-linejoin:round;stroke-miterlimit:10;" d="M318.768,326.249
						c-0.28-3.051-0.4-6.116-0.359-9.18"/>
					<path style="fill:none;stroke:#483504;stroke-linecap:round;stroke-linejoin:round;stroke-miterlimit:10;" d="M313.938,333.854
						c5.171-0.604,10.283-1.703,15.245-3.277"/>
					<path style="fill:none;stroke:#483504;stroke-linecap:round;stroke-linejoin:round;stroke-miterlimit:10;" d="M308.154,343.357
						c-0.882-4.552-1.279-9.197-1.185-13.833"/>
					<path style="fill:none;stroke:#483504;stroke-linecap:round;stroke-linejoin:round;stroke-miterlimit:10;" d="M304.522,351.196
						c4.98,0.014,9.961-0.919,14.599-2.734"/>
				</g>
			</g>
			<g>
				<g>
					<g>
						<path style="fill:#62511B;" d="M227.529,346.519c-6.398,2.484-13.69,2.6-20.177,0.322
							c-6.487-2.279-12.115-6.934-15.572-12.881c3.557,1.138,7.423,0.515,11.097,0.489c3.63-0.026,7.777,0.006,11.236,1.246
							C219.501,337.625,223.604,342.546,227.529,346.519z"/>
						<path style="fill:none;stroke:#483504;stroke-linecap:round;stroke-linejoin:round;stroke-miterlimit:10;" d="
							M198.462,338.074c9.198,4.133,19.073,7.165,29.067,8.445"/>
					</g>
					<path style="fill:none;stroke:#483504;stroke-linecap:round;stroke-linejoin:round;stroke-miterlimit:10;" d="M187.786,315.279
						c21.583,11.997,40.313,29.01,54.543,49.184"/>
					<g>
						<path style="fill:#62511B;" d="M222.101,340.812c2.747-6.289,3.165-13.571,1.156-20.146
							c-2.008-6.576-6.427-12.392-12.225-16.092c0.99,3.601,0.208,7.438,0.029,11.108c-0.177,3.626-0.316,7.77,0.779,11.278
							C213.547,332.422,218.294,336.726,222.101,340.812z"/>
						<path style="fill:none;stroke:#483504;stroke-linecap:round;stroke-linejoin:round;stroke-miterlimit:10;" d="M214.867,311.42
							c3.748,9.361,6.369,19.353,7.235,29.392"/>
					</g>
				</g>
				<g>
					<path style="fill:#FFFFFF;" d="M178.865,327.716c-1.793,2.322-2.99,2.406-3.976,1.801c-0.986-0.605-1.453-1.711-0.196-4.361
						c-2.479,1.568-3.633,1.238-4.353,0.333c-0.72-0.906-0.778-2.106,1.311-4.167c-2.866,0.626-3.841-0.077-4.207-1.174
						c-0.367-1.097-0.013-2.245,2.655-3.467c-2.906-0.392-3.581-1.386-3.55-2.542c0.031-1.156,0.756-2.114,3.679-2.35
						c-2.598-1.362-2.889-2.527-2.465-3.603c0.424-1.076,1.433-1.728,4.261-0.95c-1.975-2.168-1.851-3.363-1.084-4.229
						c0.767-0.866,1.939-1.132,4.33,0.566c-1.115-2.714-0.59-3.795,0.427-4.346c1.017-0.552,2.209-0.4,3.876,2.015
						c-0.119-2.931,0.743-3.769,1.887-3.939c1.144-0.17,2.213,0.377,2.953,3.215c0.891-2.795,1.987-3.284,3.12-3.053
						c1.133,0.231,1.951,1.111,1.675,4.031c1.793-2.321,2.99-2.406,3.977-1.801c0.986,0.605,1.453,1.711,0.196,4.361
						c2.479-1.568,3.633-1.238,4.353-0.333c0.72,0.906,0.778,2.106-1.311,4.167c2.866-0.626,3.841,0.077,4.207,1.174
						c0.367,1.097,0.013,2.245-2.655,3.467c2.906,0.392,3.581,1.386,3.55,2.542c-0.031,1.156-0.756,2.114-3.679,2.35
						c2.598,1.362,2.889,2.527,2.465,3.603c-0.424,1.076-1.433,1.728-4.261,0.95c1.975,2.168,1.851,3.363,1.084,4.229
						c-0.767,0.866-1.939,1.132-4.33-0.566c1.115,2.714,0.59,3.795-0.427,4.346c-1.017,0.552-2.209,0.4-3.876-2.015
						c0.119,2.931-0.743,3.769-1.887,3.939c-1.144,0.17-2.213-0.377-2.953-3.215c-0.891,2.795-1.987,3.284-3.12,3.053
						C179.407,331.516,178.589,330.636,178.865,327.716z"/>
					
						<ellipse transform="matrix(0.9925 -0.1225 0.1225 0.9925 -37.1632 24.9217)" style="fill:#ED7C00;" cx="184.037" cy="314.605" rx="6.256" ry="6.256"/>
				</g>
			</g>
			<g>
				<path style="fill:#A59753;" d="M307.092,357.965c1.6-3.191,3.213-6.416,4.047-9.887c0.834-3.471,0.829-7.26-0.728-10.472
					c-1.558-3.212-4.875-5.692-8.444-5.598c-3.362,0.089-6.51,2.253-8.504,4.961c-0.203-3.345-2.7-6.427-5.93-7.321
					c-3.23-0.893-7.074,0.156-8.967,2.921c-2.477-8.736-9.444-16.066-18.042-18.984c-8.598-2.918-18.588-1.34-25.87,4.084
					c-7.281,5.425-11.523,14.504-11.188,23.578c-2.279-0.907-5.075-0.315-6.791,1.437c-1.716,1.752-2.637,4.532-1.683,6.792
					c-3.812-3.306-10.01-3.421-13.942-0.26c-3.932,3.161-5.151,9.24-2.741,13.673C234.233,359.781,271.041,357.262,307.092,357.965z
					"/>
				<g>
					<path style="fill:none;stroke:#483504;stroke-linecap:round;stroke-linejoin:round;stroke-miterlimit:10;" d="M248.341,318.881
						c3.014,13.159,4.907,26.572,5.672,40.045"/>
					<path style="fill:none;stroke:#483504;stroke-linecap:round;stroke-linejoin:round;stroke-miterlimit:10;" d="M219.939,345.049
						c6.753,4.151,13.006,9.124,18.585,14.761"/>
					<path style="fill:none;stroke:#483504;stroke-linecap:round;stroke-linejoin:round;stroke-miterlimit:10;" d="M205.115,350.714
						c7.449,2.781,14.689,6.093,21.668,9.893"/>
					<path style="fill:none;stroke:#483504;stroke-linecap:round;stroke-linejoin:round;stroke-miterlimit:10;" d="M285.491,334.022
						c-2.526,8.003-5.06,16.012-7.587,24.021"/>
					<path style="fill:none;stroke:#483504;stroke-linecap:round;stroke-linejoin:round;stroke-miterlimit:10;" d="M288.812,357.867
						c4.394-7.222,9.264-14.149,14.574-20.724"/>
				</g>
			</g>
		</g>
		<g style="clip-path:url(#SVGID_00000105413095364743681770000017160319116904746920_);">
			<path style="fill:#EAAB4E;" d="M760.591,403.41v113.88h-302.16l-248.29-0.01h-240.25c0-0.99-2.62-4.96-2.62-5.96l9.59-105.52
				c151.66-46.46,311.54-65.42,469.91-56.85c28.09,1.52,56.13,3.91,84.06,7.17C608.602,365.16,685.581,380.93,760.591,403.41z"/>
			<path style="fill:#FCD597;" d="M458.432,517.29c-0.13,4.43-0.11,8.87,0.04,13.32c-87.33,1.64-167.01-6.11-254.34-4.48
				c1.96-2.98,3.97-5.93,6.01-8.85c56.46-80.97,141.68-141.44,236.63-168.33c28.09,1.52,56.13,3.91,84.06,7.17
				C487.272,398.34,460.122,456.83,458.432,517.29z"/>
			<g>
				<g>
					<path style="fill:#ED7C00;" d="M317.79,363.321c-0.268-0.65-0.537-1.3-0.805-1.951c-0.045-0.11-0.094-0.198-0.2-0.26
						c-0.093-0.055-0.231-0.078-0.336-0.044c-0.202,0.065-0.398,0.31-0.305,0.536c0.268,0.65,0.537,1.3,0.805,1.951
						c0.045,0.11,0.094,0.198,0.2,0.26c0.093,0.055,0.231,0.078,0.336,0.044C317.688,363.792,317.884,363.546,317.79,363.321z"/>
					<path style="fill:#ED7C00;" d="M320.286,356.085c-0.162-0.425-0.595-0.763-1.072-0.609c-0.414,0.134-0.782,0.616-0.609,1.072
						c0.674,1.772,1.002,3.532,1.002,5.393c0,0.456,0.401,0.893,0.872,0.872c0.473-0.021,0.872-0.383,0.872-0.872
						C321.351,359.946,320.995,357.949,320.286,356.085z"/>
					<path style="fill:#ED7C00;" d="M324.359,357.255c-0.258,0-0.409,0.201-0.436,0.436c-0.114,0.995-0.229,1.99-0.343,2.984
						c-0.027,0.234,0.22,0.436,0.436,0.436c0.258,0,0.409-0.201,0.436-0.436c0.114-0.995,0.229-1.99,0.343-2.984
						C324.821,357.457,324.575,357.255,324.359,357.255z"/>
					<path style="fill:#ED7C00;" d="M329.586,357.254c-0.412-0.218-0.954-0.112-1.193,0.313c-0.655,1.167-1.31,2.333-1.965,3.5
						c-0.223,0.398-0.108,0.97,0.313,1.193c0.412,0.218,0.954,0.112,1.193-0.313c0.655-1.167,1.31-2.333,1.965-3.5
						C330.122,358.049,330.007,357.477,329.586,357.254z"/>
					<path style="fill:#ED7C00;" d="M331.705,361.212c-0.215-0.113-0.466-0.05-0.596,0.156c-0.384,0.611-0.769,1.222-1.154,1.833
						c-0.122,0.193-0.047,0.489,0.156,0.596c0.215,0.113,0.466,0.05,0.596-0.156c0.385-0.611,0.769-1.222,1.154-1.833
						C331.983,361.615,331.908,361.319,331.705,361.212z"/>
				</g>
				<g>
					<path style="fill:#ED7C00;" d="M523.698,390.085c-0.268-0.65-0.537-1.3-0.805-1.951c-0.045-0.11-0.094-0.198-0.2-0.26
						c-0.093-0.055-0.231-0.078-0.336-0.044c-0.202,0.065-0.398,0.31-0.305,0.536c0.268,0.65,0.537,1.3,0.805,1.951
						c0.045,0.11,0.094,0.198,0.2,0.26c0.093,0.055,0.231,0.078,0.336,0.044C523.595,390.556,523.791,390.311,523.698,390.085z"/>
					<path style="fill:#ED7C00;" d="M526.193,382.849c-0.162-0.425-0.595-0.763-1.073-0.609c-0.414,0.134-0.782,0.616-0.609,1.072
						c0.674,1.772,1.002,3.532,1.002,5.393c0,0.456,0.401,0.893,0.872,0.872c0.472-0.021,0.872-0.383,0.872-0.872
						C527.258,386.711,526.902,384.714,526.193,382.849z"/>
					<path style="fill:#ED7C00;" d="M530.266,384.02c-0.258,0-0.409,0.201-0.436,0.436c-0.114,0.995-0.229,1.99-0.343,2.985
						c-0.027,0.234,0.22,0.436,0.436,0.436c0.258,0,0.409-0.201,0.436-0.436c0.114-0.995,0.229-1.99,0.343-2.985
						C530.729,384.221,530.482,384.02,530.266,384.02z"/>
					<path style="fill:#ED7C00;" d="M535.493,384.019c-0.412-0.217-0.954-0.112-1.193,0.313c-0.655,1.167-1.31,2.333-1.965,3.5
						c-0.223,0.398-0.108,0.97,0.313,1.193c0.412,0.218,0.954,0.112,1.193-0.313c0.655-1.167,1.31-2.333,1.965-3.5
						C536.029,384.814,535.915,384.241,535.493,384.019z"/>
					<path style="fill:#ED7C00;" d="M537.612,387.976c-0.215-0.113-0.467-0.05-0.596,0.156c-0.385,0.611-0.769,1.222-1.154,1.833
						c-0.122,0.193-0.047,0.489,0.156,0.596c0.215,0.113,0.466,0.05,0.596-0.156c0.385-0.611,0.769-1.222,1.154-1.833
						C537.89,388.379,537.815,388.084,537.612,387.976z"/>
				</g>
				<g>
					<path style="fill:#ED7C00;" d="M77.939,408.484c-0.235-0.569-0.47-1.139-0.705-1.708c-0.04-0.096-0.082-0.173-0.175-0.228
						c-0.082-0.048-0.202-0.068-0.294-0.039c-0.177,0.057-0.348,0.272-0.267,0.47c0.235,0.569,0.47,1.139,0.705,1.708
						c0.04,0.096,0.082,0.174,0.175,0.228c0.082,0.048,0.202,0.068,0.294,0.038C77.85,408.896,78.021,408.681,77.939,408.484z"/>
					<path style="fill:#ED7C00;" d="M80.124,402.148c-0.141-0.372-0.521-0.668-0.939-0.533c-0.363,0.117-0.685,0.539-0.533,0.939
						c0.59,1.552,0.878,3.092,0.877,4.722c0,0.399,0.351,0.782,0.763,0.763c0.414-0.019,0.763-0.335,0.763-0.763
						C81.057,405.529,80.745,403.781,80.124,402.148z"/>
					<path style="fill:#ED7C00;" d="M83.691,403.173c-0.226,0-0.358,0.176-0.382,0.382c-0.1,0.871-0.2,1.742-0.3,2.613
						c-0.024,0.205,0.192,0.382,0.382,0.382c0.226,0,0.358-0.176,0.382-0.382c0.1-0.871,0.2-1.742,0.3-2.613
						C84.096,403.349,83.88,403.173,83.691,403.173z"/>
					<path style="fill:#ED7C00;" d="M88.268,403.172c-0.361-0.19-0.836-0.098-1.044,0.274c-0.574,1.022-1.147,2.043-1.721,3.065
						c-0.195,0.348-0.095,0.85,0.274,1.044c0.361,0.191,0.835,0.098,1.044-0.274c0.574-1.022,1.147-2.043,1.721-3.065
						C88.737,403.868,88.637,403.367,88.268,403.172z"/>
					<path style="fill:#ED7C00;" d="M90.123,406.637c-0.188-0.099-0.409-0.044-0.522,0.137c-0.337,0.535-0.674,1.07-1.01,1.605
						c-0.107,0.169-0.041,0.428,0.137,0.522c0.188,0.099,0.408,0.044,0.522-0.137c0.337-0.535,0.674-1.07,1.01-1.605
						C90.366,406.99,90.301,406.732,90.123,406.637z"/>
				</g>
				<g>
					<path style="fill:#ED7C00;" d="M384.878,358.063c-0.198-0.48-0.396-0.96-0.594-1.44c-0.033-0.081-0.069-0.146-0.148-0.192
						c-0.069-0.04-0.171-0.057-0.248-0.032c-0.149,0.048-0.293,0.229-0.225,0.396c0.198,0.48,0.396,0.96,0.594,1.44
						c0.033,0.081,0.069,0.146,0.148,0.192c0.069,0.04,0.171,0.057,0.248,0.032C384.802,358.41,384.947,358.229,384.878,358.063z"/>
					<path style="fill:#ED7C00;" d="M386.72,352.723c-0.119-0.314-0.439-0.563-0.791-0.449c-0.306,0.099-0.577,0.455-0.449,0.791
						c0.498,1.308,0.74,2.606,0.739,3.98c0,0.336,0.296,0.659,0.643,0.643c0.349-0.016,0.643-0.283,0.643-0.643
						C387.505,355.572,387.243,354.099,386.72,352.723z"/>
					<path style="fill:#ED7C00;" d="M389.725,353.587c-0.19,0-0.302,0.148-0.322,0.322c-0.084,0.734-0.169,1.468-0.253,2.202
						c-0.02,0.173,0.162,0.322,0.322,0.322c0.19,0,0.302-0.148,0.322-0.322c0.084-0.734,0.169-1.468,0.253-2.202
						C390.066,353.736,389.885,353.587,389.725,353.587z"/>
					<path style="fill:#ED7C00;" d="M393.583,353.586c-0.304-0.161-0.704-0.083-0.88,0.231c-0.483,0.861-0.967,1.722-1.45,2.583
						c-0.165,0.293-0.08,0.716,0.231,0.88c0.304,0.161,0.704,0.083,0.88-0.231c0.483-0.861,0.967-1.722,1.45-2.583
						C393.978,354.172,393.893,353.75,393.583,353.586z"/>
					<path style="fill:#ED7C00;" d="M395.146,356.506c-0.158-0.084-0.344-0.037-0.44,0.115c-0.284,0.451-0.568,0.902-0.851,1.353
						c-0.09,0.143-0.035,0.361,0.115,0.44c0.158,0.084,0.344,0.037,0.44-0.115c0.284-0.451,0.568-0.902,0.851-1.353
						C395.351,356.804,395.296,356.586,395.146,356.506z"/>
				</g>
				<g>
					<path style="fill:#ED7C00;" d="M609.547,379.302c-0.198-0.48-0.396-0.96-0.594-1.44c-0.033-0.081-0.069-0.146-0.148-0.192
						c-0.069-0.04-0.171-0.057-0.248-0.032c-0.149,0.048-0.293,0.229-0.225,0.396c0.198,0.48,0.396,0.96,0.594,1.439
						c0.033,0.081,0.069,0.146,0.148,0.192c0.069,0.04,0.171,0.057,0.248,0.032C609.472,379.649,609.616,379.468,609.547,379.302z"
						/>
					<path style="fill:#ED7C00;" d="M611.389,373.962c-0.119-0.314-0.439-0.563-0.791-0.449c-0.306,0.099-0.577,0.455-0.449,0.791
						c0.498,1.308,0.74,2.606,0.739,3.979c0,0.336,0.296,0.659,0.643,0.643c0.349-0.016,0.643-0.283,0.643-0.643
						C612.175,376.811,611.913,375.338,611.389,373.962z"/>
					<path style="fill:#ED7C00;" d="M614.395,374.826c-0.19,0-0.302,0.148-0.322,0.322c-0.084,0.734-0.169,1.468-0.253,2.202
						c-0.02,0.173,0.162,0.322,0.322,0.322c0.19,0,0.302-0.148,0.322-0.322c0.084-0.734,0.169-1.468,0.253-2.202
						C614.736,374.974,614.554,374.826,614.395,374.826z"/>
					<path style="fill:#ED7C00;" d="M618.252,374.825c-0.304-0.161-0.704-0.083-0.88,0.231c-0.483,0.861-0.967,1.722-1.45,2.583
						c-0.165,0.293-0.08,0.716,0.231,0.88c0.304,0.161,0.704,0.083,0.88-0.231c0.483-0.861,0.967-1.722,1.45-2.583
						C618.648,375.411,618.563,374.989,618.252,374.825z"/>
					<path style="fill:#ED7C00;" d="M619.815,377.745c-0.158-0.084-0.344-0.037-0.44,0.115c-0.284,0.451-0.568,0.902-0.851,1.353
						c-0.09,0.143-0.035,0.361,0.115,0.44c0.158,0.084,0.344,0.037,0.44-0.115c0.284-0.451,0.568-0.902,0.852-1.352
						C620.021,378.043,619.966,377.825,619.815,377.745z"/>
				</g>
				<g>
					<path style="fill:#ED7C00;" d="M251.577,414.173c-0.429-1.039-0.857-2.077-1.286-3.116c-0.072-0.175-0.15-0.316-0.32-0.416
						c-0.149-0.087-0.369-0.124-0.536-0.07c-0.323,0.104-0.635,0.496-0.486,0.856c0.429,1.039,0.857,2.077,1.286,3.116
						c0.072,0.175,0.15,0.317,0.32,0.416c0.149,0.087,0.369,0.124,0.536,0.07C251.414,414.925,251.726,414.533,251.577,414.173z"/>
					<path style="fill:#ED7C00;" d="M255.563,402.615c-0.258-0.679-0.95-1.219-1.713-0.973c-0.662,0.214-1.25,0.984-0.972,1.713
						c1.077,2.831,1.601,5.641,1.6,8.614c0,0.728,0.641,1.426,1.392,1.392c0.755-0.034,1.392-0.612,1.392-1.392
						C257.264,408.783,256.696,405.593,255.563,402.615z"/>
					<path style="fill:#ED7C00;" d="M262.068,404.485c-0.412,0-0.653,0.321-0.696,0.696c-0.183,1.589-0.365,3.178-0.548,4.767
						c-0.043,0.374,0.351,0.696,0.696,0.696c0.412,0,0.653-0.321,0.696-0.696c0.182-1.589,0.365-3.178,0.548-4.767
						C262.807,404.807,262.414,404.485,262.068,404.485z"/>
					<path style="fill:#ED7C00;" d="M270.418,404.483c-0.658-0.348-1.524-0.179-1.905,0.499c-1.046,1.864-2.093,3.727-3.139,5.591
						c-0.357,0.635-0.173,1.55,0.5,1.905c0.658,0.348,1.524,0.179,1.905-0.499c1.046-1.864,2.093-3.727,3.139-5.591
						C271.275,405.753,271.091,404.838,270.418,404.483z"/>
					<path style="fill:#ED7C00;" d="M273.802,410.804c-0.343-0.181-0.745-0.08-0.952,0.25c-0.614,0.976-1.229,1.952-1.843,2.927
						c-0.194,0.309-0.075,0.781,0.25,0.953c0.343,0.181,0.745,0.08,0.953-0.25c0.614-0.976,1.229-1.952,1.843-2.927
						C274.246,411.448,274.127,410.976,273.802,410.804z"/>
				</g>
			</g>
			<g>
				<path style="fill:#513543;" d="M216.929,389.032c-14.103,6.687-30.562,9.719-46.726,4.584
					c2.104-10.174,9.792-19.863,20.028-21.642c10.236-1.78,21.319,3.24,26.734,12.107c2.248-3.925,7.249-6.5,11.704-5.719
					c4.455,0.781,8.226,4.552,9.007,9.008C232.136,390.62,223.07,390.916,216.929,389.032z"/>
				<g>
					<path style="fill:#33222B;" d="M181.636,387.712c-0.049-0.178-0.187-0.372-0.353-0.46c-0.38-0.201-0.821-0.087-1.052,0.276
						c-0.32,0.504-0.641,1.007-0.962,1.511c-0.105,0.165-0.128,0.407-0.078,0.593c0.049,0.178,0.187,0.372,0.353,0.46
						c0.38,0.201,0.821,0.087,1.052-0.276c0.32-0.504,0.641-1.007,0.962-1.511C181.663,388.14,181.687,387.897,181.636,387.712z"/>
					<path style="fill:#33222B;" d="M185.798,383.831c-0.025-0.089-0.093-0.186-0.177-0.23c-0.089-0.047-0.197-0.071-0.296-0.039
						c-0.096,0.031-0.177,0.089-0.23,0.177c-0.137,0.229-0.275,0.458-0.412,0.687c-0.051,0.085-0.065,0.201-0.039,0.296
						c0.025,0.089,0.094,0.186,0.177,0.23c0.089,0.047,0.197,0.071,0.296,0.039c0.096-0.031,0.177-0.089,0.23-0.177
						c0.137-0.229,0.275-0.458,0.412-0.687C185.81,384.042,185.824,383.926,185.798,383.831z"/>
					<path style="fill:#33222B;" d="M183.91,378.17c-0.146-0.135-0.339-0.234-0.544-0.225c-0.196,0.009-0.41,0.072-0.544,0.225
						c-0.32,0.366-0.641,0.733-0.962,1.099c-0.075,0.07-0.128,0.152-0.159,0.247c-0.048,0.092-0.07,0.19-0.066,0.296
						c0,0.189,0.084,0.414,0.225,0.544c0.146,0.135,0.339,0.234,0.544,0.225c0.196-0.009,0.41-0.072,0.544-0.225
						c0.32-0.366,0.641-0.733,0.961-1.099c0.075-0.07,0.128-0.152,0.159-0.247c0.048-0.092,0.07-0.19,0.066-0.296
						C184.136,378.525,184.052,378.3,183.91,378.17z"/>
					<path style="fill:#33222B;" d="M222.077,383.98c-0.012-0.05-0.035-0.094-0.069-0.131c-0.027-0.042-0.063-0.075-0.108-0.099
						c-0.089-0.047-0.197-0.071-0.296-0.039c-0.031,0.013-0.061,0.026-0.092,0.039c-0.058,0.034-0.104,0.08-0.138,0.138
						c-0.094,0.136-0.187,0.272-0.281,0.408c-0.028,0.044-0.043,0.092-0.046,0.143c-0.012,0.051-0.009,0.102,0.007,0.153
						c0.012,0.05,0.035,0.094,0.069,0.131c0.027,0.042,0.063,0.075,0.108,0.099c0.089,0.047,0.197,0.071,0.296,0.039
						c0.031-0.013,0.061-0.026,0.092-0.039c0.058-0.034,0.104-0.08,0.138-0.138c0.094-0.136,0.187-0.272,0.281-0.408
						c0.028-0.044,0.043-0.092,0.046-0.143C222.095,384.083,222.093,384.031,222.077,383.98z"/>
					<path style="fill:#33222B;" d="M225.139,380.615c-0.031-0.095-0.084-0.178-0.159-0.247c-0.052-0.04-0.104-0.08-0.156-0.12
						c-0.12-0.069-0.249-0.105-0.388-0.105c-0.068,0.009-0.136,0.018-0.204,0.028c-0.13,0.036-0.243,0.102-0.339,0.198
						c-0.183,0.229-0.366,0.458-0.549,0.687c-0.075,0.07-0.128,0.152-0.159,0.247c-0.048,0.092-0.07,0.19-0.066,0.296
						c-0.004,0.106,0.018,0.205,0.066,0.296c0.031,0.095,0.084,0.178,0.159,0.247c0.052,0.04,0.104,0.08,0.156,0.12
						c0.12,0.07,0.249,0.104,0.388,0.105l0.204-0.027c0.13-0.036,0.243-0.102,0.339-0.198c0.183-0.229,0.366-0.458,0.549-0.687
						c0.075-0.07,0.128-0.152,0.159-0.247c0.048-0.092,0.07-0.19,0.066-0.296C225.209,380.806,225.187,380.707,225.139,380.615z"/>
					<path style="fill:#33222B;" d="M225.494,383.969c-0.024-0.089-0.093-0.186-0.177-0.23c-0.089-0.047-0.197-0.071-0.296-0.039
						c-0.096,0.031-0.177,0.089-0.23,0.177c-0.137,0.229-0.275,0.458-0.412,0.687c-0.051,0.085-0.065,0.201-0.039,0.296
						c0.025,0.089,0.093,0.186,0.177,0.23c0.089,0.047,0.197,0.071,0.296,0.039c0.096-0.031,0.177-0.089,0.23-0.177
						c0.137-0.229,0.275-0.458,0.412-0.687C225.506,384.18,225.52,384.064,225.494,383.969z"/>
					<path style="fill:#33222B;" d="M183.6,390.15c-0.025-0.089-0.094-0.186-0.177-0.23c-0.183-0.097-0.419-0.049-0.526,0.138
						c-0.183,0.321-0.366,0.641-0.549,0.962c-0.05,0.087-0.066,0.199-0.039,0.296c0.024,0.089,0.093,0.186,0.177,0.23
						c0.183,0.097,0.419,0.049,0.526-0.138c0.183-0.321,0.366-0.641,0.549-0.962C183.611,390.359,183.627,390.247,183.6,390.15z"/>
					<path style="fill:#33222B;" d="M175.236,389.273c-0.14-0.129-0.409-0.167-0.544,0c-0.369,0.456-0.738,0.912-1.107,1.367
						c-0.066,0.082-0.113,0.162-0.113,0.272c0,0.094,0.042,0.207,0.113,0.272c0.14,0.129,0.409,0.167,0.544,0
						c0.369-0.456,0.738-0.912,1.106-1.367c0.066-0.082,0.113-0.162,0.113-0.272C175.348,389.451,175.306,389.338,175.236,389.273z"
						/>
					<path style="fill:#33222B;" d="M189.545,375.42c-0.165-0.151-0.378-0.138-0.544,0c-0.549,0.458-1.099,0.916-1.648,1.374
						c-0.155,0.129-0.144,0.412,0,0.544c0.165,0.151,0.378,0.138,0.544,0c0.549-0.458,1.099-0.916,1.648-1.374
						C189.7,375.835,189.688,375.552,189.545,375.42z"/>
					<path style="fill:#33222B;" d="M223.079,386.151c-0.073-0.067-0.169-0.117-0.272-0.113c-0.097,0.004-0.206,0.036-0.272,0.113
						c-0.274,0.321-0.547,0.643-0.821,0.964c-0.067,0.079-0.113,0.165-0.113,0.272c0,0.094,0.042,0.207,0.113,0.272
						c0.073,0.067,0.169,0.117,0.272,0.113c0.097-0.004,0.206-0.036,0.272-0.113c0.274-0.322,0.547-0.643,0.821-0.964
						c0.067-0.079,0.113-0.165,0.113-0.272C223.192,386.328,223.15,386.216,223.079,386.151z"/>
				</g>
			</g>
			<g>
				<path style="fill:#513543;" d="M623.926,403.097c4.407-6.166,10.839-10.933,18.134-12.988
					c7.294-2.055,15.411-1.302,22.028,2.392c6.617,3.695,11.581,10.367,12.858,17.837
					C659.81,416.639,638.876,413.577,623.926,403.097z"/>
				<g>
					<path style="fill:#33222B;" d="M632.803,397.702c-0.145-0.225-0.444-0.324-0.684-0.179c-0.575,0.346-1.059,0.813-1.439,1.365
						c-0.07,0.102-0.082,0.269-0.05,0.385c0.032,0.116,0.122,0.242,0.23,0.299c0.116,0.061,0.257,0.092,0.385,0.05
						c0.129-0.042,0.222-0.118,0.299-0.23c0.024-0.035,0.05-0.068,0.075-0.103c0.199-0.253,0.428-0.48,0.68-0.68
						c0.106-0.078,0.213-0.155,0.326-0.223c0.109-0.065,0.196-0.176,0.23-0.299C632.886,397.968,632.872,397.808,632.803,397.702z"
						/>
					<path style="fill:#33222B;" d="M637.396,397.258c-0.069-0.107-0.171-0.201-0.299-0.23c-0.137-0.031-0.259-0.011-0.385,0.05
						c-0.607,0.297-1.113,0.75-1.513,1.29c-0.073,0.098-0.081,0.273-0.051,0.385c0.032,0.116,0.122,0.242,0.23,0.299
						c0.116,0.061,0.257,0.092,0.385,0.05c0.127-0.041,0.211-0.116,0.291-0.221c-0.006,0.007-0.012,0.015-0.018,0.023
						c0.177-0.227,0.384-0.428,0.609-0.608c0.181-0.134,0.369-0.256,0.571-0.355c0.108-0.053,0.199-0.186,0.23-0.299
						C637.479,397.523,637.464,397.364,637.396,397.258z"/>
					<path style="fill:#33222B;" d="M641.901,393.228c-0.138-0.214-0.343-0.401-0.598-0.46c-0.089-0.012-0.177-0.024-0.266-0.036
						c-0.181,0.001-0.349,0.046-0.505,0.137c-0.37,0.173-0.741,0.346-1.111,0.518c-0.116,0.063-0.21,0.149-0.28,0.258
						c-0.088,0.096-0.148,0.21-0.179,0.34c-0.042,0.133-0.048,0.266-0.018,0.399c0.006,0.133,0.046,0.257,0.119,0.372
						c0.138,0.213,0.343,0.401,0.598,0.46c0.089,0.012,0.177,0.024,0.266,0.036c0.18-0.001,0.349-0.046,0.505-0.136
						c0.37-0.173,0.741-0.346,1.111-0.519c0.117-0.063,0.21-0.149,0.281-0.258c0.088-0.097,0.148-0.21,0.179-0.34
						c0.042-0.133,0.048-0.266,0.018-0.399C642.014,393.466,641.975,393.342,641.901,393.228z"/>
					<path style="fill:#33222B;" d="M642.136,397.036c-0.069-0.107-0.171-0.201-0.299-0.23c-0.129-0.029-0.27-0.022-0.385,0.05
						c-0.198,0.123-0.395,0.247-0.593,0.37c-0.109,0.068-0.195,0.174-0.23,0.299c-0.021,0.066-0.024,0.133-0.009,0.199
						c0.003,0.066,0.023,0.128,0.059,0.186c0.069,0.107,0.171,0.201,0.299,0.23c0.129,0.029,0.27,0.022,0.385-0.05
						c0.198-0.123,0.395-0.247,0.592-0.37c0.109-0.068,0.195-0.174,0.23-0.299c0.021-0.066,0.024-0.133,0.009-0.199
						C642.193,397.155,642.173,397.093,642.136,397.036z"/>
					<path style="fill:#33222B;" d="M648.669,392.726c-0.078-0.242-0.228-0.475-0.459-0.598c-0.241-0.128-0.502-0.168-0.771-0.101
						c-0.395,0.099-0.79,0.198-1.185,0.296c-0.13,0.031-0.244,0.091-0.34,0.179c-0.109,0.071-0.195,0.164-0.258,0.281
						c-0.073,0.115-0.113,0.239-0.119,0.372c-0.03,0.133-0.024,0.266,0.018,0.399c0.078,0.242,0.228,0.475,0.46,0.598
						c0.241,0.128,0.502,0.168,0.771,0.101c0.395-0.099,0.79-0.198,1.185-0.296c0.13-0.031,0.244-0.091,0.34-0.179
						c0.109-0.07,0.195-0.164,0.258-0.28c0.073-0.115,0.113-0.239,0.119-0.372C648.717,392.992,648.711,392.859,648.669,392.726z"/>
					<path style="fill:#33222B;" d="M632.349,402.428c-0.069-0.107-0.171-0.201-0.299-0.23c-0.126-0.029-0.275-0.025-0.385,0.05
						c-0.322,0.221-0.643,0.443-0.965,0.664c-0.108,0.075-0.194,0.168-0.23,0.299c-0.033,0.12-0.018,0.279,0.051,0.385
						c0.069,0.107,0.171,0.201,0.299,0.23c0.126,0.029,0.275,0.025,0.385-0.05c0.321-0.221,0.643-0.443,0.965-0.664
						c0.108-0.075,0.194-0.168,0.23-0.299C632.432,402.694,632.417,402.535,632.349,402.428z"/>
				</g>
			</g>
		</g>
		<g style="clip-path:url(#SVGID_00000105413095364743681770000017160319116904746920_);">
			<g>
				<path style="fill:#62511B;" d="M718.914,248.279c19.902-15.624,27.557-45.042,17.795-68.386
					c-3.627-8.672-9.71-16.708-18.247-20.641c-8.537-3.933-20.137-3.081-26.477,3.859c0.896-14.116,1.755-28.581-2.285-42.136
					c-4.04-13.555-14.057-26.236-27.854-29.351c-15.998-3.612-33.039,7.305-39.302,22.463c-6.262,15.158-3.919,34.483,4.464,48.579
					c-18.349-5.186-39.699,3.698-48.953,20.37c-9.253,16.672-5.879,42.318,8.229,55.146c-9.332,5.171-18.172,11.623-24.482,20.226
					c-6.31,8.603-9.88,19.585-8.019,30.09c7.123,40.193,72.245,43.534,97.79,21.192c13.965,9.217,31.555,13.857,48.096,11.331
					c16.54-2.527,32.123-13.888,37.087-29.867C741.719,275.176,734.508,254.344,718.914,248.279z"/>
				<g>
					<path style="fill:#A59753;" d="M654.619,117.81c3.958,21.18,6.269,42.681,7.31,64.239c1.043,21.563,0.825,43.183-0.218,64.744
						c-2.092,43.14-7.452,85.996-12.831,128.624c-0.478,3.788-3.937,6.472-7.725,5.994c-3.788-0.478-6.472-3.937-5.994-7.725
						c0.012-0.095,0.03-0.215,0.046-0.308c7.288-42.328,14.504-84.557,18.495-127.152c1.992-21.287,3.169-42.655,3.097-64.043
						c-0.07-21.383-1.399-42.789-4.385-64.012c-0.086-0.611,0.34-1.176,0.951-1.262C653.958,116.825,654.509,117.227,654.619,117.81
						z"/>
					<path style="fill:#A59753;" d="M658.825,217.033c17.969-4.873,34.795-15.114,47.655-29.36c0.284-0.316,0.77-0.341,1.086-0.056
						c0.295,0.266,0.334,0.712,0.105,1.026c-11.524,15.719-27.792,28.256-46.522,35.457l-0.013,0.005
						c-1.92,0.738-4.075-0.22-4.813-2.14c-0.738-1.92,0.22-4.075,2.14-4.813C658.581,217.106,658.705,217.066,658.825,217.033z"/>
					<path style="fill:#A59753;" d="M657.201,242.331c-23.102-5.698-43.109-21.008-54.517-41.045
						c-0.296-0.519-0.114-1.179,0.405-1.475c0.494-0.281,1.119-0.126,1.433,0.337c12.544,18.613,32.756,31.443,54.172,35.002
						c2,0.332,3.351,2.223,3.019,4.223c-0.332,2-2.223,3.351-4.222,3.019c-0.091-0.015-0.181-0.034-0.269-0.055L657.201,242.331z"/>
					<path style="fill:#A59753;" d="M654.25,295.503c22.841,2.265,46.894-4.947,65.078-19.973c0.442-0.366,1.096-0.304,1.461,0.137
						c0.351,0.423,0.305,1.046-0.088,1.418c-17.599,16.55-42.104,25.919-66.885,25.089l-0.008,0
						c-1.846-0.062-3.293-1.608-3.231-3.455c0.062-1.846,1.609-3.293,3.455-3.231C654.102,295.491,654.181,295.496,654.25,295.503z"
						/>
					<path style="fill:#A59753;" d="M653.412,292.452c-25.378-2.964-49.668-12.64-69.833-27.574
						c-0.363-0.269-0.44-0.781-0.171-1.144c0.257-0.347,0.739-0.431,1.098-0.202c20.902,13.354,45.146,21.002,69.465,22.148
						c1.876,0.088,3.325,1.681,3.236,3.556c-0.088,1.876-1.681,3.325-3.556,3.236c-0.076-0.004-0.151-0.01-0.225-0.018
						L653.412,292.452z"/>
				</g>
				<g>
					<path style="fill:#483504;" d="M624.288,182.991c-0.063-0.264-0.184-0.493-0.363-0.689c-0.143-0.221-0.332-0.395-0.568-0.522
						c-0.161-0.068-0.323-0.136-0.484-0.204c-0.359-0.097-0.718-0.097-1.077,0c-0.161,0.068-0.323,0.136-0.484,0.204
						c-0.305,0.18-0.547,0.422-0.727,0.727c-0.153,0.307-0.306,0.613-0.46,0.919c-0.148,0.233-0.228,0.484-0.24,0.753
						c-0.06,0.269-0.048,0.539,0.036,0.808c0.063,0.264,0.184,0.493,0.363,0.689c0.143,0.221,0.332,0.395,0.568,0.522
						c0.161,0.068,0.323,0.136,0.484,0.204c0.359,0.096,0.718,0.096,1.077,0c0.161-0.068,0.323-0.136,0.484-0.204
						c0.305-0.18,0.547-0.422,0.727-0.727c0.153-0.307,0.306-0.613,0.46-0.92c0.148-0.232,0.228-0.484,0.24-0.753
						C624.384,183.53,624.372,183.261,624.288,182.991z"/>
					<path style="fill:#483504;" d="M635.26,198.647c-0.351-0.351-0.928-0.616-1.433-0.593c-0.524,0.023-1.068,0.196-1.433,0.593
						c-0.364,0.396-0.593,0.884-0.593,1.433v3.218c0,0.52,0.226,1.065,0.593,1.433c0.352,0.352,0.928,0.616,1.433,0.593
						c0.524-0.023,1.068-0.196,1.433-0.593c0.364-0.396,0.594-0.884,0.594-1.433v-3.218
						C635.853,199.561,635.627,199.015,635.26,198.647z"/>
					<path style="fill:#483504;" d="M603.079,245.999c-0.351-0.351-0.928-0.616-1.433-0.593c-0.524,0.023-1.068,0.196-1.433,0.593
						c-0.364,0.396-0.594,0.884-0.594,1.433v3.218c0,0.52,0.226,1.065,0.594,1.433c0.352,0.352,0.928,0.616,1.433,0.593
						c0.524-0.023,1.068-0.196,1.433-0.593c0.364-0.396,0.594-0.884,0.594-1.433v-3.218
						C603.673,246.912,603.447,246.366,603.079,245.999z"/>
					<path style="fill:#483504;" d="M633.84,253.087c-0.082-0.251-0.221-0.469-0.419-0.652c-0.184-0.198-0.401-0.337-0.652-0.419
						c-0.241-0.127-0.502-0.185-0.781-0.174c-0.18,0.024-0.359,0.048-0.539,0.072c-0.343,0.096-0.641,0.27-0.894,0.521
						c-0.106,0.137-0.211,0.273-0.317,0.41c-0.183,0.316-0.276,0.657-0.277,1.023v1.839c-0.01,0.279,0.048,0.539,0.174,0.781
						c0.082,0.251,0.221,0.469,0.419,0.652c0.183,0.198,0.401,0.337,0.652,0.419c0.241,0.127,0.502,0.185,0.781,0.174
						c0.18-0.024,0.359-0.048,0.539-0.072c0.343-0.096,0.641-0.27,0.894-0.521c0.106-0.137,0.211-0.273,0.317-0.41
						c0.183-0.316,0.276-0.657,0.277-1.023v-1.839C634.025,253.589,633.967,253.329,633.84,253.087z"/>
					<path style="fill:#483504;" d="M601.557,298.818c-0.246-0.42-0.728-0.821-1.211-0.931c-0.519-0.118-1.101-0.092-1.561,0.204
						c-0.421,0.271-0.838,0.699-0.931,1.211c-0.307,1.686-0.613,3.371-0.919,5.057c-0.099,0.546-0.085,1.067,0.204,1.561
						c0.246,0.42,0.728,0.821,1.211,0.931c0.519,0.118,1.101,0.093,1.561-0.204c0.421-0.272,0.838-0.699,0.931-1.211
						c0.306-1.686,0.613-3.371,0.919-5.057C601.861,299.833,601.846,299.312,601.557,298.818z"/>
					<path style="fill:#483504;" d="M614.235,261.882c-0.012-0.27-0.093-0.521-0.24-0.753c-0.127-0.236-0.301-0.426-0.522-0.569
						c-0.196-0.179-0.425-0.3-0.689-0.363c-0.18-0.024-0.359-0.048-0.539-0.072c-0.366,0.001-0.707,0.093-1.023,0.277
						c-0.137,0.106-0.273,0.211-0.41,0.317c-0.251,0.253-0.425,0.551-0.521,0.894c-0.154,0.46-0.308,0.919-0.462,1.379
						c-0.084,0.269-0.096,0.539-0.036,0.808c0.012,0.27,0.092,0.521,0.24,0.753c0.127,0.236,0.301,0.426,0.522,0.568
						c0.196,0.179,0.425,0.3,0.689,0.363c0.18,0.024,0.359,0.048,0.539,0.072c0.366-0.001,0.706-0.093,1.022-0.277
						c0.137-0.106,0.274-0.211,0.41-0.317c0.251-0.253,0.425-0.551,0.521-0.894c0.154-0.46,0.308-0.919,0.462-1.379
						C614.283,262.421,614.295,262.151,614.235,261.882z"/>
					<path style="fill:#483504;" d="M677.054,137.696c-0.082-0.251-0.221-0.469-0.419-0.652c-0.184-0.198-0.401-0.337-0.652-0.419
						c-0.241-0.127-0.502-0.185-0.781-0.174c-0.18,0.024-0.359,0.048-0.539,0.072c-0.343,0.096-0.641,0.27-0.894,0.521
						c-0.106,0.137-0.211,0.273-0.317,0.41c-0.183,0.316-0.275,0.657-0.276,1.023v0.919c-0.011,0.279,0.047,0.539,0.174,0.781
						c0.082,0.251,0.221,0.469,0.419,0.652c0.184,0.198,0.401,0.337,0.652,0.419c0.242,0.127,0.502,0.185,0.781,0.175
						c0.18-0.024,0.359-0.048,0.539-0.072c0.343-0.096,0.641-0.27,0.894-0.521c0.106-0.137,0.211-0.273,0.317-0.41
						c0.183-0.316,0.275-0.657,0.277-1.023v-0.919C677.239,138.198,677.181,137.938,677.054,137.696z"/>
					<path style="fill:#483504;" d="M672.457,149.189c-0.082-0.251-0.221-0.469-0.419-0.652c-0.184-0.197-0.401-0.337-0.652-0.419
						c-0.241-0.127-0.502-0.185-0.781-0.175c-0.18,0.024-0.359,0.048-0.539,0.072c-0.343,0.096-0.641,0.27-0.894,0.521
						c-0.106,0.137-0.211,0.273-0.317,0.41c-0.183,0.316-0.275,0.657-0.276,1.023v1.839c-0.011,0.279,0.048,0.539,0.174,0.781
						c0.082,0.251,0.221,0.469,0.419,0.652c0.184,0.198,0.401,0.337,0.652,0.419c0.241,0.127,0.502,0.185,0.781,0.174
						c0.18-0.024,0.359-0.048,0.539-0.072c0.343-0.096,0.641-0.27,0.894-0.521c0.106-0.137,0.211-0.273,0.317-0.41
						c0.183-0.316,0.275-0.657,0.277-1.023v-1.839C672.642,149.691,672.584,149.431,672.457,149.189z"/>
					<path style="fill:#483504;" d="M720.268,214.93c-0.082-0.251-0.221-0.469-0.419-0.652c-0.183-0.198-0.401-0.337-0.652-0.419
						c-0.242-0.127-0.502-0.185-0.781-0.174c-0.18,0.024-0.359,0.048-0.539,0.072c-0.343,0.096-0.641,0.27-0.894,0.521
						c-0.106,0.137-0.211,0.273-0.317,0.41c-0.183,0.316-0.276,0.657-0.277,1.023v1.379c-0.01,0.279,0.048,0.539,0.174,0.781
						c0.082,0.251,0.221,0.469,0.419,0.652c0.184,0.198,0.401,0.337,0.652,0.419c0.241,0.127,0.502,0.185,0.781,0.175
						c0.18-0.024,0.359-0.048,0.539-0.072c0.343-0.096,0.641-0.27,0.894-0.521c0.106-0.137,0.211-0.273,0.317-0.41
						c0.183-0.316,0.276-0.657,0.277-1.023v-1.379C720.453,215.432,720.395,215.171,720.268,214.93z"/>
					<path style="fill:#483504;" d="M709.234,226.69c-0.151-0.614-0.302-1.227-0.452-1.841c-0.063-0.264-0.184-0.493-0.363-0.689
						c-0.143-0.221-0.332-0.395-0.568-0.522c-0.233-0.148-0.484-0.228-0.753-0.24c-0.269-0.06-0.539-0.048-0.808,0.036
						c-0.161,0.068-0.323,0.136-0.484,0.204c-0.305,0.18-0.547,0.422-0.727,0.727c-0.068,0.161-0.136,0.323-0.204,0.484
						c-0.097,0.359-0.097,0.718,0,1.077c0.151,0.614,0.302,1.227,0.452,1.841c0.063,0.264,0.184,0.493,0.363,0.689
						c0.143,0.221,0.332,0.395,0.568,0.522c0.233,0.148,0.484,0.228,0.753,0.24c0.269,0.06,0.539,0.048,0.808-0.036
						c0.161-0.068,0.322-0.136,0.484-0.204c0.304-0.18,0.547-0.422,0.727-0.727c0.068-0.161,0.136-0.323,0.204-0.484
						C709.331,227.409,709.331,227.049,709.234,226.69z"/>
					<path style="fill:#483504;" d="M681.767,247.847c-0.352-0.351-0.928-0.616-1.433-0.593c-0.524,0.023-1.068,0.196-1.433,0.593
						c-0.106,0.137-0.211,0.273-0.317,0.41c-0.183,0.316-0.276,0.657-0.277,1.023c-0.145,1.227-0.29,2.454-0.436,3.681
						c-0.057,0.48,0.267,1.107,0.594,1.433c0.351,0.351,0.928,0.616,1.433,0.593c0.524-0.023,1.068-0.196,1.433-0.593
						c0.106-0.137,0.211-0.273,0.317-0.41c0.183-0.316,0.276-0.657,0.277-1.023c0.145-1.227,0.291-2.454,0.436-3.681
						C682.417,248.799,682.093,248.173,681.767,247.847z"/>
					<path style="fill:#483504;" d="M694.064,263.201c-0.082-0.251-0.221-0.469-0.419-0.652c-0.184-0.198-0.401-0.337-0.652-0.419
						c-0.241-0.127-0.502-0.185-0.781-0.174c-0.18,0.024-0.359,0.048-0.539,0.072c-0.343,0.096-0.641,0.27-0.894,0.521
						c-0.106,0.137-0.211,0.273-0.317,0.41c-0.183,0.316-0.276,0.657-0.277,1.023v1.839c-0.01,0.279,0.048,0.539,0.175,0.781
						c0.082,0.251,0.221,0.469,0.419,0.652c0.184,0.198,0.401,0.337,0.652,0.419c0.241,0.127,0.502,0.185,0.781,0.174
						c0.18-0.024,0.359-0.048,0.539-0.072c0.343-0.096,0.641-0.27,0.894-0.521c0.106-0.137,0.211-0.273,0.317-0.41
						c0.183-0.316,0.275-0.657,0.277-1.023v-1.839C694.249,263.703,694.191,263.443,694.064,263.201z"/>
					<path style="fill:#483504;" d="M711.574,300.246c-0.352-0.351-0.928-0.616-1.433-0.593c-0.524,0.023-1.068,0.196-1.433,0.593
						c-0.364,0.396-0.594,0.884-0.594,1.433v3.678c0,0.519,0.226,1.065,0.594,1.433c0.351,0.351,0.928,0.616,1.433,0.594
						c0.524-0.023,1.068-0.196,1.433-0.594c0.364-0.396,0.593-0.884,0.593-1.433v-3.678
						C712.168,301.16,711.942,300.614,711.574,300.246z"/>
				</g>
			</g>
			<g>
				<path style="fill:#ED7C00;" d="M716.673,392.159c1.908-2.172,3.834-4.369,5.199-6.917c1.365-2.549,2.139-5.519,1.577-8.355
					s-2.653-5.46-5.468-6.118c-2.653-0.62-5.563,0.43-7.681,2.143c0.527-2.663-0.797-5.59-3.144-6.953
					c-2.347-1.363-5.575-1.328-7.626,0.45c-0.149-7.353-4.104-14.526-10.243-18.576c-6.139-4.05-14.29-4.863-21.108-2.106
					c-6.818,2.757-12.004,9.001-13.603,16.18c-1.599-1.178-3.912-1.288-5.616-0.267c-1.704,1.021-2.995,3.01-2.712,4.976
					c-2.309-3.372-7.142-4.734-10.871-3.063c-3.73,1.671-5.931,6.184-4.952,10.151C659.211,378.637,688.569,384.213,716.673,392.159
					z"/>
				<g>
					<path style="fill:none;stroke:#483504;stroke-linecap:round;stroke-linejoin:round;stroke-miterlimit:10;" d="M678.655,349.483
						c-0.338,10.929-1.605,21.827-3.769,32.541"/>
					<path style="fill:none;stroke:#483504;stroke-linecap:round;stroke-linejoin:round;stroke-miterlimit:10;" d="M651.032,364.162
						c4.44,4.637,8.32,9.817,11.535,15.378"/>
					<path style="fill:none;stroke:#483504;stroke-linecap:round;stroke-linejoin:round;stroke-miterlimit:10;" d="M638.255,365.56
						c5.266,3.707,10.26,7.787,14.949,12.196"/>
					<path style="fill:none;stroke:#483504;stroke-linecap:round;stroke-linejoin:round;stroke-miterlimit:10;" d="M704.658,368.967
						c-3.621,5.753-7.249,11.508-10.872,17.266"/>
					<path style="fill:none;stroke:#483504;stroke-linecap:round;stroke-linejoin:round;stroke-miterlimit:10;" d="M702.37,388.332
						c4.924-4.757,10.161-9.187,15.67-13.249"/>
				</g>
			</g>
		</g>
		<g style="clip-path:url(#SVGID_00000105413095364743681770000017160319116904746920_);">
			<g>
				<g>
					<g>
						<g>
							<path style="fill:#62511B;" d="M739.154,468.612c-11.893-2.028-22.999-8.435-30.727-17.729
								c-7.728-9.294-12.016-21.397-11.863-33.487c4.339,4.928,10.732,7.478,16.299,10.755c5.5,3.237,11.726,7.029,15.826,12.022
								C735.072,447.948,736.821,459.076,739.154,468.612z"/>
							<path style="fill:none;stroke:#483504;stroke-linecap:round;stroke-linejoin:round;stroke-miterlimit:10;" d="
								M702.93,429.634c10.144,14.537,22.304,28.025,36.225,38.978"/>
						</g>
						<path style="fill:none;stroke:#483504;stroke-linecap:round;stroke-linejoin:round;stroke-miterlimit:10;" d="
							M707.402,385.611c21.728,37.58,34.626,80.153,37.88,123.43"/>
						<g>
							<path style="fill:#62511B;" d="M736.118,455.104c9.821-7.008,17.024-17.615,19.93-29.347
								c2.906-11.733,1.491-24.495-3.915-35.31c-1.758,6.326-6.401,11.408-9.983,16.783c-3.54,5.311-7.491,11.436-9.005,17.717
								C730.787,434.726,734.063,445.504,736.118,455.104z"/>
							<path style="fill:none;stroke:#483504;stroke-linecap:round;stroke-linejoin:round;stroke-miterlimit:10;" d="
								M751.737,404.235c-2.796,17.505-7.862,34.943-15.618,50.869"/>
						</g>
					</g>
					<g>
						<path style="fill:#FFFFFF;" d="M682.717,396.318c-4.8,1.884-6.684,0.931-7.625-0.872c-0.941-1.803-0.647-3.893,3.642-6.756
							c-5.155,0.129-6.599-1.411-6.867-3.427c-0.268-2.016,0.728-3.879,5.739-5.102c-4.889-1.642-5.724-3.583-5.287-5.569
							c0.438-1.986,2.007-3.399,7.135-2.834c-4.03-3.214-4.151-5.323-3.06-7.04c1.09-1.716,3.048-2.507,7.671-0.224
							c-2.689-4.4-2.077-6.42-0.465-7.66c1.612-1.24,3.722-1.313,7.285,2.413c-1.022-5.054,0.244-6.744,2.183-7.358
							c1.939-0.614,3.946,0.043,6.02,4.763c0.768-5.101,2.536-6.257,4.568-6.17c2.032,0.086,3.694,1.391,4.028,6.538
							c2.466-4.53,4.523-5.015,6.403-4.239c1.88,0.776,2.998,2.566,1.552,7.516c3.866-3.412,5.962-3.16,7.463-1.789
							c1.501,1.372,1.939,3.437-1.112,7.594c4.8-1.884,6.684-0.931,7.625,0.872c0.941,1.803,0.647,3.893-3.642,6.755
							c5.155-0.129,6.599,1.411,6.867,3.427c0.268,2.016-0.728,3.879-5.739,5.102c4.889,1.642,5.724,3.583,5.287,5.569
							c-0.438,1.986-2.007,3.399-7.135,2.834c4.03,3.214,4.151,5.323,3.06,7.04c-1.09,1.716-3.048,2.507-7.671,0.224
							c2.689,4.4,2.077,6.42,0.465,7.66c-1.612,1.24-3.722,1.313-7.285-2.413c1.022,5.054-0.244,6.744-2.183,7.357
							c-1.938,0.614-3.946-0.043-6.02-4.763c-0.768,5.101-2.536,6.257-4.568,6.171c-2.032-0.086-3.694-1.391-4.028-6.538
							c-2.466,4.53-4.523,5.015-6.403,4.239c-1.88-0.776-2.998-2.566-1.553-7.516c-3.866,3.412-5.962,3.16-7.463,1.788
							C680.105,402.54,679.666,400.475,682.717,396.318z"/>
						<path style="fill:#ED7C00;" d="M693.638,387.916c3.704,4.814,10.608,5.714,15.422,2.01c4.814-3.704,5.714-10.608,2.01-15.422
							c-3.704-4.814-10.608-5.714-15.422-2.01C690.835,376.198,689.935,383.102,693.638,387.916z"/>
					</g>
				</g>
				<g>
					<path style="fill:#A59753;" d="M585.385,508.151c-5.164-4.715-5.439-13.781-0.569-18.799c4.87-5.018,13.94-5.017,18.808,0.003
						c-1.551-10.827-3.492-22.219-0.439-32.722c3.052-10.503,12.019-20.124,22.955-20.262c9.762-0.123,17.988,6.946,24.835,13.904
						c-0.517-12.989,10.817-24.831,23.511-27.635c12.694-2.804,26.582,3.37,33.949,14.081c7.367,10.711,8.354,25.197,3.582,37.29
						c4.31-5.085,12.591-6.513,18.618-3.667c6.028,2.846,9.699,9.979,8.511,16.538c1.581-4.118,7.018-5.646,10.975-3.698
						c3.958,1.948,6.176,6.454,6.455,10.856c0.279,4.402-1.081,8.739-2.697,12.844C698.538,503.087,640.797,505.566,585.385,508.151
						z"/>
					<g>
						<path style="fill:none;stroke:#483504;stroke-linecap:round;stroke-linejoin:round;stroke-miterlimit:10;" d="
							M621.963,448.603c11.388,17.987,21.01,37.096,28.673,56.951"/>
						<path style="fill:none;stroke:#483504;stroke-linecap:round;stroke-linejoin:round;stroke-miterlimit:10;" d="
							M593.154,492.354c8.694,3.962,17.003,8.773,24.779,14.342"/>
						<path style="fill:none;stroke:#483504;stroke-linecap:round;stroke-linejoin:round;stroke-miterlimit:10;" d="M671.76,505.089
							c6.294-23.274,10.754-47.057,13.335-71.021"/>
						<path style="fill:none;stroke:#483504;stroke-linecap:round;stroke-linejoin:round;stroke-miterlimit:10;" d="M725.835,477.48
							c-10.29,9.158-20.58,18.304-30.87,27.462"/>
						<path style="fill:none;stroke:#483504;stroke-linecap:round;stroke-linejoin:round;stroke-miterlimit:10;" d="
							M748.826,487.328c-10.652,5.966-21.315,11.931-31.967,17.897"/>
					</g>
				</g>
				<g>
					<path style="fill:#ED7C00;" d="M579.85,506.891c10.865-15.874,25.262-29.316,41.844-39.066
						c6.452-3.794,13.454-7.226,17.966-13.198c4.512-5.972,5.434-15.522-0.294-20.342c-5.646-4.752-14.231-2.606-20.905,0.543
						c-14.022,6.615-26.574,16.016-35.948,28.366c8.515-11.727,17.03-23.455,25.545-35.182c3.464-4.77,7.039-9.812,7.79-15.659
						c0.751-5.847-2.42-12.651-8.201-13.811c-5.196-1.042-10.086,2.627-13.871,6.336c-14.985,14.686-25.302,33.903-29.66,54.428
						c4.815-23.061,6.881-46.694,6.141-70.241c-0.19-6.051-1.229-13.182-6.61-15.955c-4.266-2.199-9.744-0.466-13.132,2.933
						c-3.389,3.399-5.095,8.102-6.381,12.726c-6.221,22.371-5.568,46.146-4.141,69.322c-7.24-24.153-15.661-50.034-36.005-64.93
						c-6.047-4.428-14.445-7.644-20.828-3.717c-4.992,3.072-6.87,9.669-6.031,15.47s3.867,11.02,6.836,16.074
						c9.004,15.326,17.081,31.187,26.085,46.513c-7.973-13.061-19.498-24.477-31.971-33.343c-4.437-3.154-9.33-6.066-14.755-6.517
						c-5.425-0.451-11.453,2.249-13.249,7.387c-1.42,4.061,0.081,8.667,2.689,12.089c2.608,3.422,6.199,5.93,9.607,8.557
						c17.093,13.178,30.805,30.707,39.48,50.47C528.34,504.167,553.331,505.367,579.85,506.891z"/>
					<g>
						<path style="fill:none;stroke:#483504;stroke-linecap:round;stroke-linejoin:round;stroke-miterlimit:10;" d="
							M556.688,381.323c-2.927,41.358-5.842,82.715-8.769,124.062"/>
						<path style="fill:none;stroke:#483504;stroke-linecap:round;stroke-linejoin:round;stroke-miterlimit:10;" d="
							M491.719,399.741c21.333,31.951,36.649,67.895,44.944,105.402"/>
						<path style="fill:none;stroke:#483504;stroke-linecap:round;stroke-linejoin:round;stroke-miterlimit:10;" d="
							M460.175,436.797c26.207,17.582,48.377,41.148,64.374,68.357"/>
						<path style="fill:none;stroke:#483504;stroke-linecap:round;stroke-linejoin:round;stroke-miterlimit:10;" d="
							M562.343,505.957c5.831-33.909,20.178-66.322,41.435-93.387"/>
						<path style="fill:none;stroke:#483504;stroke-linecap:round;stroke-linejoin:round;stroke-miterlimit:10;" d="
							M568.009,506.232c11.365-27.165,32.974-49.961,59.588-62.625"/>
					</g>
				</g>
			</g>
			<g>
				<g>
					<path style="fill:#62511B;" d="M24.268,520.934c-2.057-8.028-5.608-15.477-11.313-21.488
						c-5.705-6.011-11.994-11.539-16.789-18.298c-3.654-5.15-6.325-12.316-2.799-17.555c3.441-5.112,11.302-5.401,16.615-2.278
						c5.313,3.122,8.679,8.641,11.827,13.939c0.271-8.402-4.11-16.183-9.338-22.767c-5.228-6.583-11.621-12.152-17.058-18.563
						c-3.568-4.207-6.87-9.851-4.787-14.959c2.242-5.499,9.862-6.976,15.292-4.574s9.142,7.447,12.597,12.276
						c-2.198-11.36-5.604-21.019-10.843-31.335c-2.062-4.06-4.386-8.123-5.016-12.633c-0.63-4.51,0.902-9.688,4.906-11.859
						c3.618-1.962,8.271-0.92,11.612,1.485c3.34,2.404,5.65,5.946,7.883,9.403c2.357-14.488,2.192-28.953-0.695-43.344
						c-0.952-4.747-2.194-9.52-1.914-14.354c0.28-4.834,2.402-9.879,6.632-12.236c3.684-2.052,8.389-1.684,12.147,0.228
						c3.758,1.912,6.669,5.186,8.929,8.745c5.866,9.237,7.76,20.552,7.299,31.485c-0.461,10.932-3.127,21.637-5.779,32.253
						c1.296-3.423,3.443-6.871,6.077-9.413c2.634-2.542,6.916-3.771,10.024-1.837c2.19,1.363,3.338,4.008,3.466,6.584
						c0.128,2.576-0.626,5.113-1.522,7.532c-4.635,12.503-13.095,23.053-22.067,33.032c0.273-0.216,0.55-0.43,0.838-0.643
						c2.669-1.972,6.373-2.898,9.355-1.443c3.268,1.595,4.763,5.629,4.424,9.25c-0.339,3.621-2.142,6.924-3.999,10.052
						c-7.648,12.883-10.84,15.582-19.986,27.448c2.704-2.374,5.903-4.496,9.164-6.018c3.261-1.521,7.159-2.064,10.451-0.611
						c3.292,1.453,5.641,5.251,4.697,8.724c-0.681,2.507-2.789,4.32-4.736,6.04C44.907,486.414,33.799,503.402,24.268,520.934z"/>
					<g>
						<path style="fill:none;stroke:#483504;stroke-linecap:round;stroke-linejoin:round;stroke-miterlimit:10;" d="M38.921,324.289
							c12.363,49.28-6.041,151.679-20.159,226.161"/>
						<path style="fill:none;stroke:#483504;stroke-linecap:round;stroke-linejoin:round;stroke-miterlimit:10;" d="M40.727,411.126
							c8.548-6.606,15.734-14.966,20.982-24.409"/>
						<path style="fill:none;stroke:#483504;stroke-linecap:round;stroke-linejoin:round;stroke-miterlimit:10;" d="M14.438,381.151
							c10.734,16.064,18.683,33.983,23.388,52.721"/>
						<path style="fill:none;stroke:#483504;stroke-linecap:round;stroke-linejoin:round;stroke-miterlimit:10;" d="M35.428,454.976
							c7.598-7.644,14.078-16.397,19.171-25.896"/>
						<path style="fill:none;stroke:#483504;stroke-linecap:round;stroke-linejoin:round;stroke-miterlimit:10;" d="M4.149,424.707
							c12.871,11.134,23.055,25.352,29.455,41.121"/>
						<path style="fill:none;stroke:#483504;stroke-linecap:round;stroke-linejoin:round;stroke-miterlimit:10;" d="M29.285,491.625
							c6.42-8.218,13.975-15.548,22.382-21.717"/>
						<path style="fill:none;stroke:#483504;stroke-linecap:round;stroke-linejoin:round;stroke-miterlimit:10;" d="M2.831,469.254
							c10.446,10.341,18.641,22.945,23.852,36.689"/>
					</g>
				</g>
				<g>
					<g>
						<g>
							<path style="fill:#A59753;" d="M178.339,491.186c6.752-1.464,12.941-5.414,17.125-10.928
								c4.184-5.514,6.327-12.548,5.931-19.46c-2.356,2.93-5.949,4.552-9.049,6.569c-3.064,1.993-6.528,4.321-8.746,7.282
								C180.146,479.261,179.43,485.672,178.339,491.186z"/>
							<path style="fill:none;stroke:#483504;stroke-linecap:round;stroke-linejoin:round;stroke-miterlimit:10;" d="
								M198.065,467.962c-5.432,8.576-12.043,16.603-19.727,23.225"/>
						</g>
						<path style="fill:none;stroke:#483504;stroke-linecap:round;stroke-linejoin:round;stroke-miterlimit:10;" d="
							M194.381,442.892c-11.469,22.054-17.759,46.739-18.515,71.579"/>
						<g>
							<path style="fill:#A59753;" d="M179.73,483.381c-5.798-3.758-10.189-9.642-12.152-16.279
								c-1.962-6.637-1.479-13.974,1.337-20.3c1.167,3.574,3.953,6.362,6.14,9.346c2.161,2.948,4.578,6.351,5.604,9.905
								C182.259,471.587,180.66,477.836,179.73,483.381z"/>
							<path style="fill:none;stroke:#483504;stroke-linecap:round;stroke-linejoin:round;stroke-miterlimit:10;" d="
								M169.495,454.679c2.047,9.942,5.391,19.789,10.235,28.701"/>
						</g>
					</g>
					<g>
						<path style="fill:#FFD071;" d="M182.15,439.604c-2.926-5.848-4.371-12.689-4.173-19.764c0.059-2.122,0.363-4.495,1.874-6.153
							c1.214-1.332,2.938-1.89,4.559-2.237c4.071-0.871,8.174-0.816,11.951,0.141c1.701,0.431,2.768,2.029,2.718,3.957
							c-0.138,5.243-1.184,10.559-3.403,15.637c2.603-4.33,4.964-8.81,6.857-13.438c0.951-2.325,3.446-3.621,5.444-2.818
							c4.683,1.88,8.526,5.477,10.835,10.128c0.788,1.586,0.374,3.715-1.038,5.16c-3.436,3.519-6.987,6.923-10.682,10.109
							c4.026-1.872,7.93-4.128,11.677-6.704c1.747-1.201,3.864-0.586,4.401,1.283c0.603,2.097,1.085,4.341,1.488,6.481
							c0.645,3.427,0.044,7.767-2.855,10.2c-1.698,1.425-3.823,1.895-5.838,2.275c-6.891,1.301-13.979,2.165-20.305,0.378
							C189.332,452.453,185.145,445.59,182.15,439.604z"/>
						<path style="fill:#A59753;" d="M207.014,456.457c-5.921,1.18-12.228-0.706-17.004-4.398
							c-4.776-3.693-8.096-9.051-10.01-14.777c2.35,1.176,4.835,2.382,6.891,4.018c0.76-1.669,1.869-3.2,3.2-4.463
							c2.228,2.562,3.77,5.763,4.305,9.116c3.168-0.541,6.482-0.209,9.39,1.158c-0.189,1.923-0.9,3.723-2.15,5.196
							C203.763,453.168,205.586,454.66,207.014,456.457z"/>
					</g>
				</g>
				<g>
					<path style="fill:#62511B;" d="M62.03,505.272c-4.096-3.74-4.314-10.93-0.451-14.91c3.862-3.98,11.056-3.979,14.917,0.002
						c-1.23-8.587-2.769-17.622-0.349-25.952s9.532-15.961,18.207-16.07c7.743-0.098,14.266,5.509,19.697,11.028
						c-0.41-10.302,8.579-19.694,18.647-21.918c10.068-2.224,21.083,2.673,26.926,11.168s6.625,19.985,2.841,29.576
						c3.418-4.033,9.986-5.165,14.767-2.908c4.781,2.257,7.692,7.915,6.75,13.117c1.254-3.266,5.566-4.478,8.705-2.933
						c3.139,1.545,4.898,5.119,5.119,8.611c0.221,3.492-0.858,6.932-2.139,10.187C151.775,501.256,105.979,503.222,62.03,505.272z"
						/>
					<g>
						<path style="fill:none;stroke:#483504;stroke-linecap:round;stroke-linejoin:round;stroke-miterlimit:10;" d="M91.042,458.043
							c9.032,14.266,16.663,29.421,22.742,45.169"/>
						<path style="fill:none;stroke:#483504;stroke-linecap:round;stroke-linejoin:round;stroke-miterlimit:10;" d="M68.192,492.743
							c6.895,3.142,13.485,6.958,19.653,11.375"/>
						<path style="fill:none;stroke:#483504;stroke-linecap:round;stroke-linejoin:round;stroke-miterlimit:10;" d="
							M130.536,502.844c4.992-18.459,8.529-37.322,10.576-56.329"/>
						<path style="fill:none;stroke:#483504;stroke-linecap:round;stroke-linejoin:round;stroke-miterlimit:10;" d="
							M173.425,480.946c-8.161,7.263-16.322,14.518-24.483,21.781"/>
						<path style="fill:none;stroke:#483504;stroke-linecap:round;stroke-linejoin:round;stroke-miterlimit:10;" d="M191.66,488.757
							c-8.449,4.731-16.906,9.463-25.354,14.194"/>
					</g>
				</g>
				<g>
					<g>
						<g>
							<path style="fill:#A59753;" d="M47.338,481.369c12.077,2.12,24.897-0.223,35.468-6.481
								c10.571-6.258,18.808-16.38,22.789-28.007c-5.836,3.236-12.827,3.495-19.275,4.731c-6.371,1.221-13.625,2.725-19.254,6.105
								C58.301,462.981,52.828,473.037,47.338,481.369z"/>
							<path style="fill:none;stroke:#483504;stroke-linecap:round;stroke-linejoin:round;stroke-miterlimit:10;" d="
								M95.324,456.423c-14.674,10.453-30.919,19.213-47.986,24.946"/>
						</g>
						<path style="fill:none;stroke:#483504;stroke-linecap:round;stroke-linejoin:round;stroke-miterlimit:10;" d="
							M106.071,412.753c-33.63,28.557-60.512,64.909-78.403,105.226"/>
						<g>
							<path style="fill:#A59753;" d="M54.856,469.474c-7.009-10.061-10.284-22.675-9.06-34.898
								c1.224-12.224,6.935-23.958,15.803-32.465c-0.477,6.656,2.233,13.106,3.827,19.474c1.576,6.292,3.267,13.505,2.572,20.035
								C66.917,451.787,60.101,460.986,54.856,469.474z"/>
							<path style="fill:none;stroke:#483504;stroke-linecap:round;stroke-linejoin:round;stroke-miterlimit:10;" d="
								M57.272,415.445c-3.3,17.712-4.404,36.135-2.416,54.029"/>
						</g>
					</g>
					<g>
						<path style="fill:#CE4F3A;" d="M99.006,400.011c0.211-11.093,0.458-22.399,4.061-32.893c1.536-4.475,4.389-9.297,9.077-9.935
							c3.979-0.542,7.82,2.4,9.431,6.078c1.612,3.678,1.418,7.89,0.752,11.85c-1.048,6.23-3.199,12.272-6.324,17.762
							c7.021-8.898,14.838-17.381,23.789-24.335c2.34-1.818,4.837-3.547,7.693-4.337c2.856-0.791,6.157-0.504,8.432,1.394
							c2.512,2.096,3.281,5.767,2.607,8.969c-0.674,3.201-2.568,6.009-4.651,8.532c-7.533,9.127-17.805,15.496-27.883,21.699
							c6.993-4.313,15.152-5.872,23.3-4.815c4.682,0.608,9.74,2.573,11.655,6.888c2.136,4.812-0.745,10.693-5.165,13.554
							c-5.69,3.682-12.975,3.427-19.741,3.042c-7.729-0.44-14.36-1.889-22.089-2.328C109.52,414.118,104.51,406.22,99.006,400.011z"
							/>
						<path style="fill:#62511B;" d="M97.652,390.938c0.145,5.119-0.731,10.229-0.532,15.347c0.199,5.117,1.686,10.521,5.593,13.833
							c2.732,2.316,6.366,3.349,9.942,3.542c3.576,0.193,7.143-0.389,10.677-0.968c-2.493-4.254-6.087-7.487-10.444-9.796
							c1.376-3.945,1.864-8.221,1.218-12.349c-3.178,0.158-6.235,1.095-9.058,2.564C103.454,398.863,100.824,394.177,97.652,390.938
							z"/>
					</g>
				</g>
			</g>
		</g>
	</g>
	<g>
		<g>
			<path style="opacity:0.2;fill:#FFFFFF;" d="M601.554,349.017c-1.729,5.667-4.705,10.975-8.554,15.572
				c-3.87,4.588-8.583,8.461-13.74,11.587c-10.339,6.241-22.486,9.488-34.672,9.575c-12.177,0.095-24.217-2.547-35.583-6.516
				c-11.404-3.96-22.186-9.344-32.682-14.924c-10.502-5.579-20.762-11.396-31.22-16.54c-10.464-5.12-21.182-9.478-32.323-12.02
				c-11.135-2.582-22.608-3.754-34.029-3.292c-5.708,0.235-11.396,0.867-17.009,1.888c-5.595,1-10.95,2.499-16.133,4.611
				c-5.158,2.087-10.106,4.698-14.439,8.002c-4.335,3.287-8.081,7.227-10.747,11.735c-2.69,4.486-4.199,9.587-4.512,14.778
				c-0.164,5.184,0.831,10.431,3.028,15.276l0.84,1.81c0.297,0.596,0.651,1.167,0.971,1.754c0.612,1.19,1.424,2.273,2.152,3.403
				c1.597,2.169,3.31,4.283,5.289,6.156c1.914,1.936,4.075,3.622,6.292,5.209c1.152,0.729,2.261,1.536,3.471,2.166
				c0.598,0.33,1.181,0.68,1.789,0.996l1.857,0.904c4.993,2.325,10.358,3.909,15.82,4.615c2.728,0.356,5.486,0.544,8.225,0.416
				c2.738-0.097,5.473-0.403,8.126-1.032c1.345-0.252,2.633-0.697,3.941-1.076c1.273-0.472,2.566-0.908,3.786-1.506
				c1.269-0.516,2.401-1.225,3.592-1.858c1.117-0.755,2.284-1.443,3.326-2.316c1.102-0.793,2.074-1.749,3.09-2.654
				c0.928-0.994,1.928-1.932,2.753-3.021c1.761-2.087,3.261-4.395,4.508-6.823c1.29-2.415,2.197-5.011,2.842-7.651
				c0.682-2.642,0.891-5.374,0.81-8.077c-0.043-2.724-0.63-5.391-1.517-7.914c-0.854-2.566-2.329-4.905-3.941-7.114
				c-3.325-4.377-7.949-7.852-13.156-9.82c-2.603-1.007-5.369-1.493-8.139-1.627c-2.784-0.131-5.558,0.409-8.195,1.277
				c-5.201,1.902-9.556,6.26-11.884,11.491c-1.176,2.614-1.859,5.49-1.779,8.393c0.063,2.898,0.979,5.81,2.724,8.215
				c-1.923-2.26-3.105-5.162-3.402-8.168c-0.315-3.01,0.164-6.087,1.197-8.95c2.112-5.698,6.421-10.722,12.211-13.295
				c2.888-1.172,5.979-1.973,9.129-1.984c3.128-0.022,6.283,0.375,9.265,1.349c5.97,1.907,11.37,5.514,15.469,10.347
				c0.55,0.573,0.991,1.236,1.46,1.878c0.454,0.653,0.962,1.27,1.333,1.98l1.194,2.08c0.345,0.723,0.657,1.464,0.984,2.199
				c1.201,2.991,2.011,6.154,2.203,9.348c0.234,3.188,0.105,6.426-0.556,9.549c-0.624,3.125-1.57,6.198-2.945,9.068
				c-1.339,2.882-2.956,5.651-4.945,8.139c-0.933,1.294-2.054,2.434-3.115,3.624c-1.153,1.104-2.27,2.25-3.539,3.233
				c-1.204,1.06-2.557,1.934-3.869,2.863c-1.388,0.809-2.758,1.696-4.213,2.348c-1.421,0.742-2.915,1.308-4.4,1.901
				c-1.513,0.497-3.019,1.052-4.573,1.4c-3.082,0.823-6.244,1.276-9.406,1.483c-3.166,0.237-6.34,0.121-9.482-0.196
				c-6.289-0.663-12.43-2.383-18.205-4.938l-2.149-1c-0.71-0.353-1.406-0.747-2.108-1.121c-1.426-0.719-2.74-1.622-4.096-2.457
				c-2.624-1.799-5.174-3.728-7.467-5.955c-2.354-2.159-4.438-4.612-6.383-7.171c-0.906-1.333-1.883-2.617-2.663-4.042
				c-0.403-0.702-0.836-1.387-1.211-2.106l-1.071-2.193c-0.377-0.721-0.672-1.484-0.965-2.248c-0.292-0.764-0.609-1.518-0.875-2.293
				l-0.692-2.366c-0.251-0.783-0.417-1.59-0.567-2.403c-0.155-0.81-0.327-1.618-0.46-2.432l-0.254-2.47l-0.116-1.236l-0.012-1.244
				l-0.011-2.488c0.206-3.311,0.711-6.602,1.664-9.777c0.519-1.574,0.956-3.184,1.703-4.666l1.026-2.262
				c0.359-0.744,0.812-1.433,1.217-2.151c3.328-5.701,7.889-10.487,12.944-14.366c5.066-3.896,10.659-6.894,16.448-9.254
				c5.785-2.327,11.894-3.984,17.947-5.025c6.031-1.06,12.131-1.699,18.244-1.915c12.222-0.388,24.506,0.826,36.364,3.814
				c11.904,2.944,23.166,7.784,33.833,13.243c10.704,5.446,20.865,11.608,31.079,17.447c10.199,5.854,20.549,11.272,31.343,15.546
				c10.768,4.272,22.09,7.2,33.611,7.627c11.455,0.543,23.097-1.986,33.385-7.34c5.135-2.681,9.904-6.128,13.955-10.33
				C596.068,359.512,599.397,354.538,601.554,349.017z"/>
			<path style="opacity:0.2;fill:#FFFFFF;" d="M204.309,352.622c-3.542,6.227-9.096,11.51-15.658,15.03
				c-3.251,1.849-6.802,3.13-10.437,4.142c-1.835,0.435-3.681,0.888-5.572,1.083c-1.879,0.317-3.785,0.383-5.698,0.454
				c-3.817-0.02-7.7-0.297-11.46-1.317c-1.911-0.379-3.733-1.11-5.584-1.746c-0.907-0.367-1.786-0.812-2.68-1.22l-1.335-0.629
				c-0.44-0.216-0.85-0.466-1.277-0.699c-6.778-3.836-12.166-8.974-17.426-13.5c-2.614-2.302-5.214-4.45-7.903-6.333
				c-1.368-0.879-2.716-1.775-4.119-2.597l-2.171-1.12c-0.721-0.38-1.44-0.767-2.206-1.059c-5.977-2.662-12.494-4.236-19.16-4.782
				c-6.675-0.573-13.493,0.078-20.132,1.736c-6.665,1.631-13.079,4.495-19.087,8.405c4.699-5.435,10.901-9.628,17.659-12.587
				c6.79-2.91,14.226-4.54,21.748-4.628c7.519-0.124,15.134,1.195,22.271,3.983c0.446,0.173,0.906,0.314,1.341,0.515l1.3,0.618
				l2.598,1.248c1.688,0.915,3.338,1.932,4.977,2.933c3.158,2.148,6.055,4.513,8.787,6.879c2.715,2.388,5.316,4.774,7.919,6.981
				c2.586,2.233,5.215,4.273,7.947,5.984c0.343,0.209,0.68,0.442,1.028,0.632l1.051,0.552c0.705,0.361,1.39,0.765,2.111,1.1
				c1.489,0.56,2.914,1.311,4.477,1.714c3.044,1.049,6.278,1.557,9.535,1.886c3.272,0.248,6.593,0.155,9.906-0.263
				c3.288-0.501,6.615-1.174,9.785-2.374C193.314,361.493,199.183,357.625,204.309,352.622z"/>
			<path style="opacity:0.2;fill:#FFFFFF;" d="M130.665,383.059c8.014,2.754,15.997,4.65,24.042,5.453
				c8.03,0.819,16.074,0.578,23.909-0.788c7.833-1.372,15.484-3.864,22.763-7.349c7.298-3.477,14.17-7.956,20.788-13.251
				c-4.44,7.251-10.811,13.364-18.1,18.054c-7.307,4.682-15.609,7.944-24.251,9.44c-8.641,1.504-17.554,1.241-26.013-0.696
				C145.36,391.97,137.299,388.374,130.665,383.059z"/>
			<path style="opacity:0.2;fill:#FFFFFF;" d="M369.604,306.49c8.033-2.678,16.572-3.907,25.116-3.98
				c8.553-0.108,17.138,1.005,25.438,3.165c8.298,2.171,16.329,5.403,23.737,9.681c7.416,4.244,14.262,9.497,19.952,15.768
				c-7.041-4.682-14.245-8.834-21.745-12.302c-7.509-3.436-15.26-6.234-23.209-8.311c-7.946-2.086-16.076-3.437-24.307-4.117
				C386.35,305.748,378.035,305.846,369.604,306.49z"/>
			<path style="opacity:0.2;fill:#FFFFFF;" d="M523.863,406.755c8.82,1.137,17.57,1.275,26.176,0.328
				c8.597-0.981,17.026-2.973,25.094-5.963c8.07-2.983,15.768-6.951,22.935-11.799c7.152-4.879,13.709-10.672,19.674-17.269
				c-4.272,7.82-10.325,14.717-17.341,20.397c-7.005,5.718-15.029,10.214-23.534,13.359c-8.509,3.136-17.526,4.942-26.565,5.152
				C541.278,411.209,532.195,409.911,523.863,406.755z"/>
			<path style="opacity:0.2;fill:#FFFFFF;" d="M521.243,312.845c9.669,7.066,21.94,9.443,33.07,7.246
				c2.774-0.603,5.469-1.457,8.045-2.566c2.531-1.184,4.977-2.589,7.291-4.268c4.654-3.319,8.911-7.392,13.494-11.325
				c2.302-1.956,4.689-3.884,7.255-5.638c0.636-0.443,1.292-0.865,1.963-1.268l0.999-0.614l1.045-0.553l2.091-1.101
				c0.699-0.362,1.443-0.624,2.165-0.935c5.806-2.404,12.071-3.59,18.272-3.435c6.193,0.092,12.349,1.304,17.982,3.71
				c5.606,2.435,10.752,5.91,14.747,10.376c-4.749-3.642-10.027-6.377-15.589-8.07c-1.383-0.437-2.804-0.754-4.201-1.111
				l-2.137-0.376c-0.71-0.13-1.418-0.261-2.14-0.31c-1.437-0.133-2.858-0.336-4.299-0.34c-0.717-0.019-1.433-0.067-2.149-0.065
				l-2.147,0.086c-1.432,0.002-2.845,0.266-4.261,0.403c-1.408,0.201-2.805,0.486-4.193,0.767c-2.74,0.722-5.471,1.503-8.013,2.721
				c-5.142,2.255-9.698,5.714-14.145,9.552c-4.47,3.799-8.89,7.957-14.054,11.418c-2.571,1.734-5.347,3.243-8.284,4.43
				c-2.947,1.138-6.01,1.894-9.101,2.344c-3.101,0.381-6.221,0.475-9.308,0.213c-3.082-0.323-6.113-0.938-9.046-1.841
				c-2.906-1.001-5.705-2.251-8.314-3.808C525.707,316.873,523.33,314.988,521.243,312.845z"/>
		</g>
		<g>
			<path style="opacity:0.2;fill:#FFFFFF;" d="M129.098,71.023c5.752,5.838,12.511,10.511,19.809,13.888
				c7.302,3.382,15.072,5.608,22.981,6.804c7.901,1.253,15.938,1.558,23.916,1.113c7.978-0.458,15.922-1.52,23.7-3.3
				c31.332-7.085,60.682-22.358,93.4-29.741c8.114-1.837,16.613-3.286,25.436-2.941c4.408,0.222,8.829,0.85,13.191,2.252
				c4.33,1.372,8.458,3.431,12.137,6.207c1.832,1.397,3.555,2.962,5.12,4.699c1.547,1.756,2.919,3.69,4.064,5.767
				c2.305,4.14,3.499,9.003,3.441,13.725c-0.047,4.741-1.254,9.332-3.22,13.436c-1.987,4.104-4.691,7.764-7.87,10.898
				c-3.183,3.131-6.858,5.747-10.897,7.67c-2.004,0.984-4.154,1.717-6.289,2.329c-2.143,0.574-4.336,0.935-6.544,1.122
				c-4.414,0.344-8.935-0.064-13.209-1.496c-2.13-0.72-4.198-1.684-6.083-2.948c-1.873-1.238-3.648-2.824-5.032-4.616
				c-2.783-3.589-4.473-7.937-4.665-12.425c-0.212-4.457,1.184-9.137,4.464-12.337c1.625-1.587,3.633-2.666,5.717-3.287
				c2.086-0.624,4.267-0.826,6.391-0.598c2.119,0.239,4.195,0.907,5.967,2.057c1.778,1.135,3.189,2.802,3.953,4.708
				c-0.999-1.797-2.538-3.211-4.305-4.1c-1.771-0.895-3.749-1.297-5.698-1.306c-3.874-0.032-7.838,1.44-10.222,4.252
				c-1.17,1.375-1.988,3.096-2.455,4.858c-0.463,1.775-0.554,3.643-0.334,5.475c0.429,3.675,2.14,7.19,4.576,9.866
				c2.393,2.682,5.696,4.513,9.246,5.462c3.552,0.957,7.35,1.084,11.055,0.57c1.854-0.265,3.683-0.703,5.469-1.251
				c1.763-0.599,3.471-1.256,5.102-2.15c3.268-1.733,6.243-4.051,8.768-6.76c2.523-2.71,4.602-5.82,6.034-9.14
				c1.448-3.308,2.264-6.831,2.198-10.273c-0.065-3.443-0.964-6.764-2.712-9.729c-0.87-1.477-1.907-2.869-3.095-4.152
				c-1.209-1.267-2.552-2.426-3.996-3.47c-2.914-2.052-6.2-3.698-9.679-4.732c-3.439-1.064-7.188-1.565-10.936-1.701
				c-7.549-0.261-15.33,1.035-23.119,2.838c-15.603,3.474-30.879,8.912-46.347,14.214c-7.744,2.636-15.537,5.273-23.453,7.651
				c-7.91,2.4-15.96,4.463-24.172,5.952c-16.444,3.01-33.491,3.274-49.843-0.351c-8.134-1.894-16.086-4.745-23.298-8.921
				l-5.253-3.353l-4.912-3.802l-4.483-4.265L129.098,71.023z"/>
			<path style="opacity:0.2;fill:#FFFFFF;" d="M306.722,139.571c2.584,1.811,5.3,3.374,8.147,4.615
				c2.833,1.262,5.76,2.277,8.76,2.966c5.99,1.383,12.142,1.911,18.219,1.448c6.066-0.371,12.069-1.584,17.894-3.393
				c2.911-0.909,5.798-1.91,8.645-3.039c2.848-1.128,5.655-2.377,8.45-3.668c11.14-5.268,22.012-11.472,32.81-17.745l16.204-9.553
				c5.418-3.189,10.865-6.36,16.358-9.488c5.51-3.098,11.071-6.137,16.722-9.048c5.668-2.877,11.406-5.652,17.266-8.185
				c11.709-5.068,23.878-9.317,36.456-11.989c6.281-1.34,12.654-2.305,19.064-2.768c6.424-0.514,12.955-0.38,19.363,0.507
				c3.199,0.521,6.383,1.14,9.479,2.117c1.562,0.418,3.072,1.038,4.593,1.576c0.749,0.31,1.489,0.644,2.226,0.977l1.103,0.502
				l1.069,0.581c2.886,1.459,5.529,3.37,7.952,5.454l1.734,1.661c0.569,0.559,1.058,1.199,1.587,1.791
				c1.097,1.152,1.897,2.551,2.811,3.821c-4.164-4.753-9.395-8.295-15.124-10.46l-1.063-0.424l-1.096-0.346l-2.18-0.699
				c-1.489-0.363-2.944-0.806-4.458-1.051c-2.985-0.629-6.041-0.912-9.081-1.104c-6.103-0.329-12.213-0.011-18.271,0.96
				c-6.086,0.906-12.109,2.177-18.046,3.783c-11.878,3.215-23.408,7.688-34.63,12.901c-5.612,2.606-11.169,5.362-16.655,8.281
				c-5.504,2.887-10.959,5.906-16.393,8.993c-21.777,12.263-43.325,25.586-66.988,35.422c-11.848,4.806-24.663,8.294-37.721,8.026
				c-3.247-0.086-6.483-0.404-9.667-0.986c-3.183-0.577-6.324-1.37-9.349-2.483C316.859,147.335,311.241,143.979,306.722,139.571z"
				/>
			<path style="opacity:0.2;fill:#FFFFFF;" d="M499.07,56.092c7.012-5.233,15.25-8.81,23.823-11.017
				c8.591-2.186,17.575-2.963,26.458-2.363c8.884,0.595,17.682,2.578,25.9,5.904c8.198,3.342,15.878,8.003,22.114,14.143
				c-8.062-3.341-15.991-6.147-24.082-8.169c-8.073-2.04-16.247-3.333-24.473-3.899c-8.227-0.56-16.502-0.382-24.778,0.548
				C515.742,52.147,507.505,53.861,499.07,56.092z"/>
			<path style="opacity:0.2;fill:#FFFFFF;" d="M110.828,25.178c6.739,6.248,13.645,11.832,21.026,16.617
				c7.358,4.798,15.12,8.82,23.2,12.051c8.083,3.224,16.474,5.667,25.111,7.268c8.645,1.625,17.494,2.349,26.684,2.484
				c-8.657,3.165-18.086,4.241-27.414,3.764c-9.341-0.499-18.632-2.593-27.352-6.09c-8.722-3.493-16.891-8.384-23.998-14.467
				C121.006,40.714,114.921,33.436,110.828,25.178z"/>
		</g>
	</g>
	<g>
		<g>
			<path style="fill:#ED7C00;" d="M33.093,288.375c7.6,2.989,13.287,10.365,14.245,18.474
				C40.68,302.865,36.469,295.362,33.093,288.375z"/>
			<path style="fill:none;stroke:#483504;stroke-width:0.5;stroke-linecap:round;stroke-linejoin:round;stroke-miterlimit:10;" d="
				M37.174,292.378c5.149,5.057,9.161,11.264,11.657,18.035"/>
		</g>
		<g>
			<path style="fill:#ED7C00;" d="M438.11,143.499c7.874-2.165,16.848,0.327,22.478,6.242
				C452.87,150.545,445.002,147.066,438.11,143.499z"/>
			<path style="fill:none;stroke:#483504;stroke-width:0.5;stroke-linecap:round;stroke-linejoin:round;stroke-miterlimit:10;" d="
				M443.776,144.256c7.152,0.959,14.085,3.52,20.144,7.442"/>
		</g>
		<g>
			<path style="fill:#ED7C00;" d="M381.49,459.977c5.614-10.131,17.041-16.758,28.622-16.6
				C403.273,452,391.941,456.527,381.49,459.977z"/>
			<path style="fill:none;stroke:#483504;stroke-width:0.5;stroke-linecap:round;stroke-linejoin:round;stroke-miterlimit:10;" d="
				M387.876,454.983c8.066-6.301,17.54-10.79,27.524-13.043"/>
		</g>
		<g>
			<path style="fill:#ED7C00;" d="M232.533,25.501c11.218-2.884,23.885,0.864,31.728,9.386
				C253.298,35.845,242.221,30.724,232.533,25.501z"/>
			<path style="fill:none;stroke:#483504;stroke-width:0.5;stroke-linecap:round;stroke-linejoin:round;stroke-miterlimit:10;" d="
				M240.55,26.709c10.12,1.53,19.892,5.327,28.39,11.032"/>
		</g>
		<g>
			<path style="fill:#ED7C00;" d="M602.875,32.584c9.751-6.25,22.955-6.656,33.072-1.017
				C625.833,35.908,613.711,34.512,602.875,32.584z"/>
			<path style="fill:none;stroke:#483504;stroke-width:0.5;stroke-linecap:round;stroke-linejoin:round;stroke-miterlimit:10;" d="
				M610.867,31.222c10.091-1.715,20.56-1.167,30.416,1.592"/>
		</g>
		<g>
			<path style="fill:#ED7C00;" d="M522.295,304.586c2.911-4.971,8.671-8.131,14.428-7.915
				C533.22,300.878,527.532,302.995,522.295,304.586z"/>
			<path style="fill:none;stroke:#483504;stroke-width:0.5;stroke-linecap:round;stroke-linejoin:round;stroke-miterlimit:10;" d="
				M525.529,302.179c4.085-3.037,8.848-5.157,13.839-6.159"/>
		</g>
		<g>
			<path style="fill:#ED7C00;" d="M713.461,332.678c6.433-1.359,13.526,1.079,17.764,6.106
				C724.983,339.057,718.827,335.879,713.461,332.678z"/>
			<path style="fill:none;stroke:#483504;stroke-width:0.5;stroke-linecap:round;stroke-linejoin:round;stroke-miterlimit:10;" d="
				M717.978,333.561c5.702,1.117,11.151,3.512,15.83,6.957"/>
		</g>
		<g>
			<path style="fill:#CE4F3A;" d="M148.044,330.914c-1.741,2.829-4.473,5.034-7.604,6.141s-6.642,1.108-9.774,0.002
				c1.313-3.164,4.169-5.799,7.41-6.908C141.316,329.04,145.068,329.218,148.044,330.914z"/>
			<path style="fill:none;stroke:#483504;stroke-width:0.5;stroke-linecap:round;stroke-linejoin:round;stroke-miterlimit:10;" d="
				M133.811,335.341c6.438-1.589,11.667-3.149,17.708-5.785"/>
		</g>
		<g>
			<path style="fill:#CE4F3A;" d="M178.893,111.235c-1.741,2.829-4.473,5.034-7.604,6.141c-3.132,1.107-6.642,1.108-9.774,0.002
				c1.313-3.164,4.169-5.799,7.41-6.908C172.165,109.361,175.917,109.538,178.893,111.235z"/>
			<path style="fill:none;stroke:#483504;stroke-width:0.5;stroke-linecap:round;stroke-linejoin:round;stroke-miterlimit:10;" d="
				M164.66,115.662c6.438-1.589,11.667-3.149,17.708-5.785"/>
		</g>
		<g>
			<path style="fill:#CE4F3A;" d="M471.022,380.176c-2.42-0.005-4.831-0.862-6.711-2.387c-1.88-1.524-3.217-3.705-3.723-6.073
				c2.466-0.389,5.19,0.382,7.113,1.974C469.624,375.282,470.942,377.681,471.022,380.176z"/>
			<path style="fill:none;stroke:#483504;stroke-width:0.5;stroke-linecap:round;stroke-linejoin:round;stroke-miterlimit:10;" d="
				M462.852,373.017c3.439,3.395,6.398,6.05,10.336,8.801"/>
		</g>
		<g>
			<path style="fill:#CE4F3A;" d="M406.68,100.288c-2.421-0.005-4.831-0.862-6.711-2.387c-1.88-1.524-3.217-3.705-3.723-6.073
				c2.466-0.389,5.19,0.382,7.113,1.974C405.283,95.394,406.601,97.793,406.68,100.288z"/>
			<path style="fill:none;stroke:#483504;stroke-width:0.5;stroke-linecap:round;stroke-linejoin:round;stroke-miterlimit:10;" d="
				M398.51,93.13c3.439,3.395,6.398,6.05,10.336,8.801"/>
		</g>
		<g>
			<path style="fill:#CE4F3A;" d="M569.477,109.005c-1.576,1.837-3.794,3.112-6.174,3.551c-2.38,0.439-4.907,0.038-7.035-1.115
				c1.307-2.127,3.663-3.697,6.122-4.125C564.848,106.888,567.528,107.445,569.477,109.005z"/>
			<path style="fill:none;stroke:#483504;stroke-width:0.5;stroke-linecap:round;stroke-linejoin:round;stroke-miterlimit:10;" d="
				M558.727,110.565c4.815-0.408,8.756-0.933,13.406-2.14"/>
		</g>
		<g>
			<path style="fill:#CE4F3A;" d="M562.947,343.254c-1.208,1.468-2.928,2.507-4.79,2.891s-3.853,0.111-5.543-0.76
				c0.991-1.692,2.815-2.964,4.74-3.34C559.278,341.667,561.392,342.06,562.947,343.254z"/>
			<path style="fill:none;stroke:#483504;stroke-width:0.5;stroke-linecap:round;stroke-linejoin:round;stroke-miterlimit:10;" d="
				M554.531,344.656c3.775-0.4,6.861-0.877,10.493-1.902"/>
		</g>
	</g>
	<g>
		<path style="fill:#FFFFFF;" d="M358.621,94.733H254.824c7.198-5.396,15.651-8.089,24.595-7.123
			c3.699-3.696,9.113-5.556,14.277-4.736c7.503-5.688,17.022-8.496,26.396-7.616c9.374,0.88,18.361,5.386,24.675,12.37
			C349.942,86.374,355.858,90.18,358.621,94.733z"/>
		<path style="fill:#FFFFFF;" d="M365.767,44.283h88.988c-6.171-4.626-13.418-6.935-21.086-6.106
			c-3.171-3.168-7.813-4.764-12.241-4.06c-6.433-4.876-14.593-7.284-22.63-6.529c-8.037,0.754-15.742,4.617-21.154,10.606
			C373.207,37.117,368.136,40.38,365.767,44.283z"/>
		<path style="fill:#FFFFFF;" d="M727.463,81.834H623.666c7.198-5.396,15.651-8.089,24.595-7.123
			c3.699-3.696,9.113-5.556,14.277-4.736c7.503-5.688,17.022-8.496,26.396-7.616c9.374,0.88,18.361,5.386,24.675,12.37
			C718.785,73.475,724.701,77.281,727.463,81.834z"/>
		<path style="fill:#FFFFFF;" d="M480.106,136.103h66.498c-3.849-4.673-10.433-7.133-16.296-5.625
			c-5.449-5.013-12.697-7.938-20.102-7.913c-7.404,0.026-14.761,2.939-20.175,7.99C486.294,129.173,481.757,132.475,480.106,136.103
			z"/>
		<path style="fill:#FFFFFF;" d="M114.523,63.185H72.241c5.442-4.396,12.864-6.68,19.697-5.175c3.074-2.476,7.459-3.799,11.34-3.08
			S112.54,59.772,114.523,63.185z"/>
		<path style="fill:#FFFFFF;" d="M531.596,158.308h42.281c-5.442-4.396-12.864-6.68-19.697-5.175
			c-3.074-2.476-7.459-3.799-11.34-3.08C538.96,150.772,533.578,154.895,531.596,158.308z"/>
		<path style="fill:#FFFFFF;" d="M85.652,31.141H19.154c3.849-4.673,10.433-7.133,16.296-5.625
			c5.449-5.013,12.697-7.938,20.101-7.913c7.404,0.026,14.761,2.939,20.175,7.99C79.464,24.211,84.001,27.514,85.652,31.141z"/>
	</g>
</g>
</svg>
