<?xml version="1.0" encoding="utf-8"?>
<!-- Generator: Adobe Illustrator 27.5.0, SVG Export Plug-In . SVG Version: 6.00 Build 0)  -->
<svg version="1.1" xmlns="http://www.w3.org/2000/svg" xmlns:xlink="http://www.w3.org/1999/xlink" x="0px" y="0px"
	 viewBox="0 0 750 500" style="enable-background:new 0 0 750 500;" xml:space="preserve">
<g id="BACKGROUND">
	<rect style="fill:#FFFFFF;" width="750" height="500"/>
	<g>
		
			<line style="fill:none;stroke:#E6E7E8;stroke-width:0.5;stroke-linecap:round;stroke-miterlimit:10;stroke-dasharray:1,2;" x1="24.574" y1="0" x2="24.574" y2="498.004"/>
		
			<line style="fill:none;stroke:#E6E7E8;stroke-width:0.5;stroke-linecap:round;stroke-miterlimit:10;stroke-dasharray:1,2;" x1="58.208" y1="0" x2="58.208" y2="498.004"/>
		
			<line style="fill:none;stroke:#E6E7E8;stroke-width:0.5;stroke-linecap:round;stroke-miterlimit:10;stroke-dasharray:1,2;" x1="91.841" y1="0" x2="91.841" y2="498.004"/>
		
			<line style="fill:none;stroke:#E6E7E8;stroke-width:0.5;stroke-linecap:round;stroke-miterlimit:10;stroke-dasharray:1,2;" x1="125.474" y1="0" x2="125.474" y2="498.004"/>
		
			<line style="fill:none;stroke:#E6E7E8;stroke-width:0.5;stroke-linecap:round;stroke-miterlimit:10;stroke-dasharray:1,2;" x1="159.108" y1="0" x2="159.108" y2="498.004"/>
		
			<line style="fill:none;stroke:#E6E7E8;stroke-width:0.5;stroke-linecap:round;stroke-miterlimit:10;stroke-dasharray:1,2;" x1="192.741" y1="0" x2="192.741" y2="498.004"/>
		
			<line style="fill:none;stroke:#E6E7E8;stroke-width:0.5;stroke-linecap:round;stroke-miterlimit:10;stroke-dasharray:1,2;" x1="226.374" y1="0" x2="226.374" y2="498.004"/>
		
			<line style="fill:none;stroke:#E6E7E8;stroke-width:0.5;stroke-linecap:round;stroke-miterlimit:10;stroke-dasharray:1,2;" x1="260.008" y1="0" x2="260.008" y2="498.004"/>
		
			<line style="fill:none;stroke:#E6E7E8;stroke-width:0.5;stroke-linecap:round;stroke-miterlimit:10;stroke-dasharray:1,2;" x1="293.641" y1="0" x2="293.641" y2="498.004"/>
		
			<line style="fill:none;stroke:#E6E7E8;stroke-width:0.5;stroke-linecap:round;stroke-miterlimit:10;stroke-dasharray:1,2;" x1="327.274" y1="0" x2="327.274" y2="498.004"/>
		
			<line style="fill:none;stroke:#E6E7E8;stroke-width:0.5;stroke-linecap:round;stroke-miterlimit:10;stroke-dasharray:1,2;" x1="360.908" y1="0" x2="360.908" y2="498.004"/>
		
			<line style="fill:none;stroke:#E6E7E8;stroke-width:0.5;stroke-linecap:round;stroke-miterlimit:10;stroke-dasharray:1,2;" x1="394.541" y1="0" x2="394.541" y2="498.004"/>
		
			<line style="fill:none;stroke:#E6E7E8;stroke-width:0.5;stroke-linecap:round;stroke-miterlimit:10;stroke-dasharray:1,2;" x1="428.174" y1="0" x2="428.174" y2="498.004"/>
		
			<line style="fill:none;stroke:#E6E7E8;stroke-width:0.5;stroke-linecap:round;stroke-miterlimit:10;stroke-dasharray:1,2;" x1="461.808" y1="0" x2="461.808" y2="498.004"/>
		
			<line style="fill:none;stroke:#E6E7E8;stroke-width:0.5;stroke-linecap:round;stroke-miterlimit:10;stroke-dasharray:1,2;" x1="495.441" y1="0" x2="495.441" y2="498.004"/>
		
			<line style="fill:none;stroke:#E6E7E8;stroke-width:0.5;stroke-linecap:round;stroke-miterlimit:10;stroke-dasharray:1,2;" x1="529.074" y1="0" x2="529.074" y2="498.004"/>
		
			<line style="fill:none;stroke:#E6E7E8;stroke-width:0.5;stroke-linecap:round;stroke-miterlimit:10;stroke-dasharray:1,2;" x1="562.708" y1="0" x2="562.708" y2="498.004"/>
		
			<line style="fill:none;stroke:#E6E7E8;stroke-width:0.5;stroke-linecap:round;stroke-miterlimit:10;stroke-dasharray:1,2;" x1="596.341" y1="0" x2="596.341" y2="498.004"/>
		
			<line style="fill:none;stroke:#E6E7E8;stroke-width:0.5;stroke-linecap:round;stroke-miterlimit:10;stroke-dasharray:1,2;" x1="629.974" y1="0" x2="629.974" y2="498.004"/>
		
			<line style="fill:none;stroke:#E6E7E8;stroke-width:0.5;stroke-linecap:round;stroke-miterlimit:10;stroke-dasharray:1,2;" x1="663.608" y1="0" x2="663.608" y2="498.004"/>
		
			<line style="fill:none;stroke:#E6E7E8;stroke-width:0.5;stroke-linecap:round;stroke-miterlimit:10;stroke-dasharray:1,2;" x1="697.241" y1="0" x2="697.241" y2="498.004"/>
		
			<line style="fill:none;stroke:#E6E7E8;stroke-width:0.5;stroke-linecap:round;stroke-miterlimit:10;stroke-dasharray:1,2;" x1="730.874" y1="0" x2="730.874" y2="498.004"/>
		
			<line style="fill:none;stroke:#E6E7E8;stroke-width:0.6136;stroke-linecap:round;stroke-miterlimit:10;stroke-dasharray:1.2272,2.4544;" x1="750" y1="30.385" x2="0" y2="30.385"/>
		
			<line style="fill:none;stroke:#E6E7E8;stroke-width:0.6136;stroke-linecap:round;stroke-miterlimit:10;stroke-dasharray:1.2272,2.4544;" x1="750" y1="64.019" x2="0" y2="64.019"/>
		
			<line style="fill:none;stroke:#E6E7E8;stroke-width:0.6136;stroke-linecap:round;stroke-miterlimit:10;stroke-dasharray:1.2272,2.4544;" x1="750" y1="97.652" x2="0" y2="97.652"/>
		
			<line style="fill:none;stroke:#E6E7E8;stroke-width:0.6136;stroke-linecap:round;stroke-miterlimit:10;stroke-dasharray:1.2272,2.4544;" x1="750" y1="131.285" x2="0" y2="131.285"/>
		
			<line style="fill:none;stroke:#E6E7E8;stroke-width:0.6136;stroke-linecap:round;stroke-miterlimit:10;stroke-dasharray:1.2272,2.4544;" x1="750" y1="164.918" x2="0" y2="164.918"/>
		
			<line style="fill:none;stroke:#E6E7E8;stroke-width:0.6136;stroke-linecap:round;stroke-miterlimit:10;stroke-dasharray:1.2272,2.4544;" x1="750" y1="198.552" x2="0" y2="198.552"/>
		
			<line style="fill:none;stroke:#E6E7E8;stroke-width:0.6136;stroke-linecap:round;stroke-miterlimit:10;stroke-dasharray:1.2272,2.4544;" x1="750" y1="232.185" x2="0" y2="232.185"/>
		
			<line style="fill:none;stroke:#E6E7E8;stroke-width:0.6136;stroke-linecap:round;stroke-miterlimit:10;stroke-dasharray:1.2272,2.4544;" x1="750" y1="265.819" x2="0" y2="265.819"/>
		
			<line style="fill:none;stroke:#E6E7E8;stroke-width:0.6136;stroke-linecap:round;stroke-miterlimit:10;stroke-dasharray:1.2272,2.4544;" x1="750" y1="299.452" x2="0" y2="299.452"/>
		
			<line style="fill:none;stroke:#E6E7E8;stroke-width:0.6136;stroke-linecap:round;stroke-miterlimit:10;stroke-dasharray:1.2272,2.4544;" x1="750" y1="333.085" x2="0" y2="333.085"/>
		
			<line style="fill:none;stroke:#E6E7E8;stroke-width:0.6136;stroke-linecap:round;stroke-miterlimit:10;stroke-dasharray:1.2272,2.4544;" x1="750" y1="366.719" x2="0" y2="366.719"/>
		
			<line style="fill:none;stroke:#E6E7E8;stroke-width:0.6136;stroke-linecap:round;stroke-miterlimit:10;stroke-dasharray:1.2272,2.4544;" x1="750" y1="400.352" x2="0" y2="400.352"/>
		
			<line style="fill:none;stroke:#E6E7E8;stroke-width:0.6136;stroke-linecap:round;stroke-miterlimit:10;stroke-dasharray:1.2272,2.4544;" x1="750" y1="433.985" x2="0" y2="433.985"/>
		
			<line style="fill:none;stroke:#E6E7E8;stroke-width:0.6136;stroke-linecap:round;stroke-miterlimit:10;stroke-dasharray:1.2272,2.4544;" x1="750" y1="467.619" x2="0" y2="467.619"/>
	</g>
</g>
<g id="OBJECTS">
	
		<text id="XMLID_423_" transform="matrix(1 0 0 1 225.9597 49.2461)" style="fill:#231F20; font-family:'Poppins-Bold'; font-size:22.5343px;">Flat Maps infographics</text>
	<g>
		<rect x="226.119" y="60.905" style="fill:none;" width="297.762" height="12.458"/>
		<text transform="matrix(1 0 0 1 265.1207 65.8336)" style="fill:#939598; font-family:'Poppins-Regular'; font-size:6.6607px;">Lorem ipsum dolor sit amet consectetuer adipiscing</text>
	</g>
	<g>
		<path style="fill:#F9C80E;" d="M405.249,261.748c-3.941,2.666-9.093,3.463-13.656,2.111c-0.512-0.15-1.068-0.37-1.301-0.853
			c-0.351-0.722,0.209-1.537,0.311-2.334c0.29-2.288-2.967-3.275-4.005-5.333c-0.411-0.813-0.443-1.757-0.512-2.664
			c-0.633-8.05-4.826-15.303-8.359-22.565c-0.255-0.528-0.515-1.102-0.408-1.682c0.107-0.577,0.77-1.076,1.285-0.791
			c-0.384,1.368,0.456,2.964,1.8,3.423c0.614-2.342,0.947-5.419-1.151-6.623c-0.714-0.41-1.569-0.483-2.393-0.523
			c-3.24-0.161-6.497,0.021-9.697,0.542c-0.536,0.086-1.121,0.174-1.585-0.102c-0.413-0.244-0.625-0.714-0.915-1.097
			c-0.786-1.052-2.881-1.623-3.994-0.705c-1.234,1.019-0.292,3.235-2.656,3.544c-1.341,0.174-2.626-0.515-3.801-1.183
			c-1.258-0.714-2.543-1.451-3.46-2.567c-0.325-0.4-0.612-0.848-1.046-1.121c-0.837-0.526-1.913-0.241-2.9-0.252
			c-0.987-0.008-2.192-0.727-1.926-1.676c0.083-0.295,0.298-0.531,0.467-0.789c1.242-1.905-0.402-4.617-2.567-5.306
			c-2.167-0.689-4.506-0.003-6.677,0.681c-3.251,1.027-6.505,2.055-9.759,3.079c-1.229,0.389-2.516,0.781-3.785,0.55
			c-1.086-0.199-2.227-0.842-3.219-0.36c-1.346,0.655-1.129,2.661-1.942,3.919c-0.778,1.202-2.436,1.588-3.238,2.776
			c-0.928,1.376-0.376,3.214-0.472,4.871c-0.19,3.195-2.816,5.62-5.126,7.838c-2.31,2.216-4.654,5.105-4.061,8.251
			c0.182,0.966,0.638,1.878,0.706,2.857c0.054,0.813-0.161,1.615-0.376,2.398c-0.676,2.476-1.352,4.952-2.031,7.428
			c2.272,4.016,4.785,7.897,7.522,11.612c1.349,1.832,2.782,3.654,4.651,4.949c1.867,1.298,4.252,2.022,6.451,1.438
			c0.984-0.263,1.905-0.775,2.918-0.88c1.414-0.147,2.803,0.518,4.22,0.456c1.655-0.07,3.093-1.103,4.423-2.09
			c1.33-0.987,2.776-2.009,4.431-2.057c1.658-0.048,3.441,1.39,3.09,3.007c-0.078,0.354-0.249,0.706-0.198,1.065
			c0.107,0.77,1.105,1.035,1.872,0.931c0.77-0.105,1.591-0.389,2.288-0.048c0.949,0.467,1.057,1.805,0.743,2.817
			c-0.427,1.371-1.344,2.527-1.953,3.825c-0.609,1.301-0.861,2.948,0.005,4.091c0.448,0.593,1.129,0.958,1.684,1.451
			c0.926,0.818,1.478,1.974,1.926,3.125c1.926,4.925,2.352,10.416,1.282,15.59c-0.475,2.285-1.929,4.15-2.387,6.261
			c-0.515,2.382,1.384,5.043,2.497,6.982c1.698,2.953,2.704,6.304,2.918,9.702c0.083,1.355,0.059,2.774,0.679,3.981
			c0.467,0.904,1.25,1.596,1.897,2.382c2.473,3.018,2.784,7.205,2.988,11.103c0.521,0.695,1.596,0.687,2.382,0.319
			c0.786-0.37,1.419-1.006,2.183-1.416c1.918-1.03,4.262-0.494,6.424-0.738c3.723-0.421,6.991-3.495,7.634-7.186
			c0.18-1.025,0.182-2.1,0.625-3.039c0.663-1.416,2.256-2.377,2.47-3.927c0.083-0.614-0.07-1.253,0.064-1.859
			c0.424-1.913,3.35-2.513,3.602-4.458c0.123-0.934-0.448-1.795-0.81-2.664c-1.076-2.581-0.169-5.84,2.082-7.495
			c0.842-0.62,1.827-1.022,2.685-1.618c4.136-2.87,4.045-9.096,2.302-13.82c-0.681-1.843-1.556-3.704-1.43-5.665
			c0.083-1.293,0.601-2.519,1.204-3.664c1.516-2.881,3.616-5.453,6.135-7.513c1.642-1.341,3.527-2.548,4.464-4.45
			c0.574-1.161,0.735-2.484,1.183-3.699c0.816-2.216,2.522-3.959,3.852-5.907C405.131,266.437,406.118,263.942,405.249,261.748z
			 M381.128,309.715c-0.113,0.81-1.025,1.569-1.725,1.148c-0.027-2.165-0.491-4.297-0.955-6.414
			c-0.223-1.014-0.445-2.028-0.668-3.039c-0.102-0.472-0.247-0.998-0.668-1.226c-0.303-0.164-0.689-0.137-0.966-0.338
			c-0.416-0.303-0.386-0.955-0.732-1.339c-0.451-0.499-1.296-0.322-1.867-0.679c-0.566-0.354-0.7-1.105-0.778-1.77l-0.861-7.331
			c-0.032-0.282-0.062-0.59,0.088-0.834c0.166-0.271,0.499-0.376,0.797-0.488c1.28-0.486,2.363-1.475,2.956-2.709
			c0.252-0.526,0.424-1.094,0.767-1.564c1.247-1.69,2.918-1.186,3.061,0.472c0.198,2.304-0.716,2.012-2.007,2.822
			c-0.99,0.62-2.693,1.663-3.375,2.696c-1.027,1.559-0.115,1.996,0.593,3.511c0.655,1.406,0.03,3.297,1.06,4.458
			c0.665,0.754,1.784,0.888,2.634,1.427c1.328,0.842,1.819,2.546,1.907,4.112c0.089,1.569-0.115,3.171,0.279,4.692
			C380.873,308.117,381.241,308.905,381.128,309.715z"/>
		<path style="fill:#F9C80E;" d="M394.004,313.059c-0.843,1.543,0.88,3.332,0.741,5.085c-0.143,1.796-2.155,2.924-2.565,4.678
			c-0.169,0.722-0.046,1.479,0.122,2.202c0.321,1.385,0.803,2.732,1.435,4.005c0.203,0.41,0.428,0.82,0.762,1.132
			c1.031,0.964,2.811,0.64,3.812-0.354c1.001-0.994,1.387-2.445,1.597-3.841c0.21-1.396,0.293-2.836,0.849-4.134
			c0.808-1.887,2.602-3.48,2.5-5.53c-0.051-1.024-0.587-1.956-0.823-2.954c-0.237-0.998-0.036-2.266,0.899-2.686
			c0.101,0.655,0.203,1.309,0.304,1.964c2.657-0.83-0.601-9.609-3.486-5.167c-1.175,1.809-0.012,3.027-2.345,3.962
			C396.547,311.926,394.763,311.672,394.004,313.059z"/>
		<path style="fill:#F86624;" d="M596.081,156.558c-0.07-0.297-0.306-0.533-0.542-0.743c-1.601-1.47-3.385-2.738-5.3-3.752
			c1.207-0.105,2.458-0.219,3.534-0.796c1.076-0.568,1.942-1.723,1.784-2.93c-0.271-2.064-3.193-3.262-2.895-5.318
			c0.14-0.927,0.945-1.863,0.507-2.694c-0.306-0.569-1.041-0.717-1.688-0.805c-3.376-0.455-6.752-0.91-10.137-1.356
			c0.149,1.286-0.21,2.72-1.251,3.499c-1.05,0.77-2.816,0.516-3.315-0.682c-0.166-0.42-0.184-0.91-0.472-1.268
			c-0.604-0.77-1.819-0.324-2.746,0.035c-1.985,0.77-4.26,0.77-6.245-0.009c-0.385-0.158-0.805-0.367-0.962-0.752
			c-0.236-0.568,0.157-1.189,0.193-1.802c0.052-1.05-1.032-1.863-2.082-1.959c-1.041-0.088-2.055,0.332-3.061,0.656
			c-2.913,0.945-6.367,1.067-8.764-0.84c-0.708-0.56-1.294-1.277-2.055-1.758c-1.076-0.682-2.397-0.822-3.665-0.953
			c-3.263-0.332-6.516-0.665-9.779-0.997c-0.315-0.035-0.673-0.053-0.936,0.131c-0.42,0.306-0.35,0.945-0.49,1.443
			c-0.262,0.971-1.365,1.478-2.362,1.548c-1.006,0.07-2.02-0.166-3.017-0.053c-0.743,0.079-1.469,0.359-2.213,0.315
			c-0.752-0.044-1.566-0.568-1.548-1.312c-0.936,0.586-1.557,1.653-1.592,2.764c-1.898,0.21-4.286-1.146-3.875-3.018
			c0.114-0.481,0.394-0.91,0.437-1.399c0.254-3.044-7.268-3.717-8.965-2.405c-0.464,0.359-0.822,0.84-1.26,1.224
			c-1.845,1.609-5.152,0.971-6.271-1.216c-2.659-0.332-5.362-0.315-8.029,0.035c-1.085-1.837-3.901-0.971-5.703,0.175
			c-1.802,1.146-4.426,2.274-5.799,0.638c4.548-1.032,8.86-3.096,12.525-5.982c0.367-0.289,0.77-0.682,0.682-1.155
			c-0.053-0.324-0.332-0.551-0.604-0.743c-1.688-1.172-3.761-1.793-5.816-1.741c-1.504,0.035-3.289,0.306-4.242-0.848
			c-0.595-0.708-0.656-1.802-1.382-2.388c-0.691-0.56-1.679-0.429-2.554-0.28c-1.933,0.35-3.875,0.7-5.808,1.05
			c-0.297,0.052-0.63,0.122-0.84,0.341c-0.271,0.297-0.254,0.752-0.28,1.163c-0.166,2.554-3.376,4.356-5.65,3.166
			c-0.709-0.376-1.312-0.971-2.082-1.207c-0.971-0.289-2.012,0.044-2.965,0.376c-4.015,1.391-8.02,2.781-12.026,4.172
			c1.076,0.735,2.484,0.971,3.743,0.638c0.376,0.674-0.603,1.268-1.356,1.426c-3.061,0.638-6.114,1.277-9.175,1.907
			c1.749,1.329,3.446,2.738,5.073,4.216c0.787-0.551,1.531,0.883,1.233,1.802c-0.289,0.918-0.84,2.055-0.14,2.711
			c-0.936-0.315-1.741-1.006-2.195-1.898c0.49-0.358,0.962-0.726,1.452-1.093c-1.067,0.219-2.239-0.481-2.563-1.522
			c-1.951-0.376-3.813-1.216-5.379-2.44c-0.315,0.735,0.114,1.697,0.875,1.968c-0.717,0.096-1.443,0.184-2.16,0.271
			c0.236,1.12,1.242,2.029,2.379,2.16c-1.434,0.367-3.035,0.026-4.207-0.883c1.067-1.609-0.499-4.163-2.423-3.936
			c1.102,0.149,1.286,1.732,0.805,2.729c-0.49,1.006-1.347,1.907-1.329,3.018c0.018,1.364,1.286,3,0.227,3.866
			c1.286,1.076,3.682-0.883,4.758,0.394c0.332,0.402,0.367,0.953,0.507,1.452c0.42,1.496,2.064,2.536,3.595,2.274
			c-0.883,1.399-2.982,0.017-3.945-1.33c-0.953-1.347-3.105-2.685-3.936-1.259c-0.271,0.472-0.219,1.041-0.219,1.574
			c-0.052,3.892-4.618,6.98-8.248,5.572c1.382-1.706,4.627-1.032,5.685-2.948c0.429-0.787,0.315-1.749,0.184-2.633
			c-0.428-2.886-0.848-5.773-1.277-8.659c0.254-1.329,0.35-2.694,0.289-4.041c-1.522,0.533-3.971,0.464-3.918-1.146
			c-1.295,2.143-2.589,4.277-3.883,6.42c-0.787,1.286-1.382,3.315-0.035,3.988c0.901-0.367,1.95,0.394,2.204,1.338
			c0.262,0.936-0.07,1.933-0.498,2.808c-1.942-5.37-11.764-2.895-14.318-8.003c-1.172,0.455-0.105,2.257,1.076,2.685
			c1.19,0.428,2.816,1.189,2.379,2.37c-0.332,0.927-1.609,0.927-2.589,0.857c-2.834-0.201-5.729,0.455-8.213,1.854
			c-0.219-0.997-0.446-1.986-0.665-2.974c-2.064,1.461-4.137,2.921-6.201,4.391c-1.006,0.708-2.073,1.443-3.297,1.574
			c-1.224,0.123-2.633-0.612-2.79-1.828c-0.158-1.225,1.618-2.292,2.405-1.347c0.341-2.239-2.72-4.111-4.557-2.781
			c1.216,2.064,1.251,4.776,0.07,6.866c-0.437,0.778-1.111,1.513-1.985,1.653c-0.883,0.131-1.898-0.63-1.714-1.504
			c-1.12,0.988-1.749,2.501-1.671,3.988c-1.819,0.595-3.988-0.114-5.117-1.671c0.14,0.866,0.28,1.723,0.42,2.589
			c-1.312,1.408-4.181,0.394-4.312-1.531c-0.035-0.568,0.114-1.128,0.114-1.697c0-1.942-1.714-3.385-3.271-4.548
			c2.327,0.883,4.671,1.767,6.997,2.65c1.312,0.499,2.711,1.006,4.085,0.743c2.012-0.385,3.306-3.087,1.522-4.487
			c-3.21-2.51-6.91-4.399-10.828-5.528c-1.128-0.324-2.335-0.586-3.446-0.227c-0.91,0.289-2.125,0.866-2.615,0.052
			c0.91,0.131,1.889-0.219,2.51-0.91c-1.898-0.42-3.822-0.691-5.764-0.787c-2.239,1.986-3.761,4.802-3.114,7.636
			c0.997,4.364,6.665,8.02,4.592,11.983c1.95-0.437,3.988-0.866,5.921-0.376c1.041,0.254,2.047,0.866,2.729,1.688
			c-0.009-0.044,0-0.087,0.009-0.131c0.577-0.192,1.198-0.394,1.793-0.227c0.586,0.158,1.067,0.848,0.77,1.391
			c-0.201,0.376-0.726,0.691-0.542,1.076c0.122,0.245,0.446,0.28,0.7,0.359c0.717,0.219,1.12,1.146,0.787,1.819
			c-1.032-0.061-2.064-0.114-3.096-0.158c-0.35,0.752-0.822,1.469-1.155,2.222c-1.391,3.14-0.376,6.743-0.262,10.172
			c0.053,1.758-0.35,3.717-1.224,5.239c0.21-0.044,0.42-0.088,0.63-0.123c3.892-0.665,8.335,0.324,10.723,3.472
			c2.379,3.149,1.583,8.563-2.073,10.041c-1.391,0.56-3.009,0.542-4.277,1.338c-0.516,0.315-0.901,0.875-1.076,1.461
			c2.362-1.338,4.793-2.624,7.461-3.122c-0.586,1.259-1.749,2.222-3.088,2.554c0.446,0.289,0.297,1.041-0.149,1.329
			c-0.446,0.289-1.032,0.236-1.548,0.131c-0.525-0.105-1.067-0.245-1.583-0.114c-0.455,0.114-0.814,0.464-0.988,0.892
			c-0.087,0.192-0.131,0.402-0.131,0.612c0,0.149,0.026,0.28,0.07,0.42c1.356-1.137,3.525-1.172,4.907-0.061
			c0.534,0.429,0.953,0.988,1.522,1.373c0.63,0.42,1.452,0.612,1.933,1.207c0.472,0.604,0.14,1.811-0.603,1.653
			c-0.026,0.376,0.367,0.647,0.735,0.717c0.367,0.07,0.77,0.044,1.102,0.21c0.77,0.402,0.63,1.644-0.044,2.187
			c-0.673,0.542-1.609,0.586-2.475,0.595c-2.274,0.035-4.627,0.053-6.708-0.875c-0.98-0.429-1.863-1.067-2.878-1.426
			c-1.006-0.359-2.23-0.394-3.053,0.297c-0.385,0.324-0.638,0.778-1.006,1.128c-0.883,0.848-2.379,0.962-3.376,0.254
			c-0.822-0.595-1.224-1.697-1.032-2.694c-0.945,0.953-1.749,2.055-2.327,3.254c0.499,1.417,0.997,2.851,1.496,4.268
			c0.166,0.464,0.324,0.918,0.49,1.373c0.481,1.391,1.268,3.018,2.729,3.114c1.854,0.122,3.708-2.396,5.178-0.122
			c0.28,0.437,0.367,0.962,0.367,1.487c-0.009,1.032,1.408,2.327,2.169,1.522c-0.087-0.743-0.166-1.539,0.175-2.213
			c0.341-0.665,1.277-1.076,1.872-0.612c0.402,0.315,0.481,0.883,0.507,1.382c0.035,0.743,0,1.496-0.096,2.23
			c-0.227,1.758-0.927,3.586-2.414,4.531c-1.163,0.735-2.825,1.259-1.88,2.816c0.219,0.341,1.102-0.052,1.347,0.28
			c0.551,0.77,0.166,1.583,0.245,2.493c0.149,1.933,2.344,2.904,3.542,4.426c1.662,2.099,1.312,5.108,2.134,7.662
			c1.671,5.222,8.248,8.572,7.881,14.038c-0.149,2.125-1.189,4.793,0.56,6.018c1.172,0.813,2.773,0.236,4.067-0.367
			c2.423-1.12,4.854-2.248,7.286-3.376c0.988-0.455,2.038-0.971,2.545-1.942c0.263-0.507,0.35-1.102,0.717-1.539
			c0.542-0.639,1.478-0.726,2.274-0.988c1.793-0.604,2.991-2.292,3.892-3.962c0.971-1.811,1.732-3.735,2.274-5.72
			c0.14-0.525,0.271-1.076,0.14-1.609c-0.472-1.933-3.857-2.117-4.032-4.102c-0.07-0.831,0.507-1.566,0.778-2.353
			c0.271-0.787-0.026-1.95-0.857-1.942c-0.499,1.469-1.041,3-2.152,4.076c-1.12,1.085-3.009,1.539-4.233,0.586
			c-0.91-0.7-1.207-1.915-1.828-2.878c-0.945-1.487-2.659-2.388-3.481-3.945c-0.822-1.557,0.385-4.181,2.012-3.507
			c0.796,2.948,2.816,5.536,5.493,7.023c1.653-0.56,3.245-1.312,4.732-2.239c0.743-0.595,1.723,0.516,1.802,1.461
			c0.079,0.953-0.07,2.108,0.7,2.659c0.394,0.289,0.918,0.306,1.408,0.306c4.006,0,8.003-0.464,11.895-1.382
			c-0.796,2.327,1.347,5.125,3.805,4.951c-0.297,0.953-1.251,1.662-2.248,1.671c0.481,0.936,0.988,1.915,1.846,2.545
			c0.857,0.621,2.16,0.761,2.913,0.017c0.708-0.691,0.805-1.977,1.723-2.361c1.067-0.446,2.125,0.892,2.038,2.047
			c-0.087,1.155-0.813,2.143-1.198,3.236c-0.778,2.23-0.052,4.679,0.665,6.927c1.391,4.338,2.834,8.79,5.677,12.359
			c1.023-0.962,2.047-1.915,3.07-2.878c1.382,0.236,1.426,2.222,0.988,3.542c-0.446,1.338-0.857,3.131,0.341,3.857
			c1.076,0.647,2.519-0.394,2.755-1.618c0.236-1.233-0.324-2.449-0.866-3.577c-0.709-1.443-1.408-2.895-2.108-4.347
			c-0.245-0.499-0.499-1.032-0.455-1.592c0.035-0.481,0.271-0.91,0.472-1.347c0.63-1.408,0.831-3.017,0.551-4.539
			c3.752-1.907,6.892-5.003,8.825-8.746c0.297-0.56,0.577-1.155,1.093-1.531c1.539-1.12,4.128,0.455,5.493-0.883
			c1.898,0.709,3.499,2.16,4.4,3.98c0.656,1.33,1.268,3.096,2.746,3.21c-2.265,0.927-3.805,3.394-3.63,5.834
			c2.283,0.577,4.802-1.583,4.574-3.918c0.892-0.507,2.073,0.114,2.545,1.023c0.472,0.91,0.42,1.994,0.359,3.009
			c-0.175,3.088-0.359,6.166-0.534,9.245c-0.052,0.918-0.087,1.907,0.42,2.668c0.481,0.717,1.391,1.12,1.723,1.924
			c0.499,1.181-0.498,2.668,0.149,3.778c0.35,0.586,1.041,0.848,1.574,1.259c1.137,0.875,1.522,2.405,2.344,3.586
			c0.822,1.181,2.72,1.951,3.612,0.822c-1.898-1.487-3.114-3.814-3.236-6.228c-0.026-0.551-0.009-1.128-0.236-1.627
			c-0.28-0.63-0.883-1.041-1.391-1.504c-2.974-2.72-2.607-7.417-2.003-11.405c1.382,2.02,3.595,3.446,6.009,3.866
			c-0.779,1.601-0.105,3.743,1.443,4.618c0.105-1.566,1.277-3,2.79-3.411c0.656-0.184,1.356-0.192,1.977-0.464
			c1.863-0.805,2.064-3.324,1.968-5.344c-0.035-0.796-0.079-1.627-0.507-2.292c-0.717-1.093-2.169-1.347-3.306-1.994
			c-2.038-1.155-3.035-3.875-2.213-6.079c0.813-2.195,3.341-3.612,5.641-3.149c0.761,0.332,0.42,1.539-0.245,2.038
			c-0.665,0.499-1.574,0.796-1.88,1.574c-0.437,1.067,0.857,2.257,1.986,2.012c1.128-0.236,1.854-1.434,1.933-2.589
			c0.07-1.154-0.35-2.274-0.77-3.359c2.431,0.533,5.108-0.324,6.779-2.16c0.472-0.516,0.892-1.12,1.496-1.469
			c1.181-0.691,2.869-0.315,3.84-1.286c0.743-0.743,0.691-1.933,0.918-2.956c0.429-1.907,1.898-3.367,2.773-5.108
			c0.857-1.741,1.714-4.417,1.251-6.341c-0.332-1.399-1.058-2.668-1.557-4.015c-0.359-0.953-0.603-1.942-0.735-2.956
			c-0.052-0.411-0.087-0.866,0.105-1.233c0.341-0.656,1.181-0.813,1.811-1.198c0.936-0.577,1.426-1.793,1.146-2.851
			c-2.598,0.866-5.641,0.21-7.644-1.662c0.577-1.12,1.863-1.644,2.974-2.239c1.12-0.586,2.283-1.548,2.23-2.816
			c0.708,0,1.408,0,2.108-0.009c0.052,1.154-0.49,2.318-1.399,3.026c0.962,0.831,2.405,0.044,3.542-0.551
			c1.128-0.595,3.017-0.595,3.157,0.673c0.131,1.216-1.714,2.038-1.461,3.236c1.294-0.437,2.676,1.286,1.977,2.458
			c-0.192,0.315-0.499,0.621-0.446,0.988c0.061,0.446,0.586,0.621,0.98,0.84c1.093,0.577,1.566,2.082,1.006,3.184
			c0.761-0.595,1.522-1.181,2.283-1.775c0.175,0.7,0.962,1.172,1.671,1.015c0.7-0.166,1.19-0.953,1.032-1.653
			c-0.149-0.691-0.787-1.172-0.997-1.837c-0.315-1.006,0.402-2.125,0.052-3.122c-0.271-0.778-1.102-1.19-1.776-1.679
			c-0.673-0.49-1.277-1.373-0.875-2.099c0.245-0.446,0.77-0.63,1.198-0.892c2.143-1.329,2.598-5.117,5.117-5.204
			c0.507-0.018,1.006,0.14,1.504,0.07c1.434-0.201,1.933-1.942,2.606-3.227c1.487-2.86,4.951-4.251,6.516-7.076
			c1.198-2.169,1.058-4.819,1.767-7.207c0.516-1.732,1.496-3.534,0.892-5.239c-0.752-2.125-4.19-2.545-5.432-0.656
			c0.201-1.067,0.402-2.134,0.612-3.21c-0.752,2.423-5.747,0.236-1.399-2.134c2.904-1.574,5.501-3.735,7.592-6.289
			c0.708-0.866,1.382-1.802,2.309-2.432c3.42-2.309,8.125,0.551,12.131-0.455c0.14,0.394,0.271,0.787,0.411,1.181
			c-1.076,0.446-2.143,0.901-3.21,1.347c2.257,1.058,4.688-1.452,7.181-1.347c0.726,0.026,1.776,0.035,1.819-0.682
			c-0.674-0.105-1.539-0.472-1.417-1.137c0.044-0.245,0.219-0.437,0.394-0.612c0.647-0.691,1.303-1.373,1.959-2.064
			c1.093-1.155,2.86-2.379,4.111-1.382c0.945,0.761,0.507,2.589-0.682,2.843c0.778,0.778,2.099,0.07,2.878-0.717
			c0.778-0.778,1.784-1.723,2.816-1.321c0.289-0.577,0.289-1.286,0.017-1.863c0.831-0.464,1.854-0.569,2.755-0.289
			c-0.551,0.464-0.927,1.137-1.041,1.854c-0.079,0.464-0.044,0.936-0.184,1.382c-0.499,1.662-2.72,1.854-4.286,2.615
			c-2.764,1.338-3.726,4.881-6.21,6.674c-0.612,0.446-1.303,0.778-1.811,1.338c-1.093,1.207-0.953,3.088-0.446,4.636
			c0.525,1.548,1.356,3.035,1.452,4.662c0.018,0.306,0.009,0.612-0.018,0.91c-0.114,1.085,1.216,1.688,1.977,0.918
			c0.184-0.192,0.367-0.376,0.551-0.56c0.883-0.91,1.802-1.846,2.248-3.035c0.306-0.84,0.446-1.863,1.224-2.3
			c0.568-0.324,1.277-0.184,1.924-0.297c0.647-0.105,1.338-0.761,1.015-1.338c-1.058-0.752-0.875-2.65,0.297-3.201
			c0.49,0.227,0.98,0.464,1.469,0.7c1.163-0.534-0.595-2.44,0.044-3.551c0.245-0.429,0.831-0.691,0.813-1.181
			c-0.017-0.612-0.883-0.717-1.487-0.621c-0.402-1.985,0.971-4.163,2.93-4.653c-0.035,0.411-0.07,0.831-0.105,1.242
			c0.971-0.612,1.942-1.225,2.912-1.846c0.175,0.472,0.341,0.945,0.507,1.426c1.163,0.604,2.073-2.047,3.28-1.557
			c0.263,0.114,0.437,0.35,0.656,0.525c0.866,0.709,2.423,0.166,2.659-0.927c0.901-4.146,5.939-4.338,10.163-4.688
			C594.953,157.948,596.309,157.52,596.081,156.558z M409.572,207.173c-0.708,0.638-1.732,0.813-2.676,0.665
			c-0.227,0.192-0.061,0.586,0.193,0.743c0.254,0.157,0.568,0.201,0.787,0.411c0.394,0.376,0.236,1.023,0.297,1.557
			c0.114,0.875,0.857,1.539,1.058,2.388c0.359,1.531-1.294,2.939-2.869,2.948c-3.289,0.026-5.598-2.641-6.446-5.51
			c-0.49-1.636-1.426-6.087,1.093-6.341c-0.761-0.997,0.035-2.099-0.437-3.166c-0.262-0.577-0.91-0.857-1.347-1.321
			c-0.875-0.927-0.743-2.493,0-3.533c0.743-1.041,1.933-1.653,3.123-2.117c1.163-0.455,2.475-0.805,3.621-0.332
			c1.155,0.472,1.846,2.108,0.988,3.009c-0.927,0.971-2.825,0.411-3.674,1.461c-0.534,0.647-0.35,1.67,0.184,2.318
			c0.542,0.647,1.347,1.006,2.125,1.312c0.437,0.175,0.91,0.376,1.085,0.805c0.271,0.638-0.28,1.286-0.63,1.88
			c-0.341,0.603-0.271,1.653,0.42,1.653c0.673-0.009,0.778-0.962,1.154-1.522c0.525-0.787,1.88-0.665,2.405,0.131
			C410.543,205.398,410.272,206.544,409.572,207.173z M491.675,176.587c-0.149,0.289-0.332,0.577-0.428,0.892
			c-0.105,0.35-0.105,0.726-0.192,1.076c-0.262,1.049-1.233,1.732-2.108,2.37c-0.612,0.437-1.216,0.927-1.583,1.583
			c-0.149,0.271-0.254,0.569-0.42,0.84c-0.866,1.461-3.464,1.758-1.828-0.28c1.006-1.268,2.51-3.131,3.761-4.233
			c0.429-0.376,0.953-0.691,1.242-1.181c0.472-0.805,0.21-1.811,0.245-2.738c0.026-0.927,0.735-2.038,1.627-1.775
			C492.322,174.269,492.209,175.529,491.675,176.587z M379.834,160.441c0.009,0.096,0.009,0.192,0,0.297
			c-0.026,0.359-0.105,0.7-0.219,1.032c0.14,0.009,0.271,0.009,0.376,0C380.201,161.324,380.07,160.887,379.834,160.441z
			 M373.003,182.631c1.662-0.122,2.904-1.172,3.726-2.615C375.155,180.392,373.607,181.161,373.003,182.631z"/>
		<path style="fill:#A0C261;" d="M386.009,193.406c-1.391,0.56-3.009,0.542-4.277,1.338c-0.516,0.315-0.901,0.875-1.076,1.461
			c-0.21,0.114-0.42,0.236-0.63,0.35c-3.691,2.099-2.309-2.519-5.764-2.493c-3.367,0.026-2.397,5.668-3.901,5.169
			c-0.385,0.857,0.245,1.881-0.026,2.781c-0.096,0.315-0.289,0.586-0.428,0.883c-0.087,0.184-0.149,0.376-0.184,0.577
			c-0.945,0.953-1.749,2.055-2.327,3.254c-0.044-0.131-0.087-0.254-0.131-0.385c-0.822-0.813-2.326,0.052-2.589,1.172
			c-0.262,1.12,0.227,2.265,0.56,3.367c0.332,1.102,0.446,2.449-0.376,3.262c-0.429,0.428-1.128,0.726-0.507,1.706
			c0.219,0.359,0.656,0.499,1.076,0.437c0.892-0.131,1.653,1.522,0.778,1.574c-1.609,0.192-2.79-1.496-3.297-3.044
			c-0.499-1.539-0.848-3.332-2.204-4.225c-0.665-0.437-1.566-0.647-1.889-1.373c-0.542-1.216,1.032-2.641,0.455-3.84
			c-0.568-1.172-2.475-0.743-3.464-1.609c-0.831-0.743-0.717-2.169-1.522-2.93c-0.411-0.394-0.98-0.542-1.504-0.743
			c-1.662-0.638-3.035-1.968-3.726-3.604c-0.953,0.175-0.813,1.592-0.359,2.449c1.749,3.271,4.531,5.982,7.846,7.653
			c-1.076,0.542-1.609,1.767-2.047,2.895c-0.674,1.679-1.338,3.367-2.003,5.055c-1.014-0.122-2.073-0.271-2.886-0.883
			c-0.813-0.612-1.251-1.863-0.647-2.676c1.111,1.076,3.262,0.691,3.927-0.7c0.665-1.408-0.385-3.315-1.924-3.49
			c0.647-1.837-1.417-3.446-3.236-4.137c-1.819-0.691-4.05-1.565-4.268-3.498c-0.831-0.743-2.169-0.367-3.07,0.28
			c-0.901,0.656-1.653,1.557-2.712,1.915c-1.049,0.359-2.545-0.245-2.484-1.356c-0.542,0.472-1.085,0.936-1.627,1.408
			c1.233,0.35,0.533,2.327-0.604,2.913c-1.137,0.577-2.685,0.945-2.965,2.195c-0.114,0.499,0.035,1.023,0.026,1.548
			c-0.009,0.787-0.376,1.531-0.735,2.239c-0.892,1.741-2.038,3.682-3.962,4.041c-1.128,0.21-2.851,0.332-2.694,1.461
			c-1.627-1.417-3.901-2.073-6.035-1.732c0.131-0.997,0.262-1.994,0.385-2.983c-0.735-0.114-1.478-0.219-2.213-0.324
			c1.137-1.574,1.548-3.665,1.093-5.554c-0.254-1.058-0.56-2.545,0.464-2.921c-0.551-0.49-0.953-1.146-1.155-1.863
			c1.531-0.673,3.315-0.743,4.907-0.21c0.691,0.227,1.347,0.568,2.047,0.778c1.977,0.595,4.356-0.07,5.493-1.784
			c1.137-1.723,0.665-4.399-1.146-5.388c-0.953-0.516-2.108-0.56-3.044-1.12c-0.918-0.56-1.399-2.099-0.472-2.65
			c0.761,1.163,2.51,1.522,3.665,0.761c-0.542-0.927-0.779-2.021-0.673-3.088c0.848-0.35,1.942,0.455,1.837,1.373
			c1.504,0.035,2.974-0.997,3.455-2.423c0.175-0.49,0.245-1.032,0.586-1.434c0.455-0.533,1.242-0.612,1.898-0.857
			c1.627-0.612,2.589-2.598,2.055-4.242c2.099-0.971,4.443-1.408,6.743-1.277c-0.813-1.504-1.653-3.105-1.574-4.819
			c0.079-1.706,1.469-3.472,3.166-3.315c0.262,0.997,0.245,2.064-0.035,3.061c0.499,0.114,0.988,0.219,1.487,0.332
			c-1.076,0.892-2.169,2.615-1.05,3.455c0.892,0.665,2.169-0.192,3.262,0.035c0.499,0.105,0.927,0.437,1.417,0.551
			c2.213,0.551,4.356-3.088,6.227-1.784c0.63,0.437,0.883,1.329,1.959,1.198c0.595-0.079,1.111-0.455,1.4-0.98
			c0.621-1.076,0.42-2.318,0.542-3.507c0.105-1.032,0.604-2.178,1.609-2.449c1.102-0.297,2.16,0.612,3.297,0.735
			c1.916,0.219,3.42-2.414,2.257-3.954c-1.452,1.111-3.315,1.662-5.143,1.513c-0.542-0.945,0.586-1.968,1.574-2.414
			c3.402-1.513,7.259-1.977,10.924-1.312c0.656-0.612-0.289-1.574-1.093-1.959c-0.805-0.376-1.697-1.408-1.006-1.968
			c-2.414-0.971-4.531,2.414-7.137,2.536c-2.668,0.131-4.216-3.437-3.227-5.921c0.997-2.475,3.472-3.988,5.79-5.318
			c-1.531-2.405-5.536-2.598-7.286-0.35c0.219,1.837-0.525,3.761-1.924,4.968c-1.443,1.242-3.796,2.379-3.306,4.225
			c0.429,1.618,3.009,2.396,2.659,4.041c-0.315,1.513-2.79,1.531-3.376,2.956c-0.42,1.041,0.394,2.318-0.105,3.324
			c-0.507,1.015-1.951,1.05-2.86,1.732c-0.621,0.464-0.971,1.198-1.539,1.723c-0.577,0.516-1.618,0.717-2.038,0.061
			c-0.411-0.647,0.131-1.443,0.429-2.152c0.91-2.09-0.402-4.417-1.671-6.315c-2.572-0.21-3.901,4.653-6.289,3.665
			c-0.673-0.28-1.067-0.962-1.408-1.609c-0.945-1.749-1.898-3.533-2.257-5.493c-0.35-1.959-0.009-4.146,1.365-5.58
			c1.828-1.907,4.898-2.02,6.927-3.7c2.274-1.88,2.825-5.37,5.265-7.023c1.461-0.988,3.7-1.522,3.875-3.28
			c-1.609,0.131-3.219,0.262-4.828,0.394c0.735-1.347,2.475-2.047,3.927-1.583c-0.603-1.295,0.892-2.685,2.318-2.886
			c1.426-0.192,2.921,0.219,4.294-0.192c1.12-0.341,2.012-1.172,3.088-1.636c0.927-0.402,1.959-0.499,2.974-0.551
			c1.137-0.052,2.283-0.052,3.42,0c-2.239,1.986-3.761,4.802-3.114,7.636c0.997,4.364,6.665,8.02,4.592,11.983
			c1.95-0.437,3.988-0.866,5.921-0.376c1.041,0.254,2.047,0.866,2.729,1.688c-0.096,0.761,0.525,1.478,0.883,2.187
			c0.009,0.096,0.009,0.192,0,0.297c-0.026,0.359-0.105,0.7-0.219,1.032c-1.679-0.061-5.624-0.875-3.735,1.88
			c0.84-0.997,1.233-0.359,2.204-0.464c0.402-0.044,0.778-0.464,0.63-0.84c0.219,0.009,0.437,0.018,0.656,0.035
			c-0.35,0.752-0.822,1.469-1.155,2.222c-1.391,3.14-0.376,6.743-0.262,10.172c0.053,1.758-0.35,3.717-1.224,5.239
			c0.21-0.044,0.42-0.088,0.63-0.123c3.892-0.665,8.335,0.324,10.723,3.472C390.461,186.514,389.665,191.928,386.009,193.406z"/>
		<path style="fill:#A0C261;" d="M313.314,178.381c-0.006,0.969,0.928,1.845,0.67,2.779c-0.255,0.923-1.562,1.342-1.618,2.298
			c-0.063,1.068,1.424,1.453,2.473,1.24c1.938-0.394,3.703-1.574,4.81-3.213c0.541-0.802,0.753-2.178-0.16-2.497
			c1.251-0.439,2.501-0.878,3.752-1.318c0.982,0.838,2.038,2.248,1.228,3.253c-0.523,0.648-1.753,1.096-1.382,1.842
			c0.151,0.304,0.553,0.456,0.624,0.789c0.075,0.351-0.259,0.638-0.534,0.869c-1.184,0.994-1.881,2.543-1.838,4.089
			c1.778-1.642,4.223-2.538,6.641-2.434c0.566,0.024,1.198,0.081,1.631-0.284c0.432-0.365,0.241-1.306-0.317-1.215
			c0.677-0.486,1.354-0.972,2.031-1.459c0.153-0.11,0.312-0.228,0.387-0.4c0.175-0.405-0.219-0.846-0.636-0.988
			c-0.418-0.142-0.884-0.121-1.283-0.308c-0.883-0.414-1.031-1.569-1.336-2.495c-0.304-0.926-1.39-1.865-2.138-1.24
			c0.188-0.89,0.371-1.845,0.02-2.684c-0.351-0.839-1.471-1.41-2.203-0.869c-0.423-0.627,0.557-1.207,1.071-1.762
			c0.56-0.604,0.549-1.654-0.034-2.236c-0.583-0.581-1.649-0.58-2.219,0.014c0.078-1.714,0.441-3.824,2.076-4.346
			c0.449-0.144,0.938-0.135,1.384-0.287c0.446-0.153,0.872-0.561,0.799-1.027c0.078,0.545,0.959,0.574,1.286,0.131
			c0.327-0.443,0.258-1.054,0.175-1.598c-1.272-0.365-1.822,1.779-3.083,2.184c-0.58,0.186-1.243-0.035-1.805,0.2
			c-1.331,0.557-0.973,3.034-2.364,3.419c-0.329,0.091-0.692,0.029-1.006,0.164c-0.633,0.272-0.703,1.147-0.549,1.819
			c0.154,0.672,0.426,1.395,0.135,2.02c-0.16,0.343-0.488,0.684-0.355,1.038c0.175,0.468,0.863,0.342,1.335,0.509
			c1.187,0.421,0.539,1.816-0.076,2.366c-0.77,0.688-2.068,0.508-2.976,0.382C316.566,176.934,313.331,175.743,313.314,178.381z"/>
		<path style="fill:#A0C261;" d="M343.056,206.202c-0.161-0.134-0.323-0.268-0.484-0.402c0.502-0.12,0.837-0.641,0.866-1.157
			c0.029-0.516-0.192-1.016-0.481-1.443c-0.347-0.514-0.948-0.996-1.534-0.794c-0.745,0.257-0.757,1.314-0.507,2.061
			c0.25,0.747,0.603,1.62,0.149,2.264c0.278-0.066,0.588,0.023,0.789,0.227c-1.084,0.696-1.339,2.908,0.263,3.038
			c1.598,0.129,1.912-1.924,0.296-2.297C342.444,207.598,343.073,206.216,343.056,206.202z"/>
		<path style="fill:#F86624;" d="M524.371,223.523c0.089-0.863,0.179-1.868,0.908-2.339c0.234,0.598,0.672,1.114,1.224,1.441
			c0.498-0.287,0.769-0.837,1.059-1.333c0.29-0.496,0.686-1.006,1.253-1.099s1.205,0.54,0.907,1.031
			c1.481,0.585,2.465-1.573,3.839-2.378c0.725-0.424,1.605-0.456,2.419-0.664c0.814-0.208,1.673-0.727,1.788-1.559
			c0.067-0.486-0.139-0.969-0.155-1.459c-0.034-1.047,0.768-1.903,1.284-2.815c0.901-1.592,0.942-3.637,0.107-5.264
			c-0.453-0.882-1.148-1.659-1.372-2.625c-0.224-0.966,0.336-2.226,1.327-2.212c0.274,0.843,0.642,1.788,1.47,2.103
			c0.828,0.315,1.938-0.738,1.338-1.391c0.931-0.256,1.909-0.342,2.87-0.25c0.406-0.598,0.309-1.484-0.216-1.98
			c3.039-1.06,5.654-3.151,7.659-5.669c-2.77,1.721-5.539,3.442-8.309,5.162c-0.328,0.204-0.719,0.415-1.079,0.277
			c-0.328-0.125-0.487-0.486-0.653-0.796c-0.746-1.4-2.314-2.32-3.899-2.288c0.129,1.324,0.257,2.648,0.386,3.972
			c-0.943-0.172-1.799,0.715-2.017,1.649s0,1.906,0.079,2.861c0.278,3.359-1.311,6.813-4.044,8.786
			c-0.011-0.543-0.022-1.085-0.033-1.628c-1.444,0.211-0.783,2.905-2.082,3.567c-0.366,0.187-0.799,0.151-1.207,0.194
			c-2.036,0.214-2.003,2.307-4.204,1.473c-0.218,2.672-3.614,2.201-3.369,4.891C521.854,225.455,523.996,227.189,524.371,223.523z"
			/>
		<path style="fill:#F86624;" d="M542.221,181.244c0.036,0.193,0.071,0.391,0.041,0.586c-0.058,0.373-0.345,0.671-0.45,1.033
			c-0.183,0.631,0.224,1.282,0.698,1.736c0.473,0.455,1.047,0.836,1.349,1.419c0.506,0.975,0.146,2.308,0.872,3.132
			c-0.226,0.56-1.076,0.39-1.567,0.039c-0.492-0.351-1.097-0.811-1.628-0.523c-0.625,0.901-0.278,2.142,0.216,3.122
			c0.494,0.979,1.135,1.98,1.036,3.072c-0.046,0.514-0.436,1.108-0.938,0.988c-0.193-0.046-0.346-0.189-0.489-0.327
			c-0.676-0.652-1.39-1.377-1.517-2.307c-0.093-0.677,0.145-1.35,0.315-2.012c0.35-1.365,0.418-2.801,0.198-4.193
			c-0.094-0.597-0.241-1.193-0.219-1.797c0.041-1.12,0.632-2.365-0.021-3.277c-0.204-0.285-0.532-0.602-0.379-0.916
			c0.279-0.572,1.519-1.647,1.958-2.097C541.979,179.649,542.076,180.459,542.221,181.244z"/>
		<path style="fill:#F86624;" d="M471.561,275.937c0.915,0.674,2.055,1.157,2.59,2.16c0.413,0.774,0.413,1.782,1.049,2.386
			c0.341,0.323,0.815,0.475,1.161,0.793c0.809,0.745,0.63,2.053,1.019,3.081c0.552,1.457,2.251,2.322,2.573,3.847
			c0.11,0.521,0.047,1.084,0.273,1.566c0.432,0.92,1.672,1.115,2.365,1.858c0.341,0.366,0.53,0.847,0.823,1.253
			c0.827,1.147,2.545,1.536,3.786,0.857c-0.441-0.676-0.69-1.476-0.708-2.283c-0.011-0.476,0.056-0.958-0.035-1.425
			c-0.22-1.13-1.298-1.924-1.596-3.036c0.506-0.371,1.168,0.174,1.546,0.675s1.01,1.065,1.537,0.726
			c-0.961-1.256-2.058-2.408-3.266-3.428c0.095,0.457-0.519,0.794-0.957,0.635c-0.438-0.16-0.702-0.596-0.931-1.003
			c-0.172-0.306-0.35-0.636-0.318-0.985c0.027-0.292,0.198-0.553,0.25-0.841c0.109-0.605-0.326-1.18-0.822-1.544
			c-0.496-0.363-1.082-0.609-1.515-1.046c-0.862-0.872-1.008-2.385-2.087-2.969c-0.515-0.279-1.145-0.276-1.667-0.542
			c-1.624-0.829-1.936-3.232-3.792-3.973C470.204,271.644,469.648,274.527,471.561,275.937z"/>
		<path style="fill:#F86624;" d="M487.804,294.127c-0.386,0.539-0.773,1.078-1.159,1.617c-0.084,0.117-0.171,0.244-0.17,0.388
			c0.003,0.401,0.576,0.46,0.974,0.405c1.256-0.173,2.544-0.109,3.776,0.187c2.08,0.499,4.059,1.656,6.195,1.522
			c0.324-0.02,0.65-0.071,0.97-0.023c0.346,0.052,0.665,0.215,1,0.315c0.776,0.23,1.65,0.101,2.326-0.344
			c-0.574-0.555-1.474-0.514-2.27-0.573c-0.796-0.059-1.743-0.423-1.839-1.216c-0.026-0.215,0.018-0.437-0.036-0.647
			c-0.115-0.446-0.627-0.668-1.087-0.695c-0.46-0.027-0.926,0.076-1.378-0.011c-0.764-0.146-1.347-0.853-2.105-0.958
			c-0.766-0.106-1.104,0.477-1.722,0.506C490.003,294.661,488.996,292.464,487.804,294.127z"/>
		<path style="fill:#F86624;" d="M505.869,298.652c0.67,0.014,1.326,0.542,1.954,0.31c0.159-0.059,0.304-0.164,0.473-0.179
			c0.209-0.018,0.4,0.106,0.59,0.194c1.84,0.849,3.953-1.575,5.84-0.838c-0.44,1.79-2.807,2.355-3.738,3.946
			c1.605-0.235,3.117-1.053,4.193-2.267c0.293-0.33,0.561-0.695,0.933-0.931c0.214-0.136,0.454-0.224,0.666-0.362
			c0.497-0.324,0.797-0.927,0.755-1.519c-0.548-0.013-1.098,0.122-1.578,0.387c-0.355,0.196-0.682,0.466-1.078,0.557
			c-0.66,0.151-1.314-0.23-1.984-0.325c-1.415-0.2-2.776,1.273-4.065,1.029c-0.505-0.096-0.769-0.668-1.415-0.831
			c-0.522-0.131-1.353,0.093-1.944,0.009c-0.66-0.094-2.02-0.763-2.518-0.06C501.487,299.845,505.506,298.645,505.869,298.652z"/>
		<path style="fill:#F86624;" d="M505.51,300.616c0.284-0.317,0.828-0.118,1.108,0.202c0.28,0.32,0.456,0.744,0.818,0.968
			c0.363,0.225,0.873,0.177,1.187-0.112c0.185-0.17,0.303-0.445,0.207-0.678c-0.096-0.236-0.363-0.345-0.604-0.43
			c-0.234-0.082-0.469-0.165-0.703-0.247c-0.41-0.145-0.84-0.291-1.272-0.232c-0.431,0.059-0.858,0.394-0.865,0.829"/>
		<path style="fill:#F86624;" d="M494.026,288.197c-0.773,0.082-1.786,0.15-2.086-0.568c-0.176-0.423,0.023-0.9,0.034-1.357
			c0.019-0.751-0.465-1.406-0.811-2.073c-0.607-1.167-0.825-2.531-0.613-3.828c0.054-0.329,0.142-0.669,0.371-0.91
			c0.146-0.154,0.337-0.255,0.524-0.353c0.72-0.378,1.439-0.756,2.159-1.134c0.943-0.495,1.887-0.991,2.772-1.583
			c2.208-1.477,4.015-3.547,5.179-5.936c0.403-0.428,1.149-0.026,1.418,0.497c0.269,0.523,0.337,1.165,0.751,1.582
			c0.636,0.64,2.025,0.782,1.919,1.678c-0.042,0.354-0.342,0.61-0.588,0.869c-0.861,0.907-1.217,2.265-0.912,3.478
			c0.306,1.213,1.264,2.24,2.452,2.63c-1.089,0.105-2.491,0.53-2.495,1.624c-0.002,0.688,0.609,1.415,0.232,1.991
			c-0.393,0.6-1.445,0.319-1.91,0.865c-0.374,0.438-0.141,1.096-0.062,1.666c0.197,1.426-0.908,2.905-2.331,3.12
			c-0.6,0.091-1.301-0.072-1.604-0.598c-0.159-0.276-0.184-0.609-0.314-0.9c-0.523-1.17-1.305-0.466-2.075-0.477
			C495.501,288.471,494.745,288.121,494.026,288.197z"/>
		<path style="fill:#F86624;" d="M515.244,279.821c0.127-0.043,0.255-0.085,0.382-0.128c-0.272-0.18-0.64-0.123-0.905,0.065
			c-0.265,0.189-0.454,0.464-0.671,0.707c-0.752,0.84-1.911,1.297-3.034,1.197c-0.706-0.063-1.41-0.331-2.105-0.197
			c-0.854,0.165-1.499,0.927-1.752,1.759c-0.128,0.419-0.006,1.057,0.431,1.022c0.243-0.748,0.923-1.298,1.673-1.536
			c0.75-0.238,1.561-0.199,2.335-0.059c0.607,0.109,1.22,0.28,1.831,0.2c0.612-0.08,1.237-0.499,1.31-1.112
			c0.053-0.444-0.184-0.921,0.006-1.326c0.165-0.352,0.633-0.665,0.449-1.007C514.994,279.444,515.444,279.782,515.244,279.821z"/>
		<path style="fill:#F86624;" d="M505.844,289.704c0.281,1.265,0.873,2.587,0.414,3.799c0.509,0.231,1.119-0.2,1.291-0.731
			c0.172-0.531,0.037-1.107-0.094-1.65c-0.132-0.543-0.257-1.123-0.069-1.649c0.043-0.121,0.119-0.25,0.245-0.278
			c0.062-0.014,0.127,0,0.188,0.018c0.689,0.197,1.161,0.853,1.378,1.536c0.217,0.683,0.232,1.411,0.33,2.121
			c0.061,0.443,0.184,0.926,0.555,1.175c0.612,0.41,1.483-0.138,1.713-0.838c0.23-0.7,0.044-1.457-0.054-2.187
			c-0.137-1.013-0.212-2.235-1.109-2.725c-0.369-0.202-0.884-0.293-1.003-0.696c-0.143-0.483,0.431-0.857,0.915-1
			c0.44-0.129,0.891-0.223,1.346-0.279c0.543-0.067,1.247-0.221,1.302-0.765c0.057-0.566-0.658-0.848-1.218-0.943
			c-0.675-0.115-1.361-0.229-2.04-0.142c-0.679,0.088-1.361,0.41-1.72,0.993c-0.076,0.123-0.147,0.265-0.28,0.32
			c-0.188,0.077-0.399-0.063-0.51-0.233c-0.111-0.17-0.167-0.374-0.295-0.532C505.664,283.208,505.735,289.212,505.844,289.704z"/>
		<path style="fill:#F86624;" d="M518.044,288.438c-0.746-0.176-1.536-0.158-2.273,0.052c-0.133,0.038-0.289,0.112-0.295,0.25
			c-0.007,0.148,0.16,0.236,0.303,0.274c0.708,0.193,1.488,0.112,2.141-0.223c-0.099-0.291-0.484-0.443-0.755-0.296"/>
		<path style="fill:#F86624;" d="M521.245,288.045c-0.374-0.192-0.862-0.137-1.183,0.134c-0.322,0.271-0.458,0.742-0.332,1.143
			c0.745,0.189,1.5-0.692,2.212-0.401c0.467,0.191,0.704,0.833,1.208,0.86c0.429,0.023,0.733-0.58,0.459-0.911
			c-0.231-0.28-0.671-0.277-0.95-0.508c-0.508-0.421-0.193-1.236,0.154-1.797c-0.567-0.123-0.991,0.542-1.065,1.117
			c-0.033,0.253-0.037,0.519-0.155,0.746c-0.117,0.227-0.398,0.397-0.63,0.29"/>
		<path style="fill:#F86624;" d="M518.073,284.54c-0.008,0.207-0.013,0.424,0.082,0.609c0.094,0.185,0.323,0.318,0.513,0.234
			c0.143-0.063,0.215-0.22,0.275-0.365c0.193-0.465,0.385-0.999,0.169-1.453c-0.097-0.204-0.27-0.37-0.345-0.584
			c-0.222-0.636,0.549-0.983,1.044-0.933c-0.117-0.805-0.802-0.235-0.804-1.11c0-0.133,1.511-0.711,0.254-0.922
			C517.62,279.739,518.113,283.472,518.073,284.54z"/>
		<path style="fill:#F86624;" d="M524.875,283.539c-0.758,0.058-1.589,0.037-2.184-0.437c-0.562,0.467-0.193,1.44,0.425,1.828
			c0.619,0.389,1.391,0.457,2.033,0.806c0.642,0.35,1.124,1.236,0.658,1.798c0.514,0.133,1.028,0.267,1.541,0.4
			c0.119,0.483-0.429,0.831-0.844,1.105c-0.415,0.274-0.752,0.95-0.32,1.197c0.2,0.429,0.84,0.359,1.256,0.133
			c0.416-0.227,0.861-0.553,1.313-0.415c0.294,0.09,0.493,0.355,0.709,0.575c0.909,0.925,2.294,1.148,3.459,1.718
			c1.165,0.57,2.217,1.952,1.587,3.085c-0.239,0.429-0.669,0.712-0.993,1.08s-0.538,0.936-0.259,1.34
			c1.024,0.07,2.07-0.257,2.872-0.898c0.824,0.883,1.798,1.707,2.979,1.964c1.181,0.256,2.593-0.229,3.054-1.345
			c0.091-0.221,0.153-0.472,0.338-0.625c0.26-0.213,0.643-0.142,0.966-0.051c0.993,0.28,1.963,0.64,2.898,1.076
			c0.179,0.083,0.369,0.182,0.453,0.36c0.122,0.258-0.027,0.554-0.067,0.836c-0.148,1.047,1.145,1.651,2.187,1.835
			c1.411,0.25,2.844,0.379,4.277,0.386c0.048-0.719-0.728-1.21-1.431-1.368s-1.492-0.18-2.026-0.663
			c-0.63-0.569-0.689-1.598-1.35-2.13c-0.496-0.399-1.37-0.663-1.236-1.285c0.144-0.667,1.315-0.579,1.54-1.223
			c0.139-0.398-0.208-0.82-0.602-0.969c-0.394-0.149-0.831-0.122-1.245-0.201c-1.036-0.196-1.888-1.125-1.994-2.174
			c-0.04-0.397,0.013-0.816-0.148-1.181c-0.244-0.552-0.882-0.793-1.457-0.978c-3.058-0.986-6.116-1.972-9.174-2.958
			c-0.439-0.142-0.917-0.283-1.352-0.131c-1.174,0.411-1.092,2.521-2.316,2.744c-0.635,0.116-1.197-0.392-1.642-0.858
			c-0.437-0.457-1.065-1.115-1.121-1.784c-0.039-0.46,0.431-0.861,0.386-1.267C527.871,283.304,526.081,283.447,524.875,283.539z"/>
		<path style="fill:#EA3546;" d="M548.656,293.185c0.086,0.135,0.251,0.193,0.405,0.236c1.274,0.351,2.678,0.207,3.854-0.397
			c0.379-0.194,0.749-0.439,1.172-0.484c0.277-0.029,0.558,0.031,0.835,0.001c0.277-0.029,0.576-0.188,0.628-0.462
			c0.051-0.269-0.146-0.579,0.013-0.802c0.166-0.233,0.574-0.142,0.758-0.362c0.205-0.244-0.04-0.6-0.272-0.82
			c-0.944-0.891-1.861-1.853-2.87-2.661c-0.09,1.274,0.839,2.741-0.157,3.832C552.445,291.9,548.355,292.715,548.656,293.185z"/>
		<path style="fill:#EA3546;" d="M561.186,297.159c0.464,0.153,0.955,0.223,1.408,0.405c0.454,0.182,0.887,0.51,1.022,0.98
			c-0.002-0.021-0.004-0.043-0.007-0.064c-0.16-1.252-1.433-2.034-2.562-2.624c-0.148-0.077-0.305-0.163-0.384-0.311
			C560.614,295.452,559.104,296.47,561.186,297.159z"/>
		<path style="fill:#EA3546;" d="M574.46,321.384c-0.114-0.519-0.296-1.038-0.64-1.443c-0.344-0.405-0.876-0.68-1.403-0.608
			c-0.452,0.992,0.333,2.124,1.233,2.74c0.634,0.433,1.353,0.71,2.067,0.955C574.816,323.18,574.61,322.071,574.46,321.384z"/>
		<path style="fill:#EA3546;" d="M577.422,312.33c0.418,1.016,0.72,2.08,0.897,3.164c0.503-0.287,0.644-1.053,0.276-1.5
			c0.36,0.32,0.364,0.866,0.447,1.341c0.216,1.244,1.203,2.32,2.424,2.641c0.188-0.365,0.033-0.824-0.23-1.14
			c-0.263-0.316-0.619-0.539-0.917-0.822c-0.561-0.534-0.904-1.291-0.934-2.064c-0.027-0.697,0.1-1.581-0.511-1.918
			c-0.106,0.302-0.211,0.603-0.317,0.905c-0.175-0.018-0.29-0.191-0.358-0.353c-0.423-1.011,0.005-2.459-0.95-3.193
			c-0.147,0.447-0.433,0.913-0.926,0.973C576.315,311.088,577.138,311.638,577.422,312.33z"/>
		<path style="fill:#EA3546;" d="M565.183,297.482c0.699,0.298,1.597,0.186,2.126,0.732c0.521,0.537,0.409,1.45,0.852,2.054
			c0.208,0.285,0.523,0.474,0.75,0.744s0.35,0.696,0.121,0.965c-0.286,0.336-0.879,0.128-1.099-0.254
			c-0.219-0.382-0.199-0.849-0.253-1.287c-0.054-0.438-0.241-0.923-0.659-1.065c-0.402-0.136-0.935,0.076-1.216-0.242
			c-0.094-0.106-0.131-0.249-0.182-0.382c-0.406-1.076-1.782-1.608-2.021-2.698C564.151,296.47,564.484,297.184,565.183,297.482z"/>
		<path style="fill:#F86624;" d="M524.252,295.684c-0.702,0.597-1.338,1.272-1.892,2.009c0.421,0.207,0.974,0.097,1.285-0.254
			c0.311-0.351,0.352-0.913,0.096-1.306"/>
		<path style="fill:#F86624;" d="M528.902,292.754c0.413,0.311,0.786,0.751,0.8,1.268c0.014,0.517-0.496,1.046-0.987,0.883
			c0.096-0.741,0.191-1.482,0.287-2.222"/>
		<path style="fill:#EA3546;" d="M524.447,303.997c-0.364-0.762-1.435-1.079-2.155-0.637c0.628,0.524,0.688,1.593,0.122,2.184
			c-0.289,0.302-0.689,0.47-1.02,0.725c-1.092,0.844-1.14,2.719-0.091,3.617c-0.507,0.263-1.014,0.526-1.522,0.79
			c-0.356-1.334-1.376-2.473-2.662-2.974c-1.752,1.098-3.056,2.888-3.565,4.891c-0.203,0.035-0.407,0.071-0.61,0.106
			c-0.094,0.592-0.187,1.185-0.28,1.777c-0.451-0.602-0.633-1.397-0.489-2.135c-1.057,0.21-1.653,1.335-1.944,2.373
			c-0.29,1.038-0.464,2.187-1.228,2.947c-0.56,0.557-1.347,0.807-2.102,1.039c-1.159,0.355-2.318,0.711-3.476,1.066
			c-0.956,0.293-1.996,0.65-2.512,1.506c-0.418,0.694-0.686,1.803-1.49,1.706c-0.339-0.041-0.604-0.32-0.935-0.404
			c-0.683-0.172-1.294,0.581-1.323,1.285c-0.03,0.704,0.303,1.365,0.486,2.046c0.183,0.681,0.167,1.52-0.387,1.956
			c0.643,0.039,1.306,0.29,1.686,0.811c0.38,0.521,0.379,1.335-0.111,1.754c-0.489,0.419-1.417,0.18-1.529-0.455
			c1.41,3.842,2.406,7.835,2.966,11.889c0.229,1.657,0.363,3.442-0.441,4.909c1.396,1.052,3.434,1.162,4.936,0.267
			c0.842-0.502,1.507-1.276,2.388-1.706c1.534-0.749,3.395-0.315,5.029-0.81c1.497-0.453,2.715-1.659,4.255-1.93
			c1.162-0.205,2.456,0.132,3.474-0.465c0.481-0.282,0.833-0.742,1.296-1.052c0.518-0.347,1.149-0.488,1.771-0.524
			c2.471-0.141,5.002,1.56,5.559,3.971c0.139,0.603,0.165,1.237,0.402,1.809s0.776,1.087,1.393,1.032
			c0.155-1.889,1.95-3.491,3.844-3.432c0.091,0.608-0.345,1.166-0.808,1.57c-0.463,0.405-1.002,0.772-1.243,1.338
			c-0.241,0.566,0.029,1.396,0.642,1.44c0.311-0.587,0.739-1.112,1.253-1.533c0.964,0.858,0.51,2.748-0.739,3.074
			c1.198-0.355,2.895-0.474,3.296,0.709c0.113,0.335,0.077,0.699,0.111,1.051c0.176,1.828,2.088,2.897,3.763,3.65
			c0.34,0.153,0.705,0.31,1.073,0.248c0.633-0.106,0.971-0.777,1.34-1.303c0.368-0.526,1.123-0.985,1.606-0.562
			c0.418,0.366,0.245,1.089,0.576,1.535c0.448,0.604,1.448,0.281,1.939-0.289c0.491-0.57,0.782-1.334,1.418-1.736
			c1.184-0.747,3.331-0.164,3.681-1.519c0.19-0.737-0.43-1.416-0.632-2.149c-0.316-1.147,0.425-2.318,1.276-3.149
			c0.851-0.832,1.876-1.549,2.381-2.626c0.843-1.8-0.042-3.942,0.298-5.901c0.34-1.966,1.898-3.921,1.082-5.743
			c-0.32-0.715-0.97-1.252-1.239-1.987c-0.26-0.71-0.152-1.572-0.635-2.153c-0.306-0.368-0.785-0.537-1.174-0.817
			c-1.29-0.93-1.325-2.788-1.818-4.3c-0.898-2.754-3.482-4.546-5.269-6.826c-0.33-0.421-0.64-0.874-0.782-1.39
			c-0.165-0.6-0.09-1.236-0.139-1.856c-0.119-1.51-1.028-2.935-2.347-3.679c-0.288-0.162-0.604-0.303-0.806-0.565
			c-0.287-0.372-0.271-0.884-0.286-1.353c-0.056-1.767-0.757-3.507-1.942-4.819c-0.784,3.879-1.568,7.757-2.352,11.636
			c-0.454,0.346-1.008,0.561-1.577,0.612c-0.226-0.991-0.453-1.982-0.679-2.972c-1.118,0.057-2.292,0.104-3.297-0.391
			c-1.004-0.494-1.74-1.727-1.29-2.752c0.245-0.56,0.8-1.183,0.435-1.673c1.001,0.376,1.875-1.249,1.142-2.027
			c-1.154-1.225-2.416,0.551-3.606,0.487C527.355,305.13,526.034,303.064,524.447,303.997z"/>
		<line style="fill:#EA3546;" x1="543.026" y1="317.781" x2="543.408" y2="317.526"/>
		<path style="fill:#EA3546;" d="M545.698,364.479c-0.009,0.287-0.017,0.637,0.229,0.784c0.099,0.059,0.219,0.069,0.334,0.077
			c0.843,0.057,1.906-0.055,2.194-0.849c0.231-0.638-0.207-1.376,0.029-2.012c0.078-0.21,0.222-0.386,0.345-0.573
			c0.307-0.466,0.487-1.051,0.338-1.589s-0.701-0.978-1.25-0.873c-0.3,0.058-0.554,0.259-0.85,0.337
			c-0.949,0.249-3.672-1.782-3.437,0.495c0.074,0.714,1.059,1.275,1.423,1.857C545.489,362.831,545.723,363.656,545.698,364.479z"/>
		<path style="fill:#EA3546;" d="M577.114,368.467c-0.632,0.209-1.326,0.3-1.854,0.704c-0.529,0.404-0.766,1.295-0.25,1.715
			c0.397,0.322,0.988,0.191,1.475,0.347c1.091,0.349,1.19,1.833,1.078,2.973c0.765,0.327,1.595-0.342,2.018-1.058
			c0.423-0.716,0.713-1.576,1.42-2.014c0.461-0.285,1.065-0.363,1.406-0.784c0.48-0.593,0.164-1.481,0.341-2.223
			c0.447-1.861,3.127-2.023,3.843-3.839c0.497-1.262,1.407-3.732-0.086-3.992C582.78,359.644,580.342,367.399,577.114,368.467z"/>
		<path style="fill:#EA3546;" d="M588.841,361.594c-0.001,0.099,0,0.204,0.052,0.287c0.132,0.207,0.459,0.124,0.649-0.031
			c1.093-0.896,0.431-2.808,1.271-3.946c0.277-0.376,0.69-0.623,1.056-0.913c1.174-0.932,1.897-2.409,1.913-3.908
			c-0.541,0.294-1.096,0.593-1.706,0.678c-0.609,0.085-1.294-0.087-1.659-0.583c-0.448-0.61-0.298-1.506-0.722-2.133
			c-0.489-0.722-1.545-0.825-2.133-1.469c-0.539-0.591-0.552-1.47-0.674-2.26c-0.122-0.79-0.53-1.69-1.322-1.799
			c-1.567,1.798,1.511,4.051,1.911,5.585c0.383,1.471-0.375,1.883-0.964,3.118c-0.613,1.285-1.022,2.299,0.197,3.298
			c0.784,0.642,1.431-0.337,2.113,0.852C589.216,359.054,588.849,360.834,588.841,361.594z"/>
		<path style="fill:#F86624;" d="M506.856,253.93c-0.086,0.251-0.174,0.508-0.169,0.774c0.016,0.91,1.066,1.528,1.143,2.435
			c0.031,0.361-0.101,0.718-0.099,1.08c0.002,0.362,0.223,0.781,0.585,0.785c0.313,0.003,0.531-0.293,0.754-0.512
			c0.224-0.219,0.639-0.359,0.814-0.1c0.078,0.115,0.07,0.265,0.057,0.403c-0.096,0.971-0.361,1.924-0.778,2.806
			c0.523,0.208,1.135-0.131,1.425-0.613c0.29-0.482,0.338-1.067,0.378-1.628c0.02-0.279,0.038-0.571-0.074-0.828
			c-0.17-0.387-0.588-0.593-0.863-0.913c-0.512-0.595-0.458-1.503-0.172-2.234c0.286-0.731,0.767-1.374,1.057-2.103
			c0.075-0.19,0.138-0.394,0.109-0.596c-0.031-0.21-0.157-0.39-0.25-0.581c-0.229-0.472-0.254-1.014-0.354-1.529
			C509.542,246.07,507.128,253.139,506.856,253.93z"/>
		<path style="fill:#F86624;" d="M515.472,260.946c0.096,0.835-0.255,1.709-0.902,2.246c-0.146,0.121-0.31,0.231-0.4,0.397
			c-0.308,0.57,0.41,1.113,0.926,1.504c1.623,1.228,1.82,3.93,0.393,5.38c-0.134,0.137-0.283,0.267-0.367,0.439
			c-0.082,0.169-0.094,0.363-0.096,0.551c-0.01,0.852,0.142,1.706,0.446,2.503c-0.845,0.423-1.9-0.275-2.222-1.163
			c-0.322-0.888-0.137-1.868,0.018-2.8c0.058-0.346,0.103-0.732-0.094-1.023c-0.318-0.471-1.09-0.374-1.488,0.031
			c-0.398,0.405-0.533,0.991-0.691,1.536c-0.159,0.545-0.394,1.125-0.891,1.4c-0.378-1.896,1.176-3.943,3.104-4.087
			c0.422-0.032,0.869,0.01,1.246-0.181c0.377-0.192,0.602-0.754,0.29-1.04c-0.368,0.012-0.514-0.478-0.481-0.844
			c0.033-0.366,0.094-0.813-0.203-1.03c-0.304-0.222-0.75,0.008-0.952,0.326c-0.201,0.318-0.265,0.708-0.462,1.029
			c-0.297,0.482-0.903,0.752-1.46,0.65c-0.031-0.839,0.468-1.675,1.221-2.047c-0.669-0.236-1.359-0.618-1.619-1.278
			c-0.261-0.66,0.197-1.592,0.904-1.535c0.252,0.649,0.504,1.298,0.757,1.946c0.548,0.343,1.322-0.002,1.642-0.565
			c0.319-0.563,0.294-1.254,0.204-1.895c0.715,0.366,1.535-0.641,1.242-1.388c-0.168-0.429-0.564-0.726-0.961-0.783
			C515.027,259.682,515.397,260.299,515.472,260.946z"/>
		<path style="fill:#F86624;" d="M408.255,136.869c0.487-0.347,0.117-1.189-0.45-1.379c-0.567-0.19-1.183-0.004-1.781,0.014
			c-0.598,0.018-1.319-0.265-1.383-0.859c-0.019-0.176,0.025-0.353,0.094-0.516c0.417-0.991,1.594-1.386,2.362-2.138
			c1.196-1.17,1.301-3.095,2.35-4.399c1.452-1.803,4.195-1.881,6.055-3.261c0.584-0.433,1.072-0.99,1.679-1.392
			c1.573-1.041,3.613-0.868,5.498-0.918c2.47-0.066,4.927-0.589,7.21-1.534c-0.484,2.289-3.224,3.146-5.492,3.718
			c-1.526,0.385-3.037,0.831-4.528,1.335c-1.897,0.641-3.796,1.397-5.348,2.661c-1.552,1.265-2.73,3.119-2.759,5.121
			c-0.015,1.051,1.242,3.322,0.545,4.136C411.489,138.415,409.151,137.269,408.255,136.869z"/>
		<path style="fill:#F86624;" d="M466.014,110.141c-0.572,0.183-1.143,0.366-1.715,0.549c0.527,0.812,1.618,1.209,2.544,0.925
			c0.969-0.297,1.913-1.246,2.823-0.799c0.236,0.437-0.301,0.871-0.737,1.109c-0.435,0.238-0.899,0.803-0.545,1.151
			c0.086,0.084,0.203,0.127,0.317,0.164c1.995,0.64,4.271,0.096,6.18,0.961c0.601,0.272,1.184,0.687,1.843,0.658
			c0.659-0.029,1.276-0.862,0.821-1.34c-0.297-0.312-0.902-0.317-1.021-0.73c-0.217-0.759,1.572-1.065,1.222-1.773
			c-1.294,0.04-2.587,0.08-3.881,0.12c-0.44,0.014-0.978-0.029-1.168-0.425c-0.108-0.224-0.066-0.509-0.215-0.709
			c-0.182-0.244-0.543-0.238-0.846-0.207c-0.683,0.069-1.367,0.138-2.051,0.207c1.497-0.151,3.456-0.947,4.957-1.311
			C472.55,106.437,466.793,106.709,466.014,110.141z"/>
		<path style="fill:#F86624;" d="M484.089,113.427c-0.032-0.841-1.194-1.21-1.954-0.849c-0.76,0.361-1.218,1.133-1.734,1.798
			c-0.618,0.797-1.368,1.481-2.114,2.161c1.96-0.253,3.919-0.506,5.879-0.758c0.757-0.098,1.665-0.315,1.892-1.044
			c-0.761-0.518-1.649-0.845-2.564-0.946"/>
		<path style="fill:#F86624;" d="M535.48,125.312c0.25-0.15,0.478-0.347,0.757-0.428c1.117-0.324,2.073,1.324,3.205,1.056
			c0.478-0.113,0.816-0.547,1.275-0.722c1.075-0.409,2.273,0.715,3.292,0.022c1.329-0.903,0.757-1.677-0.289-2.085
			c-0.96-0.375-2.447,0.02-3.528-0.29c-0.801-0.23-1.494-0.673-2.253-0.997c-1.783-0.762-4.607-2.038-5.82,0.262
			C531.029,124.196,533.447,126.532,535.48,125.312z"/>
		<path style="fill:#F86624;" d="M551.306,124.75c-0.792-0.648-1.711-1.141-2.689-1.44c-0.139-0.043-0.282-0.082-0.428-0.075
			c-0.521,0.023-0.85,0.671-0.682,1.166c0.167,0.495,0.677,0.805,1.19,0.904c0.513,0.098,1.04,0.026,1.561-0.009
			c1.095-0.075,2.201,0.013,3.271,0.261c0.201-0.685-0.474-1.375-1.181-1.47c-0.708-0.095-1.4,0.217-2.046,0.522"/>
		<path style="fill:#F86624;" d="M541.237,128.732c-0.608-0.291-1.258-0.492-1.923-0.596c-0.353-0.055-0.874,0.089-0.787,0.436
			c0.037,0.149,0.183,0.24,0.318,0.313c0.912,0.495,1.882,0.884,2.884,1.156c0.463,0.126,1.105,0.138,1.261-0.315
			c0.109-0.318-0.122-0.652-0.382-0.865c-0.633-0.519-1.526-0.701-2.311-0.472"/>
		<path style="fill:#A0C261;" d="M346.453,114.386c0.852,0.501,1.887,0.595,2.766,1.046c1.03,0.527,1.789,1.555,1.99,2.694
			c0.123,0.698,0.062,1.465,0.45,2.058c0.563,0.861,1.914,0.922,2.735,0.301c0.82-0.621,1.161-1.713,1.157-2.742
			c-0.004-0.808-0.145-1.746,0.435-2.31c0.249-0.242,0.588-0.361,0.917-0.471c0.643-0.215,1.321-0.425,1.99-0.31
			c0.669,0.114,1.315,0.661,1.301,1.34c-0.017,0.818-0.933,1.577-0.571,2.311c1.294-0.018,2.589-0.036,3.883-0.054
			c0.448-0.453,0.133-1.268-0.396-1.623c-0.529-0.355-1.192-0.435-1.775-0.693c-0.582-0.258-1.13-0.846-0.967-1.462
			c0.245-0.928,1.564-0.811,2.523-0.777c2.556,0.092,4.917-2.318,4.77-4.873c-2.271-0.347-3.393,2.137-5.277,2.786
			c-1.557,0.536-2.41-0.37-3.836-0.236c-1.519,0.143-1.88,1.113-3.054,1.394c-1.824,0.436-3.137-0.467-5.025-0.718
			C348.996,111.85,342.594,112.116,346.453,114.386z"/>
		<path style="fill:#43BCCD;" d="M323.563,103.541c-1.444,2.503-3.891,4.408-6.672,5.194c-1.311,0.371-2.769,0.543-3.758,1.479
			c-0.613,0.58-0.959,1.379-1.288,2.156c-0.649,1.528-1.309,3.102-1.344,4.761c-0.036,1.66,0.7,3.446,2.194,4.17
			c-2.082,1.03-2.286,4.473-0.34,5.742c-0.794,1.982-4.12,0.875-5.69,2.322c-1.219,1.125-0.747,3.14-0.012,4.628
			c0.735,1.487,1.667,3.151,1.075,4.701c-2.232-0.87-4.465-1.741-6.697-2.611c-0.843,1.82,1.58,4.076,3.335,3.106
			c-1.689,3.039-6.195,2.44-9.36,3.878c-3.379,1.535-5.197,5.483-8.613,6.934c-1.681,0.714-3.593,0.745-5.268,1.474
			c-1.675,0.729-3.122,2.662-2.334,4.31c0.156,0.326,0.396,0.647,0.354,1.005c-0.045,0.377-0.383,0.638-0.672,0.884
			c-2.744,2.339-2.775,6.492-2.583,10.092c-0.978,0.732-2.359-0.262-2.897-1.359c-0.539-1.096-0.817-2.442-1.849-3.095
			c-1.028-0.651-2.407-0.34-3.532-0.803c-1.026-0.423-1.683-1.416-2.277-2.354c-1.113-1.758-2.225-3.517-3.338-5.275
			c-0.937-1.481-1.896-3.018-2.157-4.75c-0.262-1.733,0.363-3.727,1.919-4.534c1.099-0.57,2.885-1.432,2.089-2.379
			c-0.178-0.212-0.451-0.313-0.712-0.406c-2.017-0.717-4.034-1.434-6.052-2.151c0.785-2.431,3.602-4.003,6.083-3.394
			c0.914-1.459-1.199-3.061-2.92-3.033c-1.722,0.028-3.641,0.654-5.038-0.353c1.3-1.812,1.232-4.378,0.185-6.347
			c-1.047-1.969-2.933-3.386-4.974-4.286c-0.91-0.401-1.877-0.714-2.871-0.729c-1.571-0.023-3.076,0.698-4.647,0.708
			c-2.224,0.014-4.254-1.428-5.529-3.25c-1.275-1.822-1.928-3.996-2.561-6.128c1.791,0.99,4.153,1.046,5.819-0.144
			c1.666-1.189,2.351-3.693,1.263-5.427c2.264-0.507,4.529-1.014,6.793-1.521c0.573-0.128,1.158-0.262,1.654-0.575
			c0.634-0.401,1.06-1.056,1.634-1.537c1.101-0.922,2.62-1.118,4.047-1.277c3.821-0.425,7.643-0.85,11.464-1.275
			c0.734-0.082,1.489-0.162,2.203,0.028c1.878,0.5,3.581,2.776,5.267,1.808c0.067-0.74-0.154-1.503-0.608-2.091
			c2.149-0.988,4.632-0.685,6.997-0.651c4.766,0.07,9.482-1.033,14.247-1.103c4.676-0.069,9.364,0.873,13.65,2.743
			c-1.434,0.991-3.071,1.686-4.78,2.029c1.116-0.07,2.247,0.123,3.277,0.557c-0.821-0.346-4.534,2.584-5.125,3.112
			c2.02,1.57,6.459-1.679,8.547-2.675C315.114,103.966,319.151,102.889,323.563,103.541z"/>
		<path style="fill:#A0C261;" d="M316.396,154.483c-1.07,0.438-2.07,1.045-2.953,1.791c-0.818,0.692-1.732,1.565-2.783,1.355
			c-1.066-0.214-1.569-1.401-2.037-2.383c-0.468-0.982-1.417-2.04-2.446-1.686c0.559-0.673,1.119-1.347,1.678-2.02
			c-1.333-0.194-2.665-0.388-3.998-0.583c-0.326-0.048-0.681-0.111-0.895-0.361c-0.5-0.584,0.246-1.449,0.983-1.667
			c1.659-0.49,3.486,0.255,4.732,1.455c0.521,0.502,1.184,1.137,1.851,0.855c0.441-0.187,0.629-0.696,0.924-1.073
			c0.707-0.904,2.028-1.023,3.169-0.89c1.926,0.225,5.771-1.187,6.523,1.118C321.987,152.979,317.944,153.849,316.396,154.483z"/>
		<path style="fill:#43BCCD;" d="M150.449,136.737c-5.039,2.097-10.266,4.186-15.723,4.119c-2.366-0.029-4.706-0.465-7.032-0.9
			c-5.057-0.945-10.167-1.906-14.872-3.987c-1.257-0.556-2.52-1.2-3.892-1.284c-1.533-0.094-3.014,0.526-4.39,1.208
			c-4.17,2.069-7.99,4.843-11.248,8.169c3.389,0.533,6.539,2.45,8.57,5.215c-1.601,0.777-3.76,0.063-4.581-1.517
			c-2.15-0.624-4.655,1.076-4.868,3.305c-0.213,2.229,1.925,4.373,4.154,4.167c0.791-1.049,2.014-1.762,3.317-1.932
			c0.614,1.033,1.227,2.067,1.841,3.1c-1.071,1.293-2.954,1.427-4.591,1.797c-1.637,0.371-3.481,1.525-3.292,3.193
			c0.315,2.779,5.651,3.014,5.417,5.8c0.079-0.946,11.11-1.683,5.775,4.65c-0.836,0.992-2.093,1.71-3.385,1.596
			c0.359,1.016,0.278,2.28-0.522,3.003s-2.368,0.462-2.619-0.585c-0.855,1.827-3.211,2.26-5.218,2.458
			c-0.238,0.807-0.476,1.615-0.713,2.422c-0.162-1.007-1.493-1.603-2.362-1.069s-0.951,1.968-0.161,2.613
			c0.735,0.6,1.805,0.455,2.737,0.278c0.348-0.066,0.745-0.169,0.895-0.489c0.092-0.197,0.064-0.425,0.071-0.643
			c0.035-1.06,0.963-1.9,1.954-2.277c0.992-0.376,2.076-0.418,3.109-0.659c1.707-0.398,3.247-1.334,4.613-2.433
			c1.487-1.197,2.825-2.614,4.51-3.509c0.646-0.343,1.335-0.605,1.957-0.99c4.574-2.836,1.657-7.746,8.424-8.59
			c0.096,0.939-0.549,1.9-1.454,2.168c2.168,1.602,4.54-3.442,7.08-2.538c0.716,0.255,1.179,0.936,1.794,1.381
			c1.141,0.825,2.666,0.767,4.068,0.886c5.586,0.475,10.681,4.617,12.287,9.988c2.443-0.721,4.477,1.889,5.693,4.127
			c2.008,3.695,4.015,7.391,6.023,11.086c1.275,2.346,2.561,4.723,3.224,7.31c0.947,3.7,0.566,7.635,1.451,11.35
			c0.885,3.715,3.746,7.495,7.564,7.394c0.619,5.821,2.323,11.525,5,16.731c-1.305,1.324,0.795,3.287,2.58,3.806
			c1.785,0.519,4.136,1.842,3.356,3.53c2.106-2.343-0.575-5.877-3.14-7.708c-2.564-1.831-5.574-4.863-3.969-7.575
			c0.875-0.882,2.407,0.147,2.819,1.319c0.412,1.172,0.375,2.56,1.202,3.486c0.725,0.811,1.898,1.016,2.834,1.571
			c3.392,2.014,2.68,7.736,5.963,9.923c1.199,0.799,2.776,0.985,3.815,1.982c0.747,0.717,1.094,1.741,1.582,2.653
			c1.724,3.223,5.192,5.048,8.461,6.685c0.953,0.477,1.906,0.954,2.86,1.432c5.459,2.733,10.918,5.466,16.377,8.199
			c0.525,0.263,1.131,0.531,1.677,0.315c2.244-0.888-2.339-4.879-0.433-6.358c-2.681-1.293-5.362-2.585-8.043-3.878
			c1.673-1.494,1.895-4.34,0.473-6.075c0.988-0.234,1.808-1.071,2.02-2.064c-1.181-1.228-3.342-0.212-4.259,1.223
			c-0.917,1.436-1.286,3.241-2.522,4.413c-2.798,2.653-7.749-0.162-8.831-3.863c-1.082-3.701,0.156-7.624,0.569-11.458
			c0.167-1.549,0.298-3.314,1.524-4.275c2.804-2.196,6.933,2.435,10.186,0.987c1.246-0.554,1.98-1.88,3.153-2.574
			c2.023-1.196,4.774-0.087,6.175,1.8c1.401,1.887,1.794,4.314,2.146,6.638c0.662,1.086,2.502-0.114,2.399-1.382
			c-0.103-1.268-1.148-2.217-1.837-3.286c-1.76-2.729-0.962-6.789,1.7-8.649c2.366-1.654,6.264-2.301,6.417-5.183
			c0.099-1.863-1.671-3.39-1.744-5.255c-0.064-1.641,1.178-3.007,2.337-4.17c3.276-3.289,6.551-6.578,9.827-9.867
			c0.769-0.772,1.699-1.605,2.782-1.483c1.083,0.122,1.686,1.912,0.656,2.267c3.862,0.149,9.037-0.783,9.347-4.635
			c-1.56,1.368-3.411,2.402-5.394,3.013c-0.206-1.834,0.332-3.742,1.467-5.198c-1.438-2.479-4.88-3.161-7.616-2.308
			s-4.929,2.87-7.023,4.827c3.145-3.711,7.354-6.82,12.186-7.385c1.82-0.213,3.771-0.086,5.354-1.009
			c2.203-1.284,4.152-4.519,6.372-3.265c-1.621,2.844-3.242,5.688-4.862,8.532c1.748-0.13,3.496-0.26,5.243-0.39
			c0.71,1.212,1.056,2.633,0.984,4.035c2.138-0.149,5.08-1.558,4.125-3.477c-0.485-0.975-1.752-1.22-2.594-1.91
			c-2.314-1.896-0.512-5.792-1.671-8.55c-0.58-1.379-1.845-2.322-3.003-3.271c-4.918-4.031-8.773-9.346-11.076-15.273
			c-0.562,1.407-1.179,2.887-2.395,3.791c-1.216,0.904-3.224,0.918-4.025-0.368c-0.439-0.706-0.414-1.595-0.642-2.394
			c-0.518-1.81-2.247-2.956-3.851-3.942c-1.946-1.197-4.239-2.439-6.398-1.693c-2.159,0.746-2.66,4.633-0.403,4.991
			c-2.102,0.076-2.033,3.342-0.835,5.071c1.199,1.729,2.884,3.882,1.735,5.644c-1.019,1.562-3.601,1.409-4.627,2.966
			c-0.989,1.501,0.086,3.435,0.838,5.068c0.752,1.633,0.732,4.201-1.031,4.55c-1.506,0.298-2.598-1.447-2.88-2.956
			c-0.443-2.376-0.13-4.952-1.24-7.098c-1.11-2.147-4.675-3.158-5.792-1.015c-0.613-2.184-2.383-4.006-4.548-4.682
			c-1.76-0.55-3.719-0.383-5.391-1.163c-2.5-1.166-3.622-4.042-4.515-6.652c3.264-1.866,6.742-3.967,8.196-7.433
			c0.391-0.933,0.647-1.978,1.386-2.669c0.665-0.622,1.611-0.844,2.351-1.375c0.74-0.531,1.212-1.699,0.547-2.321
			c0.959-0.586,2.131-0.812,3.239-0.626c1.895,2.571-3.916,6.951-1.18,8.598c1.475,0.888,3.069-0.936,3.831-2.479
			c1.192,0.481,2.384,0.961,3.576,1.442c1.537-1.249-0.268-3.637-2.029-4.544c-1.761-0.907-3.991-2.54-3.108-4.313
			c1.576-0.028,3.152-0.057,4.728-0.085c0.099-1.505-0.9-3.016-2.324-3.515c0.811-1.251,1.623-2.503,2.434-3.754
			c-0.737-0.812-1.933-1.176-2.998-0.914c3.191-0.47,6.307-1.445,9.196-2.879c2.365,2.699,4.59,5.521,6.664,8.449
			c0.333,0.47,0.675,0.986,0.663,1.561c-0.027,1.257-1.546,1.794-2.644,2.408c-1.098,0.613-1.761,2.561-0.542,2.872
			c-0.167,0.93-1.563,0.921-2.348,0.397c-0.785-0.525-1.507-1.349-2.45-1.295c-1.783,0.103-1.49,3.247,0.216,3.778
			c1.706,0.531,3.449-0.57,4.897-1.616c3.333,3.007,7.306,5.3,11.577,6.681c-1.723-0.359-2.979-2.228-2.66-3.959
			c2,0.576,3.905,1.48,5.616,2.665c1.453-1.768-0.409-4.336-2.313-5.604c-1.905-1.268-4.29-2.838-3.99-5.107
			c2.499-0.062,4.978,1.364,6.182,3.554c0.947-1.346,1.895-2.693,2.842-4.04c-1.072-3.542-7.904-2.457-8.616-6.089
			c-0.137-0.701,0.001-1.505-0.438-2.068c-0.683-0.876-2.048-0.447-3.158-0.481c-3.884-0.121-6.235-6.626-9.82-5.125
			c1.498-2.806-2.763-6.358-5.254-4.38c1.369,0.508,2.857,1.215,3.355,2.587c0.499,1.372-0.955,3.248-2.229,2.533
			c-1.287-0.723-0.673-2.762-1.383-4.056c-0.864-1.576-3.468-1.262-4.515,0.199c-1.047,1.461-0.916,3.452-0.497,5.2
			c-0.865-0.021-1.73-0.043-2.594-0.064c-0.19-2.446,0.286-4.94,1.363-7.145c-1.014-1.512-3.317-0.06-4.432,1.379
			c-1.172,1.512-2.38,3.099-2.745,4.976c-0.366,1.878,0.401,4.125,2.19,4.801c1.148,0.434,2.474,0.157,3.616,0.607
			c2.612,1.029,1.583,5.904-1.223,5.79c-0.867-1.425-1.374-3.066-1.462-4.732c-1.352,0.396-2.612,1.1-3.659,2.043
			c-1.371-3.385-3.279-6.552-5.63-9.346c0.559-1.081,1.118-2.162,1.677-3.243c2.25,0.985,5.134-1.425,4.566-3.815
			c-1.87-0.524-3.835-1.052-5.729-0.624c-1.895,0.427-3.647,2.159-3.383,4.083c0.159,1.154,0.978,2.112,1.28,3.237
			c0.303,1.125-0.373,2.697-1.523,2.508c-0.6,2.734,5.193,2.799,5.452,5.587c0.182,1.955-2.471,2.724-4.434,2.697
			c0.574,1.884,0.485,3.963-0.247,5.791c-1.473-2.764-0.667-6.536,1.806-8.458c-1.485-2.282-4.918-3.001-7.194-1.507
			c0.851,1.301,2.199,2.268,3.703,2.657c-0.794,0.921-1.588,1.841-2.382,2.762c-1.72-1.237-4.076-0.266-6.191-0.145
			c-2.115,0.121-4.686-2.215-3.192-3.717c-1.272-0.77-2.997-1.032-4.206-0.166c-1.208,0.866-1.309,3.066,0.039,3.693
			c-2.81,0.722-7.468-4.446-9.501-0.486c-1.273-4.028-3.32-5.229-7.353-5.436c-2.676-0.137-10.613-2.119-11.979,0.131
			C151.517,139.598,150.396,136.76,150.449,136.737z"/>
		<path style="fill:#43BCCD;" d="M157.886,126.17c-1.523,0.163-2.372,1.871-2.567,3.39c-0.195,1.519-0.047,3.151-0.795,4.488
			c-0.185,0.33-0.425,0.644-0.484,1.017c-0.17,1.068,1.216,1.751,2.284,1.581c3.112-0.497,5.066-4.75,8.173-4.221
			c0.031,0.834,0.062,1.668,0.092,2.502c2.046,0.018,4.095-0.279,6.052-0.875c0.596,0.386,0.262,1.399-0.374,1.714
			c-0.636,0.315-1.389,0.209-2.095,0.274c-0.707,0.065-1.512,0.448-1.588,1.154c1.366-0.396,2.795-0.796,4.192-0.529
			c1.397,0.267,2.734,1.429,2.688,2.85c-1.981-0.089-3.97-0.017-5.939,0.216c1.084,1.287,3.051,1.135,4.725,1.316
			c1.673,0.181,3.66,1.522,3.069,3.098c2.267-2.389,6.049-3.19,9.09-1.926c0.76,0.316,1.481,0.749,2.288,0.911
			c0.807,0.162,1.761-0.024,2.212-0.712c0.451-0.688,0.002-1.857-0.82-1.83c1.066-0.147,2.001-0.995,2.25-2.042
			c-1.834,0.596-4.041-0.42-4.781-2.2c-0.671-1.615-0.273-3.691-1.476-4.96c1.049,0.316,2.094-0.933,1.84-1.999
			c-0.254-1.066-1.402-1.733-2.498-1.76c-0.722-0.018-1.494,0.222-1.92,0.805c-0.426,0.583-0.347,1.539,0.278,1.899
			c-0.845-0.411-1.689-0.823-2.534-1.234c-0.336,2.068,3.728,3.302,2.775,5.168c-0.608,1.189-2.676,0.439-2.921-0.874
			c-0.161-0.864,0.038-2.014-0.753-2.396c-1.509-0.729-2.61,2.972-4.052,2.119c0.091-0.83,0.182-1.66,0.272-2.49
			c-1.859-0.148-3.769,0.523-5.126,1.802c0.169-0.804,0.337-1.608,0.506-2.413c-2.016-1.119-4.016,2.845-6.194,2.092
			c2.096,0.725,6.786-3.369,3.097-5.102c-0.884-0.416-2.73,0.233-3.712,0.164C161.414,127.043,159.619,125.985,157.886,126.17z"/>
		<path style="fill:#43BCCD;" d="M167.05,117.589c-1.431-0.715-3.172,0.061-4.385,1.103c-1.214,1.042-2.223,2.378-3.673,3.054
			c-0.686,0.32-1.497,0.517-1.922,1.144c2.408-0.033,4.814-0.196,7.205-0.488c-0.135,0.813-0.542,1.577-1.142,2.142
			c1.12,0.409,2.053-1.001,2.206-2.183c0.048-0.368,0.092-0.784,0.385-1.011c0.235-0.183,0.558-0.184,0.852-0.232
			c1.014-0.163,1.906-1.125,1.782-2.145c-0.124-1.02-1.463-1.737-2.29-1.128"/>
		<path style="fill:#43BCCD;" d="M174.57,124.294c0.295-0.158,0.457-0.53,0.371-0.854c-1.496,0.049-2.921-1.194-3.076-2.682
			c-0.852-0.544-2.154-0.121-2.523,0.82c-0.369,0.941,0.298,2.136,1.292,2.317c-1.45,0.62-2.9,1.24-4.35,1.86
			c2.769,1.493,6.056-1.758,9.134-1.106c-0.001,0.372-0.003,0.744-0.004,1.116c-1.328,0.016-2.637,0.629-3.501,1.638
			c2.292,0.204,4.645-0.369,6.586-1.604c0.549-0.349,1.094-0.761,1.738-0.852c0.566-0.08,1.131,0.099,1.697,0.179
			c1.338,0.189,3.035-0.569,2.987-1.92c-0.903-0.302-1.867-0.42-2.816-0.344c-0.291-1.755-2.484-2.894-4.087-2.121
			c0.027,1.209,0.59,2.397,1.511,3.181c-0.91,0.796-2.332,0.94-3.383,0.341c-0.499-0.284-0.958-0.729-1.532-0.732
			c-0.616-0.003-1.417,0.442-1.73-0.089"/>
		<path style="fill:#43BCCD;" d="M176.295,115.531c-2.258-0.269-4.59,0.119-6.639,1.104c1.107,0.5,2.215,0.999,3.322,1.499
			c0.252,0.114,0.514,0.23,0.791,0.225c0.244-0.004,0.476-0.102,0.701-0.199c1.067-0.459,2.135-0.917,3.202-1.376
			c-0.185-0.271-0.37-0.541-0.555-0.812c0.476,0.323,1.195-0.147,1.226-0.721c0.031-0.575-0.453-1.079-1.003-1.25
			c-0.55-0.17-1.145-0.077-1.705,0.056c-0.651,0.155-1.29,0.363-1.908,0.62c0.325,0.682,0.967,1.204,1.7,1.383
			c0.012,0.269,0.024,0.538,0.035,0.808"/>
		<path style="fill:#43BCCD;" d="M192.08,115.869c-0.491,0.025-0.783-0.558-0.805-1.049c-0.022-0.491,0.084-1.02-0.158-1.448
			c-0.596-1.052-2.21-0.273-3.404-0.465c-0.71-0.114-1.294-0.61-1.968-0.86c-0.674-0.251-1.63-0.11-1.824,0.582
			c-0.217,0.775,0.731,1.397,1.535,1.413c0.804,0.016,1.633-0.27,2.397-0.016c0.143,0.048,0.285,0.118,0.375,0.238
			c0.567,0.758-1.473,1.312-1.285,2.24c0.093,0.456,0.664,0.599,1.126,0.648c0.687,0.074,1.374,0.147,2.061,0.221
			c0.715,0.077,1.507,0.133,2.082-0.298c0.575-0.432,0.589-1.549-0.109-1.723"/>
		<path style="fill:#43BCCD;" d="M195.715,123.12c0.401-0.468,0.156-1.248-0.346-1.607c-0.502-0.359-1.157-0.404-1.773-0.408
			c-1.799-0.012-3.6,0.22-5.337,0.686c-0.538,0.145-1.097,0.313-1.642,0.197c-0.545-0.116-1.05-0.636-0.928-1.179
			c-0.745,0.837,0.151,2.228,1.233,2.517c1.082,0.289,2.228-0.045,3.346,0.015c1.118,0.06,2.4,0.829,2.282,1.943
			c-0.028,0.266-0.134,0.545-0.025,0.789c0.131,0.291,0.504,0.379,0.823,0.364c1.489-0.07,2.628-1.825,2.086-3.213
			c-0.358,0.056-0.74-0.152-0.889-0.482c0.653-0.257,1.164-0.849,1.322-1.533c-1.215-0.459-2.631-0.349-3.761,0.292"/>
		<path style="fill:#43BCCD;" d="M195.083,129.281c0.619-0.45,0.21-1.556-0.524-1.773s-1.509,0.172-2.115,0.639
			c-0.038,0.629-0.077,1.258-0.115,1.888c-0.726-0.154-1.512-0.001-2.128,0.414c1.073,0.287,1.954,1.201,2.199,2.285
			c-1.021,0.7-2.639,0.209-3.098-0.941c-0.213-0.535-0.29-1.254-0.837-1.431c-0.774-0.251-1.226,0.975-0.869,1.706
			c0.945,1.933,3.822,1.807,5.428,3.239c0.577,0.515,1.453,1.25,1.943,0.651c0.389-0.476-0.117-1.15-0.588-1.546
			c0.569,0.072,1.174,0.124,1.69-0.125c0.516-0.249,0.874-0.914,0.594-1.414c-0.145-0.26-0.419-0.415-0.651-0.602
			c-0.851-0.686-1.16-1.966-0.715-2.965c-0.307-0.129-0.613-0.259-0.92-0.388"/>
		<path style="fill:#43BCCD;" d="M223.263,124.154c-1.944-1.168-4.356-1.528-6.556-0.979c-1.59,0.397-3.076,1.245-4.711,1.36
			c-2.39,0.167-4.676-1.332-5.979-3.342c1.811-1.241,4.46,1.193,6.368,0.108c0.55-0.313,0.932-0.881,1.51-1.137
			c0.59-0.262,1.271-0.153,1.906-0.039c3.056,0.547,6.113,1.095,9.169,1.642c0.36-1.307-0.757-2.801-2.113-2.826
			c1.601-0.645,3.203-1.29,4.804-1.935c0.808-0.325,1.673-0.699,2.113-1.451c0.44-0.752,0.128-1.971-0.736-2.08
			c3.687-1.283,7.259-2.895,10.661-4.812c-0.342-0.592-0.685-1.184-1.027-1.776c2.365,0.244,4.816-0.48,6.67-1.969
			c-2.655-0.219-5.348,0.033-7.916,0.74c4.417,0.557,8.99-0.186,13.004-2.112c-1.442-1.257-4.067,0.379-5.487-0.902
			c-0.426-0.384-0.637-0.964-1.071-1.339c-0.534-0.461-1.293-0.525-1.997-0.563c-7.208-0.386-14.447-0.182-21.622,0.61
			c-1.184,0.131-2.677,0.588-2.745,1.777c-1.718-0.071-3.436-0.142-5.154-0.213c-1.236,1.665-3.67,2.311-5.569,1.479
			c-0.429,0.681-0.859,1.362-1.288,2.044c1.2,0.827,2.7,1.207,4.149,1.053c0.886,1.825,3.756,2.225,5.108,0.711
			c0.601,2.068,3.693,1.68,5.528,0.552c1.834-1.128,4.19-2.568,5.908-1.27c-2.282,1.766-5.207,2.681-8.088,2.531
			c0.722,0.869,1.443,1.737,2.165,2.606c-1.77,0.11-3.34-1.016-4.889-1.881c-1.548-0.865-3.578-1.473-5.009-0.425
			c1.294,1.055,2.587,2.111,3.881,3.166c-3.565-1.877-7.129-3.755-10.694-5.633c-1.045-0.55-2.253-1.115-3.36-0.704
			c-1.107,0.411-1.44,2.345-0.301,2.656c-0.883,0.162-1.644,0.866-1.872,1.735c2.112,0.17,4.189,0.757,6.077,1.718
			c-0.889,0.285-1.777,0.571-2.666,0.856c2.03,0.661,4.06,1.322,6.09,1.984c0.414,0.135,0.886,0.265,1.267,0.055
			c0.383-0.212,0.521-0.681,0.735-1.064c0.638-1.143,2.276-1.583,3.4-0.913c-0.258,0.613-0.515,1.226-0.773,1.838
			c0.959,0.006,1.918,0.011,2.877,0.017c0.016,0.526,0.032,1.053,0.048,1.579c1.391,0.215,2.821,0.175,4.198-0.117
			c-0.504,1.865-3.211,2.029-4.899,1.09c-1.688-0.939-3.019-2.548-4.878-3.074c0.593,1.387,1.543,2.62,2.734,3.547
			c-2.48-0.399-5.061-0.153-7.421,0.709c-0.231-0.497-0.461-0.995-0.692-1.492c-1.941,0.805-1.648,3.614-1.016,5.617
			c0.186,0.588,0.38,1.192,0.77,1.67c0.884,1.083,2.463,1.208,3.861,1.249c2.103,0.06,4.206,0.121,6.309,0.181
			C216.97,127.067,223.376,128.443,223.263,124.154z"/>
		<path style="fill:#43BCCD;" d="M200.195,121.893c0.576-0.398,1.619-0.062,1.885-0.709c0.2-0.488-0.321-0.952-0.78-1.211
			c-0.46-0.258-1.007-0.659-0.881-1.171c-0.41,0.058-0.839-0.031-1.192-0.246c0.879-0.231,1.758-0.463,2.637-0.694
			c0.335-0.088,0.76-0.391,0.562-0.675c-0.068-0.097-0.19-0.139-0.305-0.168c-0.545-0.14-1.138-0.158-1.616-0.454
			c-0.478-0.296-0.746-1.039-0.329-1.417c-0.301-0.027-0.603-0.054-0.904-0.081c-0.013-0.24-0.026-0.479-0.039-0.718
			c-1.558-0.042-3.115-0.169-4.659-0.381c-0.226,1.042,0.777,2.153,1.837,2.035c0.171-0.019,0.361-0.06,0.503,0.038
			c0.126,0.087,0.164,0.253,0.23,0.391c0.199,0.413,0.75,0.612,1.167,0.421c-0.122,0.301-0.329,0.566-0.59,0.759
			c0.503,0.267,1.056,0.441,1.622,0.508c-0.446,0.354-0.974,0.604-1.53,0.725c0.229,0.186,0.459,0.372,0.688,0.558
			c-0.588,0.012-1.176,0.023-1.764,0.035c-0.179,0.553,0.36,1.084,0.9,1.299c0.598,0.237,3.507,2.09,1.762,2.916
			c-0.991,0.469-1.406-1.166-1.056-1.791c0.554,1.281,0.385,3.067,1.356,4.188c0.708,0.817,1.786,0.969,2.474-0.109
			C203.365,124.076,200.484,123.516,200.195,121.893z"/>
		<path style="fill:#662E9B;" d="M217.613,266.155c-0.691,1.852,1.537,4.015,3.368,3.268c0.528-0.215,0.988-0.607,1.55-0.705
			c1.573-0.275,2.477,1.704,2.81,3.266c0.381,1.787,0.753,3.696,0.087,5.397c-0.798,2.039-2.982,3.463-3.238,5.637
			c-0.209,1.777,0.963,3.611,0.362,5.296c-0.273,0.764-0.881,1.371-1.167,2.131c-0.513,1.361,0.099,2.863,0.702,4.187
			c2.004,4.401,4.008,8.802,6.012,13.202c0.451,0.99,0.934,2.021,1.799,2.681c0.688,0.525,1.553,0.762,2.282,1.227
			c1.192,0.76,1.92,2.05,2.601,3.288c1.259,2.29,2.534,4.622,3.072,7.179c0.734,3.488,0.043,7.1-0.648,10.597
			c-1.01,5.113-2.021,10.226-3.031,15.34c-1.112,5.625-2.223,11.251-3.335,16.876c1.189-0.721,2.072-1.93,2.396-3.282
			c0.567,3.658-0.154,7.502-2.009,10.705c-0.161-1.381-0.322-2.762-0.483-4.143c-1.36,2.935-2.062,6.173-2.041,9.408
			c0.004,0.582,0.054,1.22,0.458,1.639c0.384,0.398,0.979,0.486,1.469,0.742c1.064,0.557,1.52,2.037,0.954,3.096
			c0.563,0.13,1.126,0.26,1.688,0.39c0.872,0.69-1.186,1.657-1.177,2.769c0.003,0.452,0.37,0.807,0.709,1.106
			c1.592,1.403,3.184,2.806,4.776,4.208c1.109,0.328,2.262,0.659,3.405,0.481c1.142-0.178,2.269-1.021,2.375-2.172
			c0.145-1.581-1.499-2.637-2.562-3.816c-1.65-1.83-2.052-4.522-1.636-6.951c0.416-2.429,1.547-4.667,2.664-6.863
			c-0.722-0.272-1.444-0.544-2.166-0.815c0.053-1.622,1.708-2.628,2.754-3.869c1.901-2.255,1.692-5.988-0.449-8.017
			c0.792-0.558,1.584-1.116,2.376-1.674c0.65,1.038,1.3,2.077,1.95,3.115c1.625-1.304,2.233-3.729,1.417-5.645
			c3.682,0.944,7.842-2.073,8.089-5.865c-0.911-0.031-1.631-1.078-1.334-1.94c0.297-0.862,1.509-1.243,2.246-0.706
			c-0.406,1.053,0.796,2.202,1.916,2.064c1.12-0.138,1.958-1.144,2.335-2.208c0.377-1.064,0.409-2.214,0.619-3.323
			c0.335-1.779,1.141-3.467,2.312-4.848c0.974-1.148,2.22-2.126,2.788-3.52c0.416-1.021,0.419-2.154,0.595-3.242
			c0.576-3.55,3.193-6.694,6.58-7.905c0.14,1.587,2.646,1.259,3.821,0.184c1.756-1.607,2.941-3.826,3.3-6.179
			c0.315-2.065,0.036-4.293,1.013-6.138c0.414-0.781,1.04-1.462,1.277-2.313c0.203-0.73,0.096-1.505,0.136-2.261
			c0.214-4.061,4.565-7.267,4.058-11.301c-0.329-2.62-2.608-4.496-4.714-6.089c-3.217-2.432-6.637-4.949-10.639-5.448
			c-2.541-0.317-5.276,0.185-7.56-0.972c1.016-0.062,1.737-1.123,1.788-2.139c0.051-1.017-0.388-1.987-0.819-2.909
			c-0.291-0.623-0.581-1.247-0.872-1.87c-1.18-2.531-3.115-5.502-5.879-5.105c-0.823,0.118-1.724,0.531-2.425,0.084
			c-0.642-0.41-0.713-1.302-1.061-1.979c-1.364-2.652-6.529-1.57-7.312-4.448c-0.204-0.75-0.034-1.658-0.573-2.218
			c-0.437-0.454-1.148-0.462-1.778-0.438c-2.857,0.105-5.715,0.21-8.572,0.316c-0.096,1.121-0.828,2.166-1.849,2.638
			c0.149,0.658,0.298,1.315,0.447,1.973c-0.234,1.169-2.198,1.026-2.712-0.05c-0.514-1.075-0.018-2.351,0.586-3.379
			c0.604-1.027,1.344-2.074,1.328-3.266c-1.297-0.619-2.609,0.729-3.545,1.819s-2.77,2.036-3.628,0.883
			c0.11,1.186,0.221,2.373,0.331,3.559c-1.842,1.608-5.161,0.905-6.193-1.312c-0.712,0.88-1.495,1.808-2.585,2.115
			c-1.09,0.307-2.516-0.377-2.512-1.509c0.557,2.448,2.978,4.333,5.488,4.273"/>
		<path style="fill:#43BCCD;" d="M215.017,242.699c0.873,0.879,2.222-0.444,3.451-0.597c1.187-0.148,2.161,0.85,3.051,1.648
			c0.89,0.799,2.28,1.47,3.206,0.713c0.444,1.851,3.017,2.775,4.537,1.629c-0.138,0.653,0.722,1.1,1.38,0.985
			c0.658-0.115,1.245-0.53,1.91-0.578c0.962-0.07,1.891,0.783,1.904,1.748c0.021,0.353-0.474,0.483-0.816,0.394
			c-0.342-0.089-0.722-0.266-1.024-0.081c-0.212,0.13-0.294,0.393-0.442,0.593c-0.536,0.73-1.663,0.452-2.519,0.156
			c-0.856-0.296-2.074-0.38-2.4,0.464c2.688,0.531,5.487,0.49,8.158-0.121c-0.22,0.21-0.058,0.616,0.22,0.74
			c0.278,0.123,0.599,0.054,0.894-0.017c1.14-0.274,2.28-0.548,3.421-0.823c0.686,0.416,1.603,0.419,2.292,0.007
			c-0.047,0.313-0.095,0.627-0.142,0.94c1.339,0.58,3.067,0.025,3.818-1.226c-1.897-0.314-3.794-0.628-5.69-0.942
			c-1.361-0.225-2.757-0.463-3.945-1.163c-1.172-0.69-2.103-1.807-3.397-2.227c-1.806-0.586-3.88,0.333-5.636-0.389
			c-1.7-0.7-2.77-2.816-4.608-2.85c-0.597-0.011-1.228,0.21-1.771-0.039c-1.376-0.632-1.195-1.937-2.978-1.257
			C217.555,240.535,215.317,243.001,215.017,242.699z"/>
		<path style="fill:none;" d="M367.397,206.727c-0.866,1.784-1.259,3.77-0.918,5.72c0.586,3.359,3.193,6.464,2.458,9.796
			c-1.137-0.297-2.274-0.595-3.411-0.883"/>
		<path style="fill:none;" d="M379.615,161.771c-0.07,0.21-0.157,0.411-0.245,0.612"/>
		<path style="fill:none;" d="M379.834,160.441c-0.017-0.805-0.359-1.557-0.883-2.187"/>
	</g>
	<g>
		<rect x="52.232" y="430.295" style="fill:none;" width="74.079" height="30.74"/>
		<text id="XMLID_183_" transform="matrix(1 0 0 1 52.232 434.7345)"><tspan x="0" y="0" style="fill:#808285; font-family:'Poppins-Regular'; font-size:6px;">Curabitur vehicula dolor </tspan><tspan x="0" y="7.2" style="fill:#808285; font-family:'Poppins-Regular'; font-size:6px;">eget ligula malesuada a </tspan><tspan x="0" y="14.4" style="fill:#808285; font-family:'Poppins-Regular'; font-size:6px;">porta elit condimentum. </tspan><tspan x="0" y="21.6" style="fill:#808285; font-family:'Poppins-Regular'; font-size:6px;">Nullam egestas </tspan></text>
		
			<text id="XMLID_182_" transform="matrix(1 0 0 1 52.232 419.9619)" style="fill:#43BCCD; font-family:'Poppins-Bold'; font-size:9px;">Title 01</text>
		<circle style="fill:#43BCCD;" cx="43.806" cy="417.132" r="2.004"/>
	</g>
	<rect x="166.685" y="430.295" style="fill:none;" width="74.079" height="30.74"/>
	<text id="XMLID_190_" transform="matrix(1 0 0 1 166.6849 434.7345)"><tspan x="0" y="0" style="fill:#808285; font-family:'Poppins-Regular'; font-size:6px;">Curabitur vehicula dolor </tspan><tspan x="0" y="7.2" style="fill:#808285; font-family:'Poppins-Regular'; font-size:6px;">eget ligula malesuada a </tspan><tspan x="0" y="14.4" style="fill:#808285; font-family:'Poppins-Regular'; font-size:6px;">porta elit condimentum. </tspan><tspan x="0" y="21.6" style="fill:#808285; font-family:'Poppins-Regular'; font-size:6px;">Nullam egestas </tspan></text>
	
		<text id="XMLID_189_" transform="matrix(1 0 0 1 166.6849 419.9619)" style="fill:#662E9B; font-family:'Poppins-Bold'; font-size:9px;">Title 02</text>
	<circle style="fill:#662E9B;" cx="158.259" cy="417.132" r="2.004"/>
	<rect x="281.138" y="430.295" style="fill:none;" width="74.079" height="30.74"/>
	<text id="XMLID_193_" transform="matrix(1 0 0 1 281.1377 434.7345)"><tspan x="0" y="0" style="fill:#808285; font-family:'Poppins-Regular'; font-size:6px;">Curabitur vehicula dolor </tspan><tspan x="0" y="7.2" style="fill:#808285; font-family:'Poppins-Regular'; font-size:6px;">eget ligula malesuada a </tspan><tspan x="0" y="14.4" style="fill:#808285; font-family:'Poppins-Regular'; font-size:6px;">porta elit condimentum. </tspan><tspan x="0" y="21.6" style="fill:#808285; font-family:'Poppins-Regular'; font-size:6px;">Nullam egestas </tspan></text>
	
		<text id="XMLID_191_" transform="matrix(1 0 0 1 281.1377 419.9619)" style="fill:#A0C261; font-family:'Poppins-Bold'; font-size:9px;">Title 03</text>
	<path style="fill:#A0C261;" d="M274.716,417.132c0,1.107-0.897,2.004-2.004,2.004c-1.107,0-2.004-0.897-2.004-2.004
		c0-1.107,0.897-2.004,2.004-2.004C273.819,415.128,274.716,416.025,274.716,417.132z"/>
	<rect x="395.591" y="430.295" style="fill:none;" width="74.079" height="30.74"/>
	<text id="XMLID_195_" transform="matrix(1 0 0 1 395.5906 434.7345)"><tspan x="0" y="0" style="fill:#808285; font-family:'Poppins-Regular'; font-size:6px;">Curabitur vehicula dolor </tspan><tspan x="0" y="7.2" style="fill:#808285; font-family:'Poppins-Regular'; font-size:6px;">eget ligula malesuada a </tspan><tspan x="0" y="14.4" style="fill:#808285; font-family:'Poppins-Regular'; font-size:6px;">porta elit condimentum. </tspan><tspan x="0" y="21.6" style="fill:#808285; font-family:'Poppins-Regular'; font-size:6px;">Nullam egestas </tspan></text>
	
		<text id="XMLID_194_" transform="matrix(1 0 0 1 395.5906 419.9619)" style="fill:#F9C80E; font-family:'Poppins-Bold'; font-size:9px;">Title 04</text>
	<circle style="fill:#F9C80E;" cx="387.165" cy="417.132" r="2.004"/>
	<rect x="510.044" y="430.295" style="fill:none;" width="74.079" height="30.74"/>
	<text id="XMLID_197_" transform="matrix(1 0 0 1 510.0435 434.7345)"><tspan x="0" y="0" style="fill:#808285; font-family:'Poppins-Regular'; font-size:6px;">Curabitur vehicula dolor </tspan><tspan x="0" y="7.2" style="fill:#808285; font-family:'Poppins-Regular'; font-size:6px;">eget ligula malesuada a </tspan><tspan x="0" y="14.4" style="fill:#808285; font-family:'Poppins-Regular'; font-size:6px;">porta elit condimentum. </tspan><tspan x="0" y="21.6" style="fill:#808285; font-family:'Poppins-Regular'; font-size:6px;">Nullam egestas </tspan></text>
	
		<text id="XMLID_196_" transform="matrix(1 0 0 1 510.0435 419.9619)" style="fill:#F86624; font-family:'Poppins-Bold'; font-size:9px;">Title 05</text>
	<circle style="fill:#F86624;" cx="501.618" cy="417.132" r="2.004"/>
	<rect x="624.497" y="430.295" style="fill:none;" width="74.079" height="30.74"/>
	<text id="XMLID_199_" transform="matrix(1 0 0 1 624.4964 434.7345)"><tspan x="0" y="0" style="fill:#808285; font-family:'Poppins-Regular'; font-size:6px;">Curabitur vehicula dolor </tspan><tspan x="0" y="7.2" style="fill:#808285; font-family:'Poppins-Regular'; font-size:6px;">eget ligula malesuada a </tspan><tspan x="0" y="14.4" style="fill:#808285; font-family:'Poppins-Regular'; font-size:6px;">porta elit condimentum. </tspan><tspan x="0" y="21.6" style="fill:#808285; font-family:'Poppins-Regular'; font-size:6px;">Nullam egestas </tspan></text>
	
		<text id="XMLID_198_" transform="matrix(1 0 0 1 624.4964 419.9619)" style="fill:#EA3546; font-family:'Poppins-Bold'; font-size:9px;">Title 06</text>
	<path style="fill:#EA3546;" d="M618.075,417.132c0,1.107-0.897,2.004-2.004,2.004c-1.107,0-2.004-0.897-2.004-2.004
		c0-1.107,0.897-2.004,2.004-2.004C617.177,415.128,618.075,416.025,618.075,417.132z"/>
</g>
</svg>
